<?xml version="1.0" encoding="utf-8" standalone="no"?>
<!DOCTYPE svg PUBLIC "-//W3C//DTD SVG 1.1//EN"
  "http://www.w3.org/Graphics/SVG/1.1/DTD/svg11.dtd">
<svg xmlns:xlink="http://www.w3.org/1999/xlink" width="864pt" height="288pt" viewBox="0 0 864 288" xmlns="http://www.w3.org/2000/svg" version="1.1">
 <metadata>
  <rdf:RDF xmlns:dc="http://purl.org/dc/elements/1.1/" xmlns:cc="http://creativecommons.org/ns#" xmlns:rdf="http://www.w3.org/1999/02/22-rdf-syntax-ns#">
   <cc:Work>
    <dc:type rdf:resource="http://purl.org/dc/dcmitype/StillImage"/>
    <dc:date>2023-09-26T20:27:56.991068</dc:date>
    <dc:format>image/svg+xml</dc:format>
    <dc:creator>
     <cc:Agent>
      <dc:title>Matplotlib v3.7.0, https://matplotlib.org/</dc:title>
     </cc:Agent>
    </dc:creator>
   </cc:Work>
  </rdf:RDF>
 </metadata>
 <defs>
  <style type="text/css">*{stroke-linejoin: round; stroke-linecap: butt}</style>
 </defs>
 <g id="figure_1">
  <g id="patch_1">
   <path d="M 0 288 
L 864 288 
L 864 0 
L 0 0 
z
" style="fill: #ffffff"/>
  </g>
  <g id="axes_1">
   <g id="patch_2">
    <path d="M 67.7 236.068 
L 277.324671 236.068 
L 277.324671 13.5 
L 67.7 13.5 
z
" style="fill: #ffffff"/>
   </g>
   <g id="matplotlib.axis_1">
    <g id="xtick_1">
     <g id="line2d_1">
      <path d="M 77.228394 236.068 
L 77.228394 13.5 
" clip-path="url(#p567214384c)" style="fill: none; stroke: #b0b0b0; stroke-width: 0.8; stroke-linecap: square"/>
     </g>
     <g id="line2d_2">
      <defs>
       <path id="m35602c3ffe" d="M 0 0 
L 0 3.5 
" style="stroke: #000000; stroke-width: 0.8"/>
      </defs>
      <g>
       <use xlink:href="#m35602c3ffe" x="77.228394" y="236.068" style="stroke: #000000; stroke-width: 0.8"/>
      </g>
     </g>
     <g id="text_1">
      <!-- −0.50 -->
      <g transform="translate(58.075074 252.566047) scale(0.125 -0.125)">
       <defs>
        <path id="DejaVuSans-2212" d="M 678 2272 
L 4684 2272 
L 4684 1741 
L 678 1741 
L 678 2272 
z
" transform="scale(0.015625)"/>
        <path id="DejaVuSans-30" d="M 2034 4250 
Q 1547 4250 1301 3770 
Q 1056 3291 1056 2328 
Q 1056 1369 1301 889 
Q 1547 409 2034 409 
Q 2525 409 2770 889 
Q 3016 1369 3016 2328 
Q 3016 3291 2770 3770 
Q 2525 4250 2034 4250 
z
M 2034 4750 
Q 2819 4750 3233 4129 
Q 3647 3509 3647 2328 
Q 3647 1150 3233 529 
Q 2819 -91 2034 -91 
Q 1250 -91 836 529 
Q 422 1150 422 2328 
Q 422 3509 836 4129 
Q 1250 4750 2034 4750 
z
" transform="scale(0.015625)"/>
        <path id="DejaVuSans-2e" d="M 684 794 
L 1344 794 
L 1344 0 
L 684 0 
L 684 794 
z
" transform="scale(0.015625)"/>
        <path id="DejaVuSans-35" d="M 691 4666 
L 3169 4666 
L 3169 4134 
L 1269 4134 
L 1269 2991 
Q 1406 3038 1543 3061 
Q 1681 3084 1819 3084 
Q 2600 3084 3056 2656 
Q 3513 2228 3513 1497 
Q 3513 744 3044 326 
Q 2575 -91 1722 -91 
Q 1428 -91 1123 -41 
Q 819 9 494 109 
L 494 744 
Q 775 591 1075 516 
Q 1375 441 1709 441 
Q 2250 441 2565 725 
Q 2881 1009 2881 1497 
Q 2881 1984 2565 2268 
Q 2250 2553 1709 2553 
Q 1456 2553 1204 2497 
Q 953 2441 691 2322 
L 691 4666 
z
" transform="scale(0.015625)"/>
       </defs>
       <use xlink:href="#DejaVuSans-2212"/>
       <use xlink:href="#DejaVuSans-30" x="83.789062"/>
       <use xlink:href="#DejaVuSans-2e" x="147.412109"/>
       <use xlink:href="#DejaVuSans-35" x="179.199219"/>
       <use xlink:href="#DejaVuSans-30" x="242.822266"/>
      </g>
     </g>
    </g>
    <g id="xtick_2">
     <g id="line2d_3">
      <path d="M 125.109772 236.068 
L 125.109772 13.5 
" clip-path="url(#p567214384c)" style="fill: none; stroke: #b0b0b0; stroke-width: 0.8; stroke-linecap: square"/>
     </g>
     <g id="line2d_4">
      <g>
       <use xlink:href="#m35602c3ffe" x="125.109772" y="236.068" style="stroke: #000000; stroke-width: 0.8"/>
      </g>
     </g>
     <g id="text_2">
      <!-- −0.25 -->
      <g transform="translate(105.956451 252.566047) scale(0.125 -0.125)">
       <defs>
        <path id="DejaVuSans-32" d="M 1228 531 
L 3431 531 
L 3431 0 
L 469 0 
L 469 531 
Q 828 903 1448 1529 
Q 2069 2156 2228 2338 
Q 2531 2678 2651 2914 
Q 2772 3150 2772 3378 
Q 2772 3750 2511 3984 
Q 2250 4219 1831 4219 
Q 1534 4219 1204 4116 
Q 875 4013 500 3803 
L 500 4441 
Q 881 4594 1212 4672 
Q 1544 4750 1819 4750 
Q 2544 4750 2975 4387 
Q 3406 4025 3406 3419 
Q 3406 3131 3298 2873 
Q 3191 2616 2906 2266 
Q 2828 2175 2409 1742 
Q 1991 1309 1228 531 
z
" transform="scale(0.015625)"/>
       </defs>
       <use xlink:href="#DejaVuSans-2212"/>
       <use xlink:href="#DejaVuSans-30" x="83.789062"/>
       <use xlink:href="#DejaVuSans-2e" x="147.412109"/>
       <use xlink:href="#DejaVuSans-32" x="179.199219"/>
       <use xlink:href="#DejaVuSans-35" x="242.822266"/>
      </g>
     </g>
    </g>
    <g id="xtick_3">
     <g id="line2d_5">
      <path d="M 172.991149 236.068 
L 172.991149 13.5 
" clip-path="url(#p567214384c)" style="fill: none; stroke: #b0b0b0; stroke-width: 0.8; stroke-linecap: square"/>
     </g>
     <g id="line2d_6">
      <g>
       <use xlink:href="#m35602c3ffe" x="172.991149" y="236.068" style="stroke: #000000; stroke-width: 0.8"/>
      </g>
     </g>
     <g id="text_3">
      <!-- 0.00 -->
      <g transform="translate(159.075134 252.566047) scale(0.125 -0.125)">
       <use xlink:href="#DejaVuSans-30"/>
       <use xlink:href="#DejaVuSans-2e" x="63.623047"/>
       <use xlink:href="#DejaVuSans-30" x="95.410156"/>
       <use xlink:href="#DejaVuSans-30" x="159.033203"/>
      </g>
     </g>
    </g>
    <g id="xtick_4">
     <g id="line2d_7">
      <path d="M 220.872527 236.068 
L 220.872527 13.5 
" clip-path="url(#p567214384c)" style="fill: none; stroke: #b0b0b0; stroke-width: 0.8; stroke-linecap: square"/>
     </g>
     <g id="line2d_8">
      <g>
       <use xlink:href="#m35602c3ffe" x="220.872527" y="236.068" style="stroke: #000000; stroke-width: 0.8"/>
      </g>
     </g>
     <g id="text_4">
      <!-- 0.25 -->
      <g transform="translate(206.956511 252.566047) scale(0.125 -0.125)">
       <use xlink:href="#DejaVuSans-30"/>
       <use xlink:href="#DejaVuSans-2e" x="63.623047"/>
       <use xlink:href="#DejaVuSans-32" x="95.410156"/>
       <use xlink:href="#DejaVuSans-35" x="159.033203"/>
      </g>
     </g>
    </g>
    <g id="xtick_5">
     <g id="line2d_9">
      <path d="M 268.753904 236.068 
L 268.753904 13.5 
" clip-path="url(#p567214384c)" style="fill: none; stroke: #b0b0b0; stroke-width: 0.8; stroke-linecap: square"/>
     </g>
     <g id="line2d_10">
      <g>
       <use xlink:href="#m35602c3ffe" x="268.753904" y="236.068" style="stroke: #000000; stroke-width: 0.8"/>
      </g>
     </g>
     <g id="text_5">
      <!-- 0.50 -->
      <g transform="translate(254.837889 252.566047) scale(0.125 -0.125)">
       <use xlink:href="#DejaVuSans-30"/>
       <use xlink:href="#DejaVuSans-2e" x="63.623047"/>
       <use xlink:href="#DejaVuSans-35" x="95.410156"/>
       <use xlink:href="#DejaVuSans-30" x="159.033203"/>
      </g>
     </g>
    </g>
    <g id="text_6">
     <!-- Time (s) -->
     <g transform="translate(147.101203 268.663703) scale(0.125 -0.125)">
      <defs>
       <path id="DejaVuSans-54" d="M -19 4666 
L 3928 4666 
L 3928 4134 
L 2272 4134 
L 2272 0 
L 1638 0 
L 1638 4134 
L -19 4134 
L -19 4666 
z
" transform="scale(0.015625)"/>
       <path id="DejaVuSans-69" d="M 603 3500 
L 1178 3500 
L 1178 0 
L 603 0 
L 603 3500 
z
M 603 4863 
L 1178 4863 
L 1178 4134 
L 603 4134 
L 603 4863 
z
" transform="scale(0.015625)"/>
       <path id="DejaVuSans-6d" d="M 3328 2828 
Q 3544 3216 3844 3400 
Q 4144 3584 4550 3584 
Q 5097 3584 5394 3201 
Q 5691 2819 5691 2113 
L 5691 0 
L 5113 0 
L 5113 2094 
Q 5113 2597 4934 2840 
Q 4756 3084 4391 3084 
Q 3944 3084 3684 2787 
Q 3425 2491 3425 1978 
L 3425 0 
L 2847 0 
L 2847 2094 
Q 2847 2600 2669 2842 
Q 2491 3084 2119 3084 
Q 1678 3084 1418 2786 
Q 1159 2488 1159 1978 
L 1159 0 
L 581 0 
L 581 3500 
L 1159 3500 
L 1159 2956 
Q 1356 3278 1631 3431 
Q 1906 3584 2284 3584 
Q 2666 3584 2933 3390 
Q 3200 3197 3328 2828 
z
" transform="scale(0.015625)"/>
       <path id="DejaVuSans-65" d="M 3597 1894 
L 3597 1613 
L 953 1613 
Q 991 1019 1311 708 
Q 1631 397 2203 397 
Q 2534 397 2845 478 
Q 3156 559 3463 722 
L 3463 178 
Q 3153 47 2828 -22 
Q 2503 -91 2169 -91 
Q 1331 -91 842 396 
Q 353 884 353 1716 
Q 353 2575 817 3079 
Q 1281 3584 2069 3584 
Q 2775 3584 3186 3129 
Q 3597 2675 3597 1894 
z
M 3022 2063 
Q 3016 2534 2758 2815 
Q 2500 3097 2075 3097 
Q 1594 3097 1305 2825 
Q 1016 2553 972 2059 
L 3022 2063 
z
" transform="scale(0.015625)"/>
       <path id="DejaVuSans-20" transform="scale(0.015625)"/>
       <path id="DejaVuSans-28" d="M 1984 4856 
Q 1566 4138 1362 3434 
Q 1159 2731 1159 2009 
Q 1159 1288 1364 580 
Q 1569 -128 1984 -844 
L 1484 -844 
Q 1016 -109 783 600 
Q 550 1309 550 2009 
Q 550 2706 781 3412 
Q 1013 4119 1484 4856 
L 1984 4856 
z
" transform="scale(0.015625)"/>
       <path id="DejaVuSans-73" d="M 2834 3397 
L 2834 2853 
Q 2591 2978 2328 3040 
Q 2066 3103 1784 3103 
Q 1356 3103 1142 2972 
Q 928 2841 928 2578 
Q 928 2378 1081 2264 
Q 1234 2150 1697 2047 
L 1894 2003 
Q 2506 1872 2764 1633 
Q 3022 1394 3022 966 
Q 3022 478 2636 193 
Q 2250 -91 1575 -91 
Q 1294 -91 989 -36 
Q 684 19 347 128 
L 347 722 
Q 666 556 975 473 
Q 1284 391 1588 391 
Q 1994 391 2212 530 
Q 2431 669 2431 922 
Q 2431 1156 2273 1281 
Q 2116 1406 1581 1522 
L 1381 1569 
Q 847 1681 609 1914 
Q 372 2147 372 2553 
Q 372 3047 722 3315 
Q 1072 3584 1716 3584 
Q 2034 3584 2315 3537 
Q 2597 3491 2834 3397 
z
" transform="scale(0.015625)"/>
       <path id="DejaVuSans-29" d="M 513 4856 
L 1013 4856 
Q 1481 4119 1714 3412 
Q 1947 2706 1947 2009 
Q 1947 1309 1714 600 
Q 1481 -109 1013 -844 
L 513 -844 
Q 928 -128 1133 580 
Q 1338 1288 1338 2009 
Q 1338 2731 1133 3434 
Q 928 4138 513 4856 
z
" transform="scale(0.015625)"/>
      </defs>
      <use xlink:href="#DejaVuSans-54"/>
      <use xlink:href="#DejaVuSans-69" x="57.958984"/>
      <use xlink:href="#DejaVuSans-6d" x="85.742188"/>
      <use xlink:href="#DejaVuSans-65" x="183.154297"/>
      <use xlink:href="#DejaVuSans-20" x="244.677734"/>
      <use xlink:href="#DejaVuSans-28" x="276.464844"/>
      <use xlink:href="#DejaVuSans-73" x="315.478516"/>
      <use xlink:href="#DejaVuSans-29" x="367.578125"/>
     </g>
    </g>
   </g>
   <g id="matplotlib.axis_2">
    <g id="ytick_1">
     <g id="line2d_11">
      <path d="M 67.7 229.851106 
L 277.324671 229.851106 
" clip-path="url(#p567214384c)" style="fill: none; stroke: #b0b0b0; stroke-width: 0.8; stroke-linecap: square"/>
     </g>
     <g id="line2d_12">
      <defs>
       <path id="m23f072e20f" d="M 0 0 
L -3.5 0 
" style="stroke: #000000; stroke-width: 0.8"/>
      </defs>
      <g>
       <use xlink:href="#m23f072e20f" x="67.7" y="229.851106" style="stroke: #000000; stroke-width: 0.8"/>
      </g>
     </g>
     <g id="text_7">
      <!-- −1.0 -->
      <g transform="translate(30.346484 234.600129) scale(0.125 -0.125)">
       <defs>
        <path id="DejaVuSans-31" d="M 794 531 
L 1825 531 
L 1825 4091 
L 703 3866 
L 703 4441 
L 1819 4666 
L 2450 4666 
L 2450 531 
L 3481 531 
L 3481 0 
L 794 0 
L 794 531 
z
" transform="scale(0.015625)"/>
       </defs>
       <use xlink:href="#DejaVuSans-2212"/>
       <use xlink:href="#DejaVuSans-31" x="83.789062"/>
       <use xlink:href="#DejaVuSans-2e" x="147.412109"/>
       <use xlink:href="#DejaVuSans-30" x="179.199219"/>
      </g>
     </g>
    </g>
    <g id="ytick_2">
     <g id="line2d_13">
      <path d="M 67.7 178.292511 
L 277.324671 178.292511 
" clip-path="url(#p567214384c)" style="fill: none; stroke: #b0b0b0; stroke-width: 0.8; stroke-linecap: square"/>
     </g>
     <g id="line2d_14">
      <g>
       <use xlink:href="#m23f072e20f" x="67.7" y="178.292511" style="stroke: #000000; stroke-width: 0.8"/>
      </g>
     </g>
     <g id="text_8">
      <!-- −0.5 -->
      <g transform="translate(30.346484 183.041535) scale(0.125 -0.125)">
       <use xlink:href="#DejaVuSans-2212"/>
       <use xlink:href="#DejaVuSans-30" x="83.789062"/>
       <use xlink:href="#DejaVuSans-2e" x="147.412109"/>
       <use xlink:href="#DejaVuSans-35" x="179.199219"/>
      </g>
     </g>
    </g>
    <g id="ytick_3">
     <g id="line2d_15">
      <path d="M 67.7 126.733917 
L 277.324671 126.733917 
" clip-path="url(#p567214384c)" style="fill: none; stroke: #b0b0b0; stroke-width: 0.8; stroke-linecap: square"/>
     </g>
     <g id="line2d_16">
      <g>
       <use xlink:href="#m23f072e20f" x="67.7" y="126.733917" style="stroke: #000000; stroke-width: 0.8"/>
      </g>
     </g>
     <g id="text_9">
      <!-- 0.0 -->
      <g transform="translate(40.821094 131.48294) scale(0.125 -0.125)">
       <use xlink:href="#DejaVuSans-30"/>
       <use xlink:href="#DejaVuSans-2e" x="63.623047"/>
       <use xlink:href="#DejaVuSans-30" x="95.410156"/>
      </g>
     </g>
    </g>
    <g id="ytick_4">
     <g id="line2d_17">
      <path d="M 67.7 75.175322 
L 277.324671 75.175322 
" clip-path="url(#p567214384c)" style="fill: none; stroke: #b0b0b0; stroke-width: 0.8; stroke-linecap: square"/>
     </g>
     <g id="line2d_18">
      <g>
       <use xlink:href="#m23f072e20f" x="67.7" y="75.175322" style="stroke: #000000; stroke-width: 0.8"/>
      </g>
     </g>
     <g id="text_10">
      <!-- 0.5 -->
      <g transform="translate(40.821094 79.924345) scale(0.125 -0.125)">
       <use xlink:href="#DejaVuSans-30"/>
       <use xlink:href="#DejaVuSans-2e" x="63.623047"/>
       <use xlink:href="#DejaVuSans-35" x="95.410156"/>
      </g>
     </g>
    </g>
    <g id="ytick_5">
     <g id="line2d_19">
      <path d="M 67.7 23.616727 
L 277.324671 23.616727 
" clip-path="url(#p567214384c)" style="fill: none; stroke: #b0b0b0; stroke-width: 0.8; stroke-linecap: square"/>
     </g>
     <g id="line2d_20">
      <g>
       <use xlink:href="#m23f072e20f" x="67.7" y="23.616727" style="stroke: #000000; stroke-width: 0.8"/>
      </g>
     </g>
     <g id="text_11">
      <!-- 1.0 -->
      <g transform="translate(40.821094 28.365751) scale(0.125 -0.125)">
       <use xlink:href="#DejaVuSans-31"/>
       <use xlink:href="#DejaVuSans-2e" x="63.623047"/>
       <use xlink:href="#DejaVuSans-30" x="95.410156"/>
      </g>
     </g>
    </g>
    <g id="text_12">
     <!-- Kernel Real-Part -->
     <g transform="translate(23.746875 174.470523) rotate(-90) scale(0.125 -0.125)">
      <defs>
       <path id="DejaVuSans-4b" d="M 628 4666 
L 1259 4666 
L 1259 2694 
L 3353 4666 
L 4166 4666 
L 1850 2491 
L 4331 0 
L 3500 0 
L 1259 2247 
L 1259 0 
L 628 0 
L 628 4666 
z
" transform="scale(0.015625)"/>
       <path id="DejaVuSans-72" d="M 2631 2963 
Q 2534 3019 2420 3045 
Q 2306 3072 2169 3072 
Q 1681 3072 1420 2755 
Q 1159 2438 1159 1844 
L 1159 0 
L 581 0 
L 581 3500 
L 1159 3500 
L 1159 2956 
Q 1341 3275 1631 3429 
Q 1922 3584 2338 3584 
Q 2397 3584 2469 3576 
Q 2541 3569 2628 3553 
L 2631 2963 
z
" transform="scale(0.015625)"/>
       <path id="DejaVuSans-6e" d="M 3513 2113 
L 3513 0 
L 2938 0 
L 2938 2094 
Q 2938 2591 2744 2837 
Q 2550 3084 2163 3084 
Q 1697 3084 1428 2787 
Q 1159 2491 1159 1978 
L 1159 0 
L 581 0 
L 581 3500 
L 1159 3500 
L 1159 2956 
Q 1366 3272 1645 3428 
Q 1925 3584 2291 3584 
Q 2894 3584 3203 3211 
Q 3513 2838 3513 2113 
z
" transform="scale(0.015625)"/>
       <path id="DejaVuSans-6c" d="M 603 4863 
L 1178 4863 
L 1178 0 
L 603 0 
L 603 4863 
z
" transform="scale(0.015625)"/>
       <path id="DejaVuSans-52" d="M 2841 2188 
Q 3044 2119 3236 1894 
Q 3428 1669 3622 1275 
L 4263 0 
L 3584 0 
L 2988 1197 
Q 2756 1666 2539 1819 
Q 2322 1972 1947 1972 
L 1259 1972 
L 1259 0 
L 628 0 
L 628 4666 
L 2053 4666 
Q 2853 4666 3247 4331 
Q 3641 3997 3641 3322 
Q 3641 2881 3436 2590 
Q 3231 2300 2841 2188 
z
M 1259 4147 
L 1259 2491 
L 2053 2491 
Q 2509 2491 2742 2702 
Q 2975 2913 2975 3322 
Q 2975 3731 2742 3939 
Q 2509 4147 2053 4147 
L 1259 4147 
z
" transform="scale(0.015625)"/>
       <path id="DejaVuSans-61" d="M 2194 1759 
Q 1497 1759 1228 1600 
Q 959 1441 959 1056 
Q 959 750 1161 570 
Q 1363 391 1709 391 
Q 2188 391 2477 730 
Q 2766 1069 2766 1631 
L 2766 1759 
L 2194 1759 
z
M 3341 1997 
L 3341 0 
L 2766 0 
L 2766 531 
Q 2569 213 2275 61 
Q 1981 -91 1556 -91 
Q 1019 -91 701 211 
Q 384 513 384 1019 
Q 384 1609 779 1909 
Q 1175 2209 1959 2209 
L 2766 2209 
L 2766 2266 
Q 2766 2663 2505 2880 
Q 2244 3097 1772 3097 
Q 1472 3097 1187 3025 
Q 903 2953 641 2809 
L 641 3341 
Q 956 3463 1253 3523 
Q 1550 3584 1831 3584 
Q 2591 3584 2966 3190 
Q 3341 2797 3341 1997 
z
" transform="scale(0.015625)"/>
       <path id="DejaVuSans-2d" d="M 313 2009 
L 1997 2009 
L 1997 1497 
L 313 1497 
L 313 2009 
z
" transform="scale(0.015625)"/>
       <path id="DejaVuSans-50" d="M 1259 4147 
L 1259 2394 
L 2053 2394 
Q 2494 2394 2734 2622 
Q 2975 2850 2975 3272 
Q 2975 3691 2734 3919 
Q 2494 4147 2053 4147 
L 1259 4147 
z
M 628 4666 
L 2053 4666 
Q 2838 4666 3239 4311 
Q 3641 3956 3641 3272 
Q 3641 2581 3239 2228 
Q 2838 1875 2053 1875 
L 1259 1875 
L 1259 0 
L 628 0 
L 628 4666 
z
" transform="scale(0.015625)"/>
       <path id="DejaVuSans-74" d="M 1172 4494 
L 1172 3500 
L 2356 3500 
L 2356 3053 
L 1172 3053 
L 1172 1153 
Q 1172 725 1289 603 
Q 1406 481 1766 481 
L 2356 481 
L 2356 0 
L 1766 0 
Q 1100 0 847 248 
Q 594 497 594 1153 
L 594 3053 
L 172 3053 
L 172 3500 
L 594 3500 
L 594 4494 
L 1172 4494 
z
" transform="scale(0.015625)"/>
      </defs>
      <use xlink:href="#DejaVuSans-4b"/>
      <use xlink:href="#DejaVuSans-65" x="60.576172"/>
      <use xlink:href="#DejaVuSans-72" x="122.099609"/>
      <use xlink:href="#DejaVuSans-6e" x="161.462891"/>
      <use xlink:href="#DejaVuSans-65" x="224.841797"/>
      <use xlink:href="#DejaVuSans-6c" x="286.365234"/>
      <use xlink:href="#DejaVuSans-20" x="314.148438"/>
      <use xlink:href="#DejaVuSans-52" x="345.935547"/>
      <use xlink:href="#DejaVuSans-65" x="410.917969"/>
      <use xlink:href="#DejaVuSans-61" x="472.441406"/>
      <use xlink:href="#DejaVuSans-6c" x="533.720703"/>
      <use xlink:href="#DejaVuSans-2d" x="561.503906"/>
      <use xlink:href="#DejaVuSans-50" x="597.587891"/>
      <use xlink:href="#DejaVuSans-61" x="653.390625"/>
      <use xlink:href="#DejaVuSans-72" x="714.669922"/>
      <use xlink:href="#DejaVuSans-74" x="755.783203"/>
     </g>
    </g>
   </g>
   <g id="line2d_21">
    <path d="M 77.228394 110.561447 
L 78.186022 107.138563 
L 79.143649 104.305084 
L 80.101277 102.213998 
L 81.058904 100.996316 
L 82.016532 100.754215 
L 82.974159 101.555007 
L 83.931787 103.426266 
L 84.889415 106.352384 
L 85.847042 110.272783 
L 86.80467 115.081968 
L 88.719925 126.733917 
L 92.550435 151.929571 
L 93.508063 157.115436 
L 94.46569 161.341407 
L 95.423318 164.386046 
L 96.380945 166.065882 
L 97.338573 166.244989 
L 98.2962 164.843012 
L 99.253828 161.841206 
L 100.211455 157.286133 
L 101.169083 151.290769 
L 102.12671 144.03282 
L 104.041966 126.733917 
L 106.914848 98.764608 
L 107.872476 90.393651 
L 108.830103 83.124627 
L 109.787731 77.297531 
L 110.745358 73.206877 
L 111.702986 71.087603 
L 112.660614 71.102946 
L 113.618241 73.334865 
L 114.575869 77.77754 
L 115.533496 84.334316 
L 116.491124 92.818371 
L 117.448751 102.957206 
L 119.364006 126.733917 
L 122.236889 164.261472 
L 123.194517 175.258714 
L 124.152144 184.685021 
L 125.109772 192.112647 
L 126.067399 197.182144 
L 127.025027 199.619279 
L 127.982654 199.24888 
L 128.940282 196.004941 
L 129.897909 189.936438 
L 130.855537 181.208508 
L 131.813165 170.098791 
L 132.770792 156.988984 
L 134.686047 126.733917 
L 137.55893 80.118239 
L 138.516557 66.747555 
L 139.474185 55.439161 
L 140.431813 46.687956 
L 141.38944 40.89582 
L 142.347068 38.353224 
L 143.304695 39.225104 
L 144.262323 43.541673 
L 145.21995 51.19466 
L 146.177578 61.939236 
L 147.135205 75.401638 
L 149.05046 108.423876 
L 152.880971 180.341581 
L 153.838598 195.38612 
L 154.796226 207.935896 
L 155.753853 217.464881 
L 156.711481 223.562429 
L 157.669108 225.951273 
L 158.626736 224.500202 
L 159.584364 219.230829 
L 160.541991 210.318114 
L 161.499619 198.084561 
L 162.457246 182.988272 
L 164.372501 146.607175 
L 167.245384 87.486038 
L 168.203012 69.66036 
L 169.160639 53.994535 
L 170.118267 41.111237 
L 171.075894 31.523427 
L 172.033522 25.613325 
L 172.991149 23.616727 
L 173.948777 25.613325 
L 174.906404 31.523427 
L 175.864032 41.111237 
L 176.821659 53.994535 
L 177.779287 69.66036 
L 179.694542 106.764655 
L 182.567425 165.60533 
L 183.525052 182.988272 
L 184.48268 198.084561 
L 185.440307 210.318114 
L 186.397935 219.230829 
L 187.355563 224.500202 
L 188.31319 225.951273 
L 189.270818 223.562429 
L 190.228445 217.464881 
L 191.186073 207.935896 
L 192.1437 195.38612 
L 193.101328 180.341581 
L 195.016583 145.310596 
L 197.889466 91.09228 
L 198.847093 75.401638 
L 199.804721 61.939236 
L 200.762348 51.19466 
L 201.719976 43.541673 
L 202.677603 39.225104 
L 203.635231 38.353224 
L 204.592858 40.89582 
L 205.550486 46.687956 
L 206.508114 55.439161 
L 207.465741 66.747555 
L 209.380996 94.985111 
L 213.211506 156.988984 
L 214.169134 170.098791 
L 215.126762 181.208508 
L 216.084389 189.936438 
L 217.042017 196.004941 
L 217.999644 199.24888 
L 218.957272 199.619279 
L 219.914899 197.182144 
L 220.872527 192.112647 
L 221.830154 184.685021 
L 222.787782 175.258714 
L 224.703037 152.170147 
L 227.57592 114.400901 
L 229.491175 92.818371 
L 230.448802 84.334316 
L 231.40643 77.77754 
L 232.364057 73.334865 
L 233.321685 71.102946 
L 234.279313 71.087603 
L 235.23694 73.206877 
L 236.194568 77.297531 
L 237.152195 83.124627 
L 238.109823 90.393651 
L 240.025078 107.86742 
L 242.89796 135.750231 
L 243.855588 144.03282 
L 244.813216 151.290769 
L 245.770843 157.286133 
L 246.728471 161.841206 
L 247.686098 164.843012 
L 248.643726 166.244989 
L 249.601353 166.065882 
L 250.558981 164.386046 
L 251.516608 161.341407 
L 252.474236 157.115436 
L 253.431864 151.929571 
L 255.347119 139.689082 
L 258.220001 120.631499 
L 259.177629 115.081968 
L 260.135256 110.272783 
L 261.092884 106.352384 
L 262.050512 103.426266 
L 263.008139 101.555007 
L 263.965767 100.754215 
L 264.923394 100.996316 
L 265.881022 102.213998 
L 266.838649 104.305084 
L 267.796277 107.138563 
L 267.796277 107.138563 
" clip-path="url(#p567214384c)" style="fill: none; stroke: #1f77b4; stroke-width: 2.5; stroke-linecap: square"/>
   </g>
   <g id="line2d_22">
    <path d="M 77.228394 126.733917 
L 81.058904 126.333715 
L 82.974159 126.378139 
L 84.889415 126.733917 
L 88.719925 127.705271 
L 89.677552 127.731102 
L 90.63518 127.580959 
L 91.592807 127.242071 
L 93.508063 126.111761 
L 95.423318 124.903776 
L 96.380945 124.55124 
L 97.338573 124.51469 
L 98.2962 124.866914 
L 99.253828 125.624614 
L 100.211455 126.733917 
L 103.084338 130.578022 
L 104.041966 131.274528 
L 104.999593 131.30628 
L 105.957221 130.543682 
L 106.914848 128.975823 
L 107.872476 126.733917 
L 109.787731 121.44682 
L 110.745358 119.258777 
L 111.702986 117.989066 
L 112.660614 118.012381 
L 113.618241 119.5367 
L 114.575869 122.539245 
L 115.533496 126.733917 
L 117.448751 136.344289 
L 118.406379 140.191169 
L 119.364006 142.325982 
L 120.321634 142.135251 
L 121.279261 139.321551 
L 122.236889 133.999855 
L 123.194517 126.733917 
L 125.109772 110.561447 
L 126.067399 104.305084 
L 127.025027 100.996316 
L 127.982654 101.555007 
L 128.940282 106.352384 
L 129.897909 115.081968 
L 131.813165 139.689082 
L 132.770792 151.929571 
L 133.72842 161.341407 
L 134.686047 166.065882 
L 135.643675 164.843012 
L 136.601302 157.286133 
L 137.55893 144.03282 
L 140.431813 90.393651 
L 141.38944 77.297531 
L 142.347068 71.087603 
L 143.304695 73.334865 
L 144.262323 84.334316 
L 145.21995 102.957206 
L 148.092833 175.258714 
L 149.05046 192.112647 
L 150.008088 199.619279 
L 150.965716 196.004941 
L 151.923343 181.208508 
L 152.880971 156.988984 
L 155.753853 66.747555 
L 156.711481 46.687956 
L 157.669108 38.353224 
L 158.626736 43.541673 
L 159.584364 61.939236 
L 160.541991 91.09228 
L 163.414874 195.38612 
L 164.372501 217.464881 
L 165.330129 225.951273 
L 166.287756 219.230829 
L 167.245384 198.084561 
L 168.203012 165.60533 
L 170.118267 87.486038 
L 171.075894 53.994535 
L 172.033522 31.523427 
L 172.991149 23.616727 
L 173.948777 31.523427 
L 174.906404 53.994535 
L 175.864032 87.486038 
L 177.779287 165.60533 
L 178.736915 198.084561 
L 179.694542 219.230829 
L 180.65217 225.951273 
L 181.609797 217.464881 
L 182.567425 195.38612 
L 183.525052 163.42117 
L 185.440307 91.09228 
L 186.397935 61.939236 
L 187.355563 43.541673 
L 188.31319 38.353224 
L 189.270818 46.687956 
L 190.228445 66.747555 
L 191.186073 94.985111 
L 193.101328 156.988984 
L 194.058955 181.208508 
L 195.016583 196.004941 
L 195.97421 199.619279 
L 196.931838 192.112647 
L 197.889466 175.258714 
L 199.804721 126.733917 
L 200.762348 102.957206 
L 201.719976 84.334316 
L 202.677603 73.334865 
L 203.635231 71.087603 
L 204.592858 77.297531 
L 205.550486 90.393651 
L 208.423369 144.03282 
L 209.380996 157.286133 
L 210.338624 164.843012 
L 211.296251 166.065882 
L 212.253879 161.341407 
L 213.211506 151.929571 
L 216.084389 115.081968 
L 217.042017 106.352384 
L 217.999644 101.555007 
L 218.957272 100.996316 
L 219.914899 104.305084 
L 220.872527 110.561447 
L 223.745409 133.999855 
L 224.703037 139.321551 
L 225.660665 142.135251 
L 226.618292 142.325982 
L 227.57592 140.191169 
L 228.533547 136.344289 
L 231.40643 122.539245 
L 232.364057 119.5367 
L 233.321685 118.012381 
L 234.279313 117.989066 
L 235.23694 119.258777 
L 236.194568 121.44682 
L 238.109823 126.733917 
L 239.06745 128.975823 
L 240.025078 130.543682 
L 240.982705 131.30628 
L 241.940333 131.274528 
L 242.89796 130.578022 
L 243.855588 129.426737 
L 245.770843 126.733917 
L 246.728471 125.624614 
L 247.686098 124.866914 
L 248.643726 124.51469 
L 249.601353 124.55124 
L 250.558981 124.903776 
L 252.474236 126.111761 
L 254.389491 127.242071 
L 255.347119 127.580959 
L 256.304746 127.731102 
L 257.262374 127.705271 
L 259.177629 127.288194 
L 262.050512 126.518413 
L 263.965767 126.319093 
L 265.881022 126.40476 
L 267.796277 126.626252 
L 267.796277 126.626252 
" clip-path="url(#p567214384c)" style="fill: none; stroke: #ff7f0e; stroke-width: 2.5; stroke-linecap: square"/>
   </g>
   <g id="line2d_23">
    <path d="M 77.228394 126.733917 
L 122.236889 126.817727 
L 124.152144 126.872262 
L 126.067399 126.509912 
L 127.025027 126.333715 
L 127.982654 126.378139 
L 128.940282 126.733917 
L 129.897909 127.288194 
L 130.855537 127.705271 
L 131.813165 127.580959 
L 132.770792 126.733917 
L 133.72842 125.464188 
L 134.686047 124.55124 
L 135.643675 124.866914 
L 136.601302 126.733917 
L 137.55893 129.426737 
L 138.516557 131.274528 
L 139.474185 130.543682 
L 140.431813 126.733917 
L 141.38944 121.44682 
L 142.347068 117.989066 
L 143.304695 119.5367 
L 144.262323 126.733917 
L 145.21995 136.344289 
L 146.177578 142.325982 
L 147.135205 139.321551 
L 148.092833 126.733917 
L 149.05046 110.561447 
L 150.008088 100.996316 
L 150.965716 106.352384 
L 151.923343 126.733917 
L 152.880971 151.929571 
L 153.838598 166.065882 
L 154.796226 157.286133 
L 155.753853 126.733917 
L 156.711481 90.393651 
L 157.669108 71.087603 
L 158.626736 84.334316 
L 159.584364 126.733917 
L 160.541991 175.258714 
L 161.499619 199.619279 
L 162.457246 181.208508 
L 164.372501 66.747555 
L 165.330129 38.353224 
L 166.287756 61.939236 
L 168.203012 195.38612 
L 169.160639 225.951273 
L 170.118267 198.084561 
L 172.033522 53.994535 
L 172.991149 23.616727 
L 173.948777 53.994535 
L 175.864032 198.084561 
L 176.821659 225.951273 
L 177.779287 195.38612 
L 179.694542 61.939236 
L 180.65217 38.353224 
L 181.609797 66.747555 
L 183.525052 181.208508 
L 184.48268 199.619279 
L 185.440307 175.258714 
L 186.397935 126.733917 
L 187.355563 84.334316 
L 188.31319 71.087603 
L 189.270818 90.393651 
L 190.228445 126.733917 
L 191.186073 157.286133 
L 192.1437 166.065882 
L 193.101328 151.929571 
L 194.058955 126.733917 
L 195.016583 106.352384 
L 195.97421 100.996316 
L 196.931838 110.561447 
L 197.889466 126.733917 
L 198.847093 139.321551 
L 199.804721 142.325982 
L 200.762348 136.344289 
L 201.719976 126.733917 
L 202.677603 119.5367 
L 203.635231 117.989066 
L 204.592858 121.44682 
L 205.550486 126.733917 
L 206.508114 130.543682 
L 207.465741 131.274528 
L 208.423369 129.426737 
L 209.380996 126.733917 
L 210.338624 124.866914 
L 211.296251 124.55124 
L 212.253879 125.464188 
L 213.211506 126.733917 
L 214.169134 127.580959 
L 215.126762 127.705271 
L 216.084389 127.288194 
L 217.042017 126.733917 
L 217.999644 126.378139 
L 218.957272 126.333715 
L 221.830154 126.872262 
L 223.745409 126.817727 
L 225.660665 126.684113 
L 239.06745 126.734676 
L 267.796277 126.733917 
L 267.796277 126.733917 
" clip-path="url(#p567214384c)" style="fill: none; stroke: #2ca02c; stroke-width: 2.5; stroke-linecap: square"/>
   </g>
   <g id="line2d_24">
    <path d="M 77.228394 126.733917 
L 147.135205 126.733917 
L 148.092833 126.886565 
L 149.05046 126.733917 
L 150.008088 126.333715 
L 150.965716 126.733917 
L 151.923343 127.705271 
L 152.880971 126.733917 
L 153.838598 124.55124 
L 154.796226 126.733917 
L 155.753853 131.274528 
L 156.711481 126.733917 
L 157.669108 117.989066 
L 158.626736 126.733917 
L 159.584364 142.325982 
L 160.541991 126.733917 
L 161.499619 100.996316 
L 162.457246 126.733917 
L 163.414874 166.065882 
L 164.372501 126.733917 
L 165.330129 71.087603 
L 166.287756 126.733917 
L 167.245384 199.619279 
L 168.203012 126.733917 
L 169.160639 38.353224 
L 170.118267 126.733917 
L 171.075894 225.951273 
L 172.991149 23.616727 
L 174.906404 225.951273 
L 176.821659 38.353224 
L 177.779287 126.733917 
L 178.736915 199.619279 
L 179.694542 126.733917 
L 180.65217 71.087603 
L 181.609797 126.733917 
L 182.567425 166.065882 
L 183.525052 126.733917 
L 184.48268 100.996316 
L 185.440307 126.733917 
L 186.397935 142.325982 
L 187.355563 126.733917 
L 188.31319 117.989066 
L 189.270818 126.733917 
L 190.228445 131.274528 
L 191.186073 126.733917 
L 192.1437 124.55124 
L 193.101328 126.733917 
L 194.058955 127.705271 
L 195.016583 126.733917 
L 195.97421 126.333715 
L 196.931838 126.733917 
L 197.889466 126.886565 
L 199.804721 126.680013 
L 202.677603 126.733917 
L 221.830154 126.733917 
L 267.796277 126.733917 
L 267.796277 126.733917 
" clip-path="url(#p567214384c)" style="fill: none; stroke: #d62728; stroke-width: 2.5; stroke-linecap: square"/>
   </g>
   <g id="patch_3">
    <path d="M 67.7 236.068 
L 67.7 13.5 
" style="fill: none; stroke: #000000; stroke-width: 0.8; stroke-linejoin: miter; stroke-linecap: square"/>
   </g>
   <g id="patch_4">
    <path d="M 277.324671 236.068 
L 277.324671 13.5 
" style="fill: none; stroke: #000000; stroke-width: 0.8; stroke-linejoin: miter; stroke-linecap: square"/>
   </g>
   <g id="patch_5">
    <path d="M 67.7 236.068 
L 277.324671 236.068 
" style="fill: none; stroke: #000000; stroke-width: 0.8; stroke-linejoin: miter; stroke-linecap: square"/>
   </g>
   <g id="patch_6">
    <path d="M 67.7 13.5 
L 277.324671 13.5 
" style="fill: none; stroke: #000000; stroke-width: 0.8; stroke-linejoin: miter; stroke-linecap: square"/>
   </g>
  </g>
  <g id="axes_2">
   <g id="patch_7">
    <path d="M 354.287665 236.068 
L 850.5 236.068 
L 850.5 13.5 
L 354.287665 13.5 
z
" style="fill: #ffffff"/>
   </g>
   <g id="matplotlib.axis_3">
    <g id="xtick_6">
     <g id="line2d_25">
      <path d="M 484.23368 236.068 
L 484.23368 13.5 
" clip-path="url(#p3ff28b0adf)" style="fill: none; stroke: #b0b0b0; stroke-width: 0.8; stroke-linecap: square"/>
     </g>
     <g id="line2d_26">
      <g>
       <use xlink:href="#m35602c3ffe" x="484.23368" y="236.068" style="stroke: #000000; stroke-width: 0.8"/>
      </g>
     </g>
     <g id="text_13">
      <!-- $\mathdefault{10^{0}}$ -->
      <g transform="translate(473.23368 252.566047) scale(0.125 -0.125)">
       <use xlink:href="#DejaVuSans-31" transform="translate(0 0.765625)"/>
       <use xlink:href="#DejaVuSans-30" transform="translate(63.623047 0.765625)"/>
       <use xlink:href="#DejaVuSans-30" transform="translate(128.203125 39.046875) scale(0.7)"/>
      </g>
     </g>
    </g>
    <g id="xtick_7">
     <g id="line2d_27">
      <path d="M 667.444619 236.068 
L 667.444619 13.5 
" clip-path="url(#p3ff28b0adf)" style="fill: none; stroke: #b0b0b0; stroke-width: 0.8; stroke-linecap: square"/>
     </g>
     <g id="line2d_28">
      <g>
       <use xlink:href="#m35602c3ffe" x="667.444619" y="236.068" style="stroke: #000000; stroke-width: 0.8"/>
      </g>
     </g>
     <g id="text_14">
      <!-- $\mathdefault{10^{1}}$ -->
      <g transform="translate(656.444619 252.566047) scale(0.125 -0.125)">
       <use xlink:href="#DejaVuSans-31" transform="translate(0 0.684375)"/>
       <use xlink:href="#DejaVuSans-30" transform="translate(63.623047 0.684375)"/>
       <use xlink:href="#DejaVuSans-31" transform="translate(128.203125 38.965625) scale(0.7)"/>
      </g>
     </g>
    </g>
    <g id="xtick_8">
     <g id="line2d_29">
      <defs>
       <path id="m02aecb5949" d="M 0 0 
L 0 2 
" style="stroke: #000000; stroke-width: 0.6"/>
      </defs>
      <g>
       <use xlink:href="#m02aecb5949" x="356.174729" y="236.068" style="stroke: #000000; stroke-width: 0.6"/>
      </g>
     </g>
    </g>
    <g id="xtick_9">
     <g id="line2d_30">
      <g>
       <use xlink:href="#m02aecb5949" x="388.436574" y="236.068" style="stroke: #000000; stroke-width: 0.6"/>
      </g>
     </g>
    </g>
    <g id="xtick_10">
     <g id="line2d_31">
      <g>
       <use xlink:href="#m02aecb5949" x="411.326717" y="236.068" style="stroke: #000000; stroke-width: 0.6"/>
      </g>
     </g>
    </g>
    <g id="xtick_11">
     <g id="line2d_32">
      <g>
       <use xlink:href="#m02aecb5949" x="429.081692" y="236.068" style="stroke: #000000; stroke-width: 0.6"/>
      </g>
     </g>
    </g>
    <g id="xtick_12">
     <g id="line2d_33">
      <g>
       <use xlink:href="#m02aecb5949" x="443.588562" y="236.068" style="stroke: #000000; stroke-width: 0.6"/>
      </g>
     </g>
    </g>
    <g id="xtick_13">
     <g id="line2d_34">
      <g>
       <use xlink:href="#m02aecb5949" x="455.853946" y="236.068" style="stroke: #000000; stroke-width: 0.6"/>
      </g>
     </g>
    </g>
    <g id="xtick_14">
     <g id="line2d_35">
      <g>
       <use xlink:href="#m02aecb5949" x="466.478705" y="236.068" style="stroke: #000000; stroke-width: 0.6"/>
      </g>
     </g>
    </g>
    <g id="xtick_15">
     <g id="line2d_36">
      <g>
       <use xlink:href="#m02aecb5949" x="475.850407" y="236.068" style="stroke: #000000; stroke-width: 0.6"/>
      </g>
     </g>
    </g>
    <g id="xtick_16">
     <g id="line2d_37">
      <g>
       <use xlink:href="#m02aecb5949" x="539.385668" y="236.068" style="stroke: #000000; stroke-width: 0.6"/>
      </g>
     </g>
    </g>
    <g id="xtick_17">
     <g id="line2d_38">
      <g>
       <use xlink:href="#m02aecb5949" x="571.647513" y="236.068" style="stroke: #000000; stroke-width: 0.6"/>
      </g>
     </g>
    </g>
    <g id="xtick_18">
     <g id="line2d_39">
      <g>
       <use xlink:href="#m02aecb5949" x="594.537656" y="236.068" style="stroke: #000000; stroke-width: 0.6"/>
      </g>
     </g>
    </g>
    <g id="xtick_19">
     <g id="line2d_40">
      <g>
       <use xlink:href="#m02aecb5949" x="612.29263" y="236.068" style="stroke: #000000; stroke-width: 0.6"/>
      </g>
     </g>
    </g>
    <g id="xtick_20">
     <g id="line2d_41">
      <g>
       <use xlink:href="#m02aecb5949" x="626.799501" y="236.068" style="stroke: #000000; stroke-width: 0.6"/>
      </g>
     </g>
    </g>
    <g id="xtick_21">
     <g id="line2d_42">
      <g>
       <use xlink:href="#m02aecb5949" x="639.064885" y="236.068" style="stroke: #000000; stroke-width: 0.6"/>
      </g>
     </g>
    </g>
    <g id="xtick_22">
     <g id="line2d_43">
      <g>
       <use xlink:href="#m02aecb5949" x="649.689644" y="236.068" style="stroke: #000000; stroke-width: 0.6"/>
      </g>
     </g>
    </g>
    <g id="xtick_23">
     <g id="line2d_44">
      <g>
       <use xlink:href="#m02aecb5949" x="659.061346" y="236.068" style="stroke: #000000; stroke-width: 0.6"/>
      </g>
     </g>
    </g>
    <g id="xtick_24">
     <g id="line2d_45">
      <g>
       <use xlink:href="#m02aecb5949" x="722.596607" y="236.068" style="stroke: #000000; stroke-width: 0.6"/>
      </g>
     </g>
    </g>
    <g id="xtick_25">
     <g id="line2d_46">
      <g>
       <use xlink:href="#m02aecb5949" x="754.858451" y="236.068" style="stroke: #000000; stroke-width: 0.6"/>
      </g>
     </g>
    </g>
    <g id="xtick_26">
     <g id="line2d_47">
      <g>
       <use xlink:href="#m02aecb5949" x="777.748595" y="236.068" style="stroke: #000000; stroke-width: 0.6"/>
      </g>
     </g>
    </g>
    <g id="xtick_27">
     <g id="line2d_48">
      <g>
       <use xlink:href="#m02aecb5949" x="795.503569" y="236.068" style="stroke: #000000; stroke-width: 0.6"/>
      </g>
     </g>
    </g>
    <g id="xtick_28">
     <g id="line2d_49">
      <g>
       <use xlink:href="#m02aecb5949" x="810.01044" y="236.068" style="stroke: #000000; stroke-width: 0.6"/>
      </g>
     </g>
    </g>
    <g id="xtick_29">
     <g id="line2d_50">
      <g>
       <use xlink:href="#m02aecb5949" x="822.275824" y="236.068" style="stroke: #000000; stroke-width: 0.6"/>
      </g>
     </g>
    </g>
    <g id="xtick_30">
     <g id="line2d_51">
      <g>
       <use xlink:href="#m02aecb5949" x="832.900583" y="236.068" style="stroke: #000000; stroke-width: 0.6"/>
      </g>
     </g>
    </g>
    <g id="xtick_31">
     <g id="line2d_52">
      <g>
       <use xlink:href="#m02aecb5949" x="842.272284" y="236.068" style="stroke: #000000; stroke-width: 0.6"/>
      </g>
     </g>
    </g>
    <g id="text_15">
     <!-- Frequency (Hz) -->
     <g transform="translate(555.262973 268.663703) scale(0.125 -0.125)">
      <defs>
       <path id="DejaVuSans-46" d="M 628 4666 
L 3309 4666 
L 3309 4134 
L 1259 4134 
L 1259 2759 
L 3109 2759 
L 3109 2228 
L 1259 2228 
L 1259 0 
L 628 0 
L 628 4666 
z
" transform="scale(0.015625)"/>
       <path id="DejaVuSans-71" d="M 947 1747 
Q 947 1113 1208 752 
Q 1469 391 1925 391 
Q 2381 391 2643 752 
Q 2906 1113 2906 1747 
Q 2906 2381 2643 2742 
Q 2381 3103 1925 3103 
Q 1469 3103 1208 2742 
Q 947 2381 947 1747 
z
M 2906 525 
Q 2725 213 2448 61 
Q 2172 -91 1784 -91 
Q 1150 -91 751 415 
Q 353 922 353 1747 
Q 353 2572 751 3078 
Q 1150 3584 1784 3584 
Q 2172 3584 2448 3432 
Q 2725 3281 2906 2969 
L 2906 3500 
L 3481 3500 
L 3481 -1331 
L 2906 -1331 
L 2906 525 
z
" transform="scale(0.015625)"/>
       <path id="DejaVuSans-75" d="M 544 1381 
L 544 3500 
L 1119 3500 
L 1119 1403 
Q 1119 906 1312 657 
Q 1506 409 1894 409 
Q 2359 409 2629 706 
Q 2900 1003 2900 1516 
L 2900 3500 
L 3475 3500 
L 3475 0 
L 2900 0 
L 2900 538 
Q 2691 219 2414 64 
Q 2138 -91 1772 -91 
Q 1169 -91 856 284 
Q 544 659 544 1381 
z
M 1991 3584 
L 1991 3584 
z
" transform="scale(0.015625)"/>
       <path id="DejaVuSans-63" d="M 3122 3366 
L 3122 2828 
Q 2878 2963 2633 3030 
Q 2388 3097 2138 3097 
Q 1578 3097 1268 2742 
Q 959 2388 959 1747 
Q 959 1106 1268 751 
Q 1578 397 2138 397 
Q 2388 397 2633 464 
Q 2878 531 3122 666 
L 3122 134 
Q 2881 22 2623 -34 
Q 2366 -91 2075 -91 
Q 1284 -91 818 406 
Q 353 903 353 1747 
Q 353 2603 823 3093 
Q 1294 3584 2113 3584 
Q 2378 3584 2631 3529 
Q 2884 3475 3122 3366 
z
" transform="scale(0.015625)"/>
       <path id="DejaVuSans-79" d="M 2059 -325 
Q 1816 -950 1584 -1140 
Q 1353 -1331 966 -1331 
L 506 -1331 
L 506 -850 
L 844 -850 
Q 1081 -850 1212 -737 
Q 1344 -625 1503 -206 
L 1606 56 
L 191 3500 
L 800 3500 
L 1894 763 
L 2988 3500 
L 3597 3500 
L 2059 -325 
z
" transform="scale(0.015625)"/>
       <path id="DejaVuSans-48" d="M 628 4666 
L 1259 4666 
L 1259 2753 
L 3553 2753 
L 3553 4666 
L 4184 4666 
L 4184 0 
L 3553 0 
L 3553 2222 
L 1259 2222 
L 1259 0 
L 628 0 
L 628 4666 
z
" transform="scale(0.015625)"/>
       <path id="DejaVuSans-7a" d="M 353 3500 
L 3084 3500 
L 3084 2975 
L 922 459 
L 3084 459 
L 3084 0 
L 275 0 
L 275 525 
L 2438 3041 
L 353 3041 
L 353 3500 
z
" transform="scale(0.015625)"/>
      </defs>
      <use xlink:href="#DejaVuSans-46"/>
      <use xlink:href="#DejaVuSans-72" x="50.269531"/>
      <use xlink:href="#DejaVuSans-65" x="89.132812"/>
      <use xlink:href="#DejaVuSans-71" x="150.65625"/>
      <use xlink:href="#DejaVuSans-75" x="214.132812"/>
      <use xlink:href="#DejaVuSans-65" x="277.511719"/>
      <use xlink:href="#DejaVuSans-6e" x="339.035156"/>
      <use xlink:href="#DejaVuSans-63" x="402.414062"/>
      <use xlink:href="#DejaVuSans-79" x="457.394531"/>
      <use xlink:href="#DejaVuSans-20" x="516.574219"/>
      <use xlink:href="#DejaVuSans-28" x="548.361328"/>
      <use xlink:href="#DejaVuSans-48" x="587.375"/>
      <use xlink:href="#DejaVuSans-7a" x="662.570312"/>
      <use xlink:href="#DejaVuSans-29" x="715.060547"/>
     </g>
    </g>
   </g>
   <g id="matplotlib.axis_4">
    <g id="ytick_6">
     <g id="line2d_53">
      <path d="M 354.287665 236.068 
L 850.5 236.068 
" clip-path="url(#p3ff28b0adf)" style="fill: none; stroke: #b0b0b0; stroke-width: 0.8; stroke-linecap: square"/>
     </g>
     <g id="line2d_54">
      <g>
       <use xlink:href="#m23f072e20f" x="354.287665" y="236.068" style="stroke: #000000; stroke-width: 0.8"/>
      </g>
     </g>
     <g id="text_16">
      <!-- −150 -->
      <g transform="translate(312.95368 240.817023) scale(0.125 -0.125)">
       <use xlink:href="#DejaVuSans-2212"/>
       <use xlink:href="#DejaVuSans-31" x="83.789062"/>
       <use xlink:href="#DejaVuSans-35" x="147.412109"/>
       <use xlink:href="#DejaVuSans-30" x="211.035156"/>
      </g>
     </g>
    </g>
    <g id="ytick_7">
     <g id="line2d_55">
      <path d="M 354.287665 205.155778 
L 850.5 205.155778 
" clip-path="url(#p3ff28b0adf)" style="fill: none; stroke: #b0b0b0; stroke-width: 0.8; stroke-linecap: square"/>
     </g>
     <g id="line2d_56">
      <g>
       <use xlink:href="#m23f072e20f" x="354.287665" y="205.155778" style="stroke: #000000; stroke-width: 0.8"/>
      </g>
     </g>
     <g id="text_17">
      <!-- −125 -->
      <g transform="translate(312.95368 209.904801) scale(0.125 -0.125)">
       <use xlink:href="#DejaVuSans-2212"/>
       <use xlink:href="#DejaVuSans-31" x="83.789062"/>
       <use xlink:href="#DejaVuSans-32" x="147.412109"/>
       <use xlink:href="#DejaVuSans-35" x="211.035156"/>
      </g>
     </g>
    </g>
    <g id="ytick_8">
     <g id="line2d_57">
      <path d="M 354.287665 174.243556 
L 850.5 174.243556 
" clip-path="url(#p3ff28b0adf)" style="fill: none; stroke: #b0b0b0; stroke-width: 0.8; stroke-linecap: square"/>
     </g>
     <g id="line2d_58">
      <g>
       <use xlink:href="#m23f072e20f" x="354.287665" y="174.243556" style="stroke: #000000; stroke-width: 0.8"/>
      </g>
     </g>
     <g id="text_18">
      <!-- −100 -->
      <g transform="translate(312.95368 178.992579) scale(0.125 -0.125)">
       <use xlink:href="#DejaVuSans-2212"/>
       <use xlink:href="#DejaVuSans-31" x="83.789062"/>
       <use xlink:href="#DejaVuSans-30" x="147.412109"/>
       <use xlink:href="#DejaVuSans-30" x="211.035156"/>
      </g>
     </g>
    </g>
    <g id="ytick_9">
     <g id="line2d_59">
      <path d="M 354.287665 143.331333 
L 850.5 143.331333 
" clip-path="url(#p3ff28b0adf)" style="fill: none; stroke: #b0b0b0; stroke-width: 0.8; stroke-linecap: square"/>
     </g>
     <g id="line2d_60">
      <g>
       <use xlink:href="#m23f072e20f" x="354.287665" y="143.331333" style="stroke: #000000; stroke-width: 0.8"/>
      </g>
     </g>
     <g id="text_19">
      <!-- −75 -->
      <g transform="translate(320.906805 148.080357) scale(0.125 -0.125)">
       <defs>
        <path id="DejaVuSans-37" d="M 525 4666 
L 3525 4666 
L 3525 4397 
L 1831 0 
L 1172 0 
L 2766 4134 
L 525 4134 
L 525 4666 
z
" transform="scale(0.015625)"/>
       </defs>
       <use xlink:href="#DejaVuSans-2212"/>
       <use xlink:href="#DejaVuSans-37" x="83.789062"/>
       <use xlink:href="#DejaVuSans-35" x="147.412109"/>
      </g>
     </g>
    </g>
    <g id="ytick_10">
     <g id="line2d_61">
      <path d="M 354.287665 112.419111 
L 850.5 112.419111 
" clip-path="url(#p3ff28b0adf)" style="fill: none; stroke: #b0b0b0; stroke-width: 0.8; stroke-linecap: square"/>
     </g>
     <g id="line2d_62">
      <g>
       <use xlink:href="#m23f072e20f" x="354.287665" y="112.419111" style="stroke: #000000; stroke-width: 0.8"/>
      </g>
     </g>
     <g id="text_20">
      <!-- −50 -->
      <g transform="translate(320.906805 117.168135) scale(0.125 -0.125)">
       <use xlink:href="#DejaVuSans-2212"/>
       <use xlink:href="#DejaVuSans-35" x="83.789062"/>
       <use xlink:href="#DejaVuSans-30" x="147.412109"/>
      </g>
     </g>
    </g>
    <g id="ytick_11">
     <g id="line2d_63">
      <path d="M 354.287665 81.506889 
L 850.5 81.506889 
" clip-path="url(#p3ff28b0adf)" style="fill: none; stroke: #b0b0b0; stroke-width: 0.8; stroke-linecap: square"/>
     </g>
     <g id="line2d_64">
      <g>
       <use xlink:href="#m23f072e20f" x="354.287665" y="81.506889" style="stroke: #000000; stroke-width: 0.8"/>
      </g>
     </g>
     <g id="text_21">
      <!-- −25 -->
      <g transform="translate(320.906805 86.255912) scale(0.125 -0.125)">
       <use xlink:href="#DejaVuSans-2212"/>
       <use xlink:href="#DejaVuSans-32" x="83.789062"/>
       <use xlink:href="#DejaVuSans-35" x="147.412109"/>
      </g>
     </g>
    </g>
    <g id="ytick_12">
     <g id="line2d_65">
      <path d="M 354.287665 50.594667 
L 850.5 50.594667 
" clip-path="url(#p3ff28b0adf)" style="fill: none; stroke: #b0b0b0; stroke-width: 0.8; stroke-linecap: square"/>
     </g>
     <g id="line2d_66">
      <g>
       <use xlink:href="#m23f072e20f" x="354.287665" y="50.594667" style="stroke: #000000; stroke-width: 0.8"/>
      </g>
     </g>
     <g id="text_22">
      <!-- 0 -->
      <g transform="translate(339.33454 55.34369) scale(0.125 -0.125)">
       <use xlink:href="#DejaVuSans-30"/>
      </g>
     </g>
    </g>
    <g id="ytick_13">
     <g id="line2d_67">
      <path d="M 354.287665 19.682444 
L 850.5 19.682444 
" clip-path="url(#p3ff28b0adf)" style="fill: none; stroke: #b0b0b0; stroke-width: 0.8; stroke-linecap: square"/>
     </g>
     <g id="line2d_68">
      <g>
       <use xlink:href="#m23f072e20f" x="354.287665" y="19.682444" style="stroke: #000000; stroke-width: 0.8"/>
      </g>
     </g>
     <g id="text_23">
      <!-- 25 -->
      <g transform="translate(331.381415 24.431468) scale(0.125 -0.125)">
       <use xlink:href="#DejaVuSans-32"/>
       <use xlink:href="#DejaVuSans-35" x="63.623047"/>
      </g>
     </g>
    </g>
    <g id="text_24">
     <!-- Frequency Response (dB) -->
     <g transform="translate(306.354071 204.194156) rotate(-90) scale(0.125 -0.125)">
      <defs>
       <path id="DejaVuSans-70" d="M 1159 525 
L 1159 -1331 
L 581 -1331 
L 581 3500 
L 1159 3500 
L 1159 2969 
Q 1341 3281 1617 3432 
Q 1894 3584 2278 3584 
Q 2916 3584 3314 3078 
Q 3713 2572 3713 1747 
Q 3713 922 3314 415 
Q 2916 -91 2278 -91 
Q 1894 -91 1617 61 
Q 1341 213 1159 525 
z
M 3116 1747 
Q 3116 2381 2855 2742 
Q 2594 3103 2138 3103 
Q 1681 3103 1420 2742 
Q 1159 2381 1159 1747 
Q 1159 1113 1420 752 
Q 1681 391 2138 391 
Q 2594 391 2855 752 
Q 3116 1113 3116 1747 
z
" transform="scale(0.015625)"/>
       <path id="DejaVuSans-6f" d="M 1959 3097 
Q 1497 3097 1228 2736 
Q 959 2375 959 1747 
Q 959 1119 1226 758 
Q 1494 397 1959 397 
Q 2419 397 2687 759 
Q 2956 1122 2956 1747 
Q 2956 2369 2687 2733 
Q 2419 3097 1959 3097 
z
M 1959 3584 
Q 2709 3584 3137 3096 
Q 3566 2609 3566 1747 
Q 3566 888 3137 398 
Q 2709 -91 1959 -91 
Q 1206 -91 779 398 
Q 353 888 353 1747 
Q 353 2609 779 3096 
Q 1206 3584 1959 3584 
z
" transform="scale(0.015625)"/>
       <path id="DejaVuSans-64" d="M 2906 2969 
L 2906 4863 
L 3481 4863 
L 3481 0 
L 2906 0 
L 2906 525 
Q 2725 213 2448 61 
Q 2172 -91 1784 -91 
Q 1150 -91 751 415 
Q 353 922 353 1747 
Q 353 2572 751 3078 
Q 1150 3584 1784 3584 
Q 2172 3584 2448 3432 
Q 2725 3281 2906 2969 
z
M 947 1747 
Q 947 1113 1208 752 
Q 1469 391 1925 391 
Q 2381 391 2643 752 
Q 2906 1113 2906 1747 
Q 2906 2381 2643 2742 
Q 2381 3103 1925 3103 
Q 1469 3103 1208 2742 
Q 947 2381 947 1747 
z
" transform="scale(0.015625)"/>
       <path id="DejaVuSans-42" d="M 1259 2228 
L 1259 519 
L 2272 519 
Q 2781 519 3026 730 
Q 3272 941 3272 1375 
Q 3272 1813 3026 2020 
Q 2781 2228 2272 2228 
L 1259 2228 
z
M 1259 4147 
L 1259 2741 
L 2194 2741 
Q 2656 2741 2882 2914 
Q 3109 3088 3109 3444 
Q 3109 3797 2882 3972 
Q 2656 4147 2194 4147 
L 1259 4147 
z
M 628 4666 
L 2241 4666 
Q 2963 4666 3353 4366 
Q 3744 4066 3744 3513 
Q 3744 3084 3544 2831 
Q 3344 2578 2956 2516 
Q 3422 2416 3680 2098 
Q 3938 1781 3938 1306 
Q 3938 681 3513 340 
Q 3088 0 2303 0 
L 628 0 
L 628 4666 
z
" transform="scale(0.015625)"/>
      </defs>
      <use xlink:href="#DejaVuSans-46"/>
      <use xlink:href="#DejaVuSans-72" x="50.269531"/>
      <use xlink:href="#DejaVuSans-65" x="89.132812"/>
      <use xlink:href="#DejaVuSans-71" x="150.65625"/>
      <use xlink:href="#DejaVuSans-75" x="214.132812"/>
      <use xlink:href="#DejaVuSans-65" x="277.511719"/>
      <use xlink:href="#DejaVuSans-6e" x="339.035156"/>
      <use xlink:href="#DejaVuSans-63" x="402.414062"/>
      <use xlink:href="#DejaVuSans-79" x="457.394531"/>
      <use xlink:href="#DejaVuSans-20" x="516.574219"/>
      <use xlink:href="#DejaVuSans-52" x="548.361328"/>
      <use xlink:href="#DejaVuSans-65" x="613.34375"/>
      <use xlink:href="#DejaVuSans-73" x="674.867188"/>
      <use xlink:href="#DejaVuSans-70" x="726.966797"/>
      <use xlink:href="#DejaVuSans-6f" x="790.443359"/>
      <use xlink:href="#DejaVuSans-6e" x="851.625"/>
      <use xlink:href="#DejaVuSans-73" x="915.003906"/>
      <use xlink:href="#DejaVuSans-65" x="967.103516"/>
      <use xlink:href="#DejaVuSans-20" x="1028.626953"/>
      <use xlink:href="#DejaVuSans-28" x="1060.414062"/>
      <use xlink:href="#DejaVuSans-64" x="1099.427734"/>
      <use xlink:href="#DejaVuSans-42" x="1162.904297"/>
      <use xlink:href="#DejaVuSans-29" x="1231.507812"/>
     </g>
    </g>
   </g>
   <g id="line2d_69">
    <path d="M -1 67.103167 
L 354.287665 67.138245 
L 409.439653 48.907916 
L 441.701497 46.036211 
L 464.591641 45.729767 
L 482.346615 47.851451 
L 496.853486 60.527727 
L 509.11887 48.265334 
L 519.743629 45.112426 
L 529.11533 44.643912 
L 537.498603 46.574226 
L 545.082196 57.387075 
L 552.005474 47.286124 
L 558.374272 43.927549 
L 564.270858 43.351454 
L 569.760448 45.210734 
L 574.895617 56.268975 
L 579.719366 45.68401 
L 584.267318 42.315572 
L 588.569312 41.766461 
L 592.650591 43.843722 
L 596.532703 62.209151 
L 600.234184 43.344707 
L 603.7711 40.838941 
L 607.157462 42.555442 
L 610.405566 44.384234 
L 613.52626 35.165909 
L 616.529163 30.984819 
L 619.422846 28.297544 
L 622.214974 26.470203 
L 624.912436 25.266866 
L 627.52144 24.578411 
L 630.047605 24.353956 
L 632.496029 24.578411 
L 634.871354 25.266866 
L 637.17782 26.470203 
L 639.419307 28.297544 
L 641.599374 30.984819 
L 643.7213 35.165909 
L 645.788105 44.384234 
L 649.767309 40.838941 
L 651.684691 43.344707 
L 653.556954 62.209151 
L 655.386172 43.843722 
L 657.174281 41.766461 
L 658.923088 42.315572 
L 660.634283 45.68401 
L 662.30945 56.268975 
L 663.950075 45.210734 
L 665.557554 43.351454 
L 667.133199 43.927549 
L 668.678248 47.286124 
L 670.193865 57.387075 
L 671.681151 46.574226 
L 673.141147 44.643912 
L 674.574834 45.112426 
L 675.983145 48.265334 
L 677.366963 60.527727 
L 678.727124 47.851451 
L 680.064424 45.729767 
L 681.379619 46.036211 
L 682.673428 48.907916 
L 683.946536 67.138245 
L 685.199593 49.062329 
L 686.433222 46.676873 
L 687.648017 46.793855 
L 688.844543 49.360987 
L 690.023343 63.967458 
L 691.184933 50.239931 
L 692.329808 47.530418 
L 693.458444 47.441369 
L 694.571295 49.703187 
L 695.668795 60.123195 
L 696.751363 51.417081 
L 697.819399 48.321072 
L 698.873288 48.013837 
L 699.913401 49.9788 
L 700.940093 58.150698 
L 701.953705 52.627402 
L 702.954567 49.070742 
L 703.942996 48.534481 
L 704.919297 50.214034 
L 705.883763 56.905985 
L 706.836679 53.909715 
L 707.778317 49.796013 
L 708.708942 49.019443 
L 709.628807 50.425132 
L 710.53816 56.040173 
L 711.437238 55.315628 
L 712.326269 50.510268 
L 713.205477 49.480445 
L 714.075076 50.622596 
L 714.935273 55.404526 
L 715.786271 56.924537 
L 716.628263 51.225076 
L 717.461438 49.926359 
L 718.285979 50.813499 
L 719.909862 58.879849 
L 720.709542 51.951215 
L 721.501265 50.364186 
L 722.285187 51.002794 
L 723.061462 54.551059 
L 723.830236 61.501999 
L 724.591653 52.699533 
L 725.345853 50.799685 
L 726.092971 51.194094 
L 726.83314 54.262117 
L 727.566486 65.827768 
L 728.293135 53.481832 
L 729.013207 51.237814 
L 729.726822 51.390151 
L 730.434093 54.038018 
L 731.135133 72.8323 
L 731.83005 54.311942 
L 732.518951 51.683045 
L 733.201938 51.593156 
L 733.879112 53.866462 
L 734.550572 65.024165 
L 735.216412 55.207261 
L 735.876727 52.13961 
L 736.531608 51.804942 
L 737.181142 53.738738 
L 737.825417 61.995574 
L 738.464516 56.191221 
L 739.098524 52.611719 
L 739.727519 52.027118 
L 740.351581 53.648523 
L 740.970787 60.235279 
L 741.58521 57.297698 
L 742.194926 53.103764 
L 742.800005 52.261173 
L 743.400517 53.591146 
L 743.996531 59.037087 
L 744.588114 58.579745 
L 745.175331 53.620537 
L 745.758245 52.508544 
L 746.336921 53.563117 
L 746.911418 58.156536 
L 747.481796 60.129261 
L 748.048116 54.167492 
L 748.610432 52.770687 
L 749.168803 53.561811 
L 750.273925 62.12986 
L 750.820783 54.751087 
L 751.363908 53.049124 
L 751.903351 53.585262 
L 752.439161 56.948047 
L 752.971387 65.045569 
L 753.500076 55.379254 
L 754.025276 53.345502 
L 754.547032 53.632017 
L 755.065389 56.522005 
L 755.580391 70.790076 
L 756.092081 56.062103 
L 756.600501 53.661649 
L 757.105693 53.701034 
L 757.607698 56.178762 
L 758.106556 70.896605 
L 758.602305 56.813015 
L 759.094984 53.999639 
L 759.584632 53.791611 
L 760.071285 55.902214 
L 760.554979 65.60665 
L 761.035751 57.65046 
L 761.513636 54.361877 
L 761.988667 53.903339 
L 762.460879 55.680999 
L 762.930305 63.104748 
L 763.86093 54.751194 
L 764.322192 54.036072 
L 764.780795 55.506868 
L 765.236771 61.513624 
L 765.690148 59.706427 
L 766.140957 55.170986 
L 766.589226 54.189905 
L 767.034983 55.373697 
L 767.478257 60.375857 
L 767.919075 61.034814 
L 768.357465 55.6254 
L 768.793452 54.36517 
L 769.227064 55.27687 
L 770.087261 62.714513 
L 770.513898 56.11959 
L 770.938259 54.562439 
L 771.360369 55.212878 
L 771.780251 58.829051 
L 772.197929 65.031131 
L 772.613426 56.660093 
L 773.026765 54.782536 
L 773.437967 55.17904 
L 773.847055 58.279535 
L 774.254051 68.870351 
L 774.658976 57.255397 
L 775.06185 55.026566 
L 775.462695 55.173325 
L 775.86153 57.830744 
L 776.258376 77.401596 
L 776.653253 57.91682 
L 777.04618 55.295948 
L 777.437176 55.19422 
L 777.826259 57.461804 
L 778.21345 68.892531 
L 778.598765 58.659951 
L 778.982224 55.592478 
L 779.363843 55.240634 
L 779.743641 57.158257 
L 780.121635 65.466863 
L 780.497841 59.507135 
L 780.872277 55.9184 
L 781.244959 55.311845 
L 781.615904 56.909733 
L 781.985128 63.482218 
L 782.352646 60.492079 
L 782.718474 56.27652 
L 783.082628 55.40745 
L 783.445123 56.708592 
L 783.805974 62.114128 
L 784.165195 61.66918 
L 784.522803 56.670359 
L 784.87881 55.527344 
L 785.233232 56.549093 
L 785.586081 61.090723 
L 785.937373 63.134956 
L 786.287121 57.104368 
L 786.635338 55.671707 
L 786.982038 56.426865 
L 787.670939 65.087007 
L 788.013165 57.584249 
L 788.353926 55.841006 
L 788.693233 56.338555 
L 789.0311 59.642768 
L 789.367538 68.042823 
L 789.70256 58.117428 
L 790.036177 56.036008 
L 790.3684 56.281586 
L 790.699243 59.112658 
L 791.028715 74.311461 
L 791.356829 58.713786 
L 791.683596 56.257808 
L 792.009026 56.253997 
L 792.33313 58.673187 
L 792.655919 72.534135 
L 792.977405 59.386832 
L 793.297596 56.507877 
L 793.616504 56.254323 
L 793.93414 58.307062 
L 794.250512 67.647514 
L 794.565631 60.155693 
L 794.879507 56.788122 
L 795.19215 56.281516 
L 795.503569 58.002047 
L 795.813774 65.1911 
L 796.43058 57.100982 
L 796.737199 56.334891 
L 797.04264 57.749213 
L 797.346914 63.580007 
L 797.650029 62.110245 
L 797.951993 57.449559 
L 798.252816 56.414089 
L 798.552505 57.541892 
L 798.85107 62.401679 
L 799.148519 63.416139 
L 799.444861 57.837809 
L 799.740102 56.519056 
L 800.034252 57.375024 
L 800.61931 65.111814 
L 800.910233 58.270813 
L 801.200097 56.650039 
L 801.488909 57.244724 
L 801.776676 60.755314 
L 802.063406 67.536475 
L 802.349106 58.755179 
L 802.633785 56.807589 
L 802.917448 57.147997 
L 803.200104 60.153908 
L 803.481759 71.846899 
L 803.762421 59.299661 
L 804.042096 56.992586 
L 804.320791 57.082541 
L 804.598514 59.653643 
L 804.875271 77.490655 
L 805.151068 59.916134 
L 805.425913 57.206275 
L 805.699812 57.046611 
L 805.972771 59.234207 
L 806.244797 69.869124 
L 806.515896 60.621204 
L 806.786074 57.450316 
L 807.055339 57.038918 
L 807.323695 58.881435 
L 807.591149 66.774426 
L 808.123375 57.726873 
L 808.388159 57.058566 
L 808.652064 58.585106 
L 808.915098 64.880835 
L 809.177264 62.406705 
L 809.43857 58.038722 
L 809.69902 57.105006 
L 809.958621 58.337645 
L 810.217377 63.536742 
L 810.475295 63.585257 
L 810.732379 58.389422 
L 810.988635 57.178009 
L 811.244069 58.13333 
L 811.752489 65.086075 
L 812.005486 58.783544 
L 812.257681 57.277652 
L 812.50908 57.967781 
L 812.759686 61.692492 
L 813.009506 67.147315 
L 813.258544 59.227024 
L 813.506804 57.404324 
L 813.754293 57.837619 
L 814.001014 61.023378 
L 814.246972 70.446218 
L 814.492173 59.727686 
L 814.73662 57.558732 
L 814.980319 57.740237 
L 815.223273 60.466538 
L 815.465488 78.477791 
L 815.706968 60.296056 
L 815.947717 57.741938 
L 816.187739 57.673636 
L 816.42704 59.998226 
L 816.665624 72.394417 
L 816.903494 60.946696 
L 817.140655 57.955405 
L 817.377111 57.636318 
L 817.612867 59.602148 
L 817.847926 68.330225 
L 818.315972 58.201065 
L 818.548966 57.627204 
L 818.78128 59.266684 
L 819.012918 66.08405 
L 819.47418 58.48142 
L 819.703812 57.64558 
L 819.932784 58.9833 
L 820.161098 64.551691 
L 820.388759 63.661684 
L 820.615771 58.799688 
L 820.842136 57.691068 
L 821.06786 58.74559 
L 821.292945 63.404007 
L 821.517395 65.006989 
L 821.741214 59.160007 
L 821.964405 57.7636 
L 822.186971 58.548668 
L 822.630245 66.799816 
L 822.85096 59.56774 
L 823.071064 57.863421 
L 823.29056 58.38877 
L 823.509453 61.761992 
L 823.727745 69.477687 
L 823.94544 60.029915 
L 824.162542 57.991092 
L 824.379052 58.262987 
L 824.594975 61.149751 
L 824.810313 74.786859 
L 825.02507 60.555925 
L 825.239249 58.147518 
L 825.452854 58.169076 
L 825.665886 60.634357 
L 825.878349 75.718522 
L 826.090247 61.158629 
L 826.301582 58.333984 
L 826.512357 58.105337 
L 826.722575 60.197077 
L 826.932239 69.957214 
L 827.141352 61.856208 
L 827.349917 58.552222 
L 827.557937 58.070517 
L 827.765414 59.824726 
L 827.972352 67.240999 
L 828.384619 58.804492 
L 828.589955 58.063751 
L 828.794762 59.507717 
L 828.999043 65.484654 
L 829.202801 63.658283 
L 829.406039 59.093715 
L 829.608759 58.084518 
L 829.810964 59.238904 
L 830.012656 64.201672 
L 830.213838 64.875171 
L 830.414513 59.423649 
L 830.614683 58.132619 
L 830.81435 59.012863 
L 831.212189 66.459385 
L 831.410364 59.79915 
L 831.608048 58.208167 
L 831.805241 58.825426 
L 832.001947 62.395915 
L 832.198168 68.712674 
L 832.393906 60.226564 
L 832.589164 58.311589 
L 832.783943 58.673372 
L 832.978248 61.727455 
L 833.172078 72.600181 
L 833.365438 60.714309 
L 833.558329 58.443646 
L 833.750754 58.554211 
L 833.942714 61.165095 
L 834.134212 80.362528 
L 834.325251 61.273806 
L 834.515832 58.605466 
L 834.705957 58.466038 
L 834.895629 60.687252 
L 835.084851 71.79173 
L 835.273623 61.921006 
L 835.461949 58.798597 
L 835.649829 58.407427 
L 835.837268 60.27895 
L 836.024265 68.399821 
L 836.396948 59.025082 
L 836.582636 58.377364 
L 836.767892 59.92942 
L 836.952718 66.365347 
L 837.504634 58.375191 
L 837.687758 59.630697 
L 837.870462 64.92636 
L 838.052747 64.69132 
L 838.234616 59.589493 
L 838.41607 58.400582 
L 838.597111 59.376772 
L 838.957962 66.107292 
L 839.137775 59.935249 
L 839.317184 58.453525 
L 839.496188 59.163045 
L 839.852994 68.049202 
L 840.030798 60.330585 
L 840.208206 58.534321 
L 840.38522 58.985962 
L 840.56184 62.215703 
L 840.73807 71.113143 
L 840.913909 60.783076 
L 841.089361 58.643597 
L 841.264428 58.842773 
L 841.439109 61.605266 
L 841.613408 78.217734 
L 841.787326 61.302911 
L 841.960865 58.782332 
L 842.134026 58.731361 
L 842.306811 61.086457 
L 842.479222 74.082554 
L 842.65126 61.904163 
L 842.822927 58.951907 
L 842.994224 58.650125 
L 843.165153 60.642225 
L 843.335716 69.616541 
L 843.675748 59.154166 
L 843.845221 58.597898 
L 844.014334 60.260449 
L 844.183088 67.220544 
L 844.519526 59.391519 
L 844.687213 58.573887 
L 844.854548 59.932252 
L 845.021531 65.596139 
L 845.188165 64.455303 
L 845.35445 59.667078 
L 845.520388 58.57764 
L 845.685982 59.650977 
L 845.851231 64.378633 
L 846.016138 65.731647 
L 846.180703 59.984858 
L 846.34493 58.609023 
L 846.508817 59.411547 
L 846.835584 67.433575 
L 846.998465 60.350066 
L 847.161014 58.668216 
L 847.323231 59.210053 
L 847.485118 62.62533 
L 847.646676 69.957958 
L 847.807907 60.769536 
L 847.968812 58.755716 
L 848.129393 59.043466 
L 848.28965 61.964674 
L 848.449584 74.792855 
L 848.609198 61.252395 
L 848.768493 58.872367 
L 848.927469 58.909448 
L 849.086128 61.40366 
L 849.244471 77.393006 
L 849.4025 61.81112 
L 849.560215 59.019388 
L 849.717619 58.806214 
L 849.874712 60.922799 
L 850.031495 70.971119 
L 850.344138 59.198441 
L 850.5 58.732438 
L 850.5 58.732438 
" clip-path="url(#p3ff28b0adf)" style="fill: none; stroke: #1f77b4; stroke-width: 2.5; stroke-linecap: square"/>
   </g>
   <g id="line2d_70">
    <path d="M -1 76.937083 
L 354.287665 76.941604 
L 409.439653 88.449664 
L 441.701497 77.325362 
L 464.591641 74.431526 
L 482.346615 74.143789 
L 496.853486 76.224529 
L 509.11887 86.018166 
L 519.743629 77.30597 
L 529.11533 74.114407 
L 537.498603 73.665152 
L 545.082196 75.532627 
L 552.005474 83.957906 
L 558.374272 77.250747 
L 564.270858 73.765745 
L 569.760448 73.170377 
L 574.895617 74.85986 
L 579.719366 82.338279 
L 584.267318 77.134071 
L 588.569312 73.374519 
L 592.650591 72.6537 
L 596.532703 74.202904 
L 600.234184 81.055254 
L 607.157462 72.927612 
L 610.405566 72.109906 
L 613.52626 73.562563 
L 616.529163 80.054994 
L 619.422846 76.558789 
L 622.214974 72.410515 
L 624.912436 71.535756 
L 627.52144 72.945759 
L 630.047605 79.335807 
L 632.496029 76.009776 
L 634.871354 71.826459 
L 637.17782 70.968625 
L 639.419307 72.483532 
L 641.599374 79.873896 
L 643.7213 74.288081 
L 645.788105 70.191883 
L 647.802579 68.709947 
L 649.767309 68.235611 
L 651.684691 67.624194 
L 653.556954 65.617107 
L 655.386172 62.244584 
L 658.923088 55.037809 
L 660.634283 51.882696 
L 663.950075 46.419498 
L 667.133199 41.77221 
L 670.193865 37.775497 
L 673.141147 34.417847 
L 675.983145 31.723616 
L 677.366963 30.630186 
L 678.727124 29.706523 
L 680.064424 28.952273 
L 681.379619 28.366759 
L 682.673428 27.949221 
L 683.946536 27.698996 
L 685.199593 27.61564 
L 686.433222 27.698996 
L 687.648017 27.949221 
L 688.844543 28.366759 
L 690.023343 28.952273 
L 691.184933 29.706523 
L 692.329808 30.630186 
L 693.458444 31.723616 
L 694.571295 32.986556 
L 695.668795 34.417847 
L 697.819399 37.775497 
L 699.913401 41.77221 
L 701.953705 46.419498 
L 703.942996 51.882696 
L 705.883763 58.529271 
L 707.778317 65.617107 
L 708.708942 67.624194 
L 710.53816 68.709947 
L 711.437238 70.191883 
L 712.326269 74.288081 
L 713.205477 79.873896 
L 714.075076 72.483532 
L 714.935273 70.968625 
L 715.786271 71.826459 
L 716.628263 76.009776 
L 717.461438 79.335807 
L 718.285979 72.945759 
L 719.102063 71.535756 
L 719.909862 72.410515 
L 720.709542 76.558789 
L 721.501265 80.054994 
L 722.285187 73.562563 
L 723.061462 72.109906 
L 723.830236 72.927612 
L 725.345853 81.055254 
L 726.092971 74.202904 
L 726.83314 72.6537 
L 727.566486 73.374519 
L 728.293135 77.134071 
L 729.013207 82.338279 
L 729.726822 74.85986 
L 730.434093 73.170377 
L 731.135133 73.765745 
L 731.83005 77.250747 
L 732.518951 83.957906 
L 733.201938 75.532627 
L 733.879112 73.665152 
L 734.550572 74.114407 
L 735.216412 77.30597 
L 735.876727 86.018166 
L 736.531608 76.224529 
L 737.181142 74.143789 
L 737.825417 74.431526 
L 738.464516 77.325362 
L 739.098524 88.449664 
L 739.727519 76.941604 
L 740.351581 74.61191 
L 740.970787 74.726049 
L 741.58521 77.326249 
L 742.194926 89.500699 
L 742.800005 77.692178 
L 743.400517 75.074781 
L 743.996531 75.005156 
L 744.588114 77.320103 
L 745.175331 87.808931 
L 745.758245 78.487074 
L 746.336921 75.537302 
L 746.911418 75.274618 
L 747.481796 77.31445 
L 748.048116 85.916235 
L 748.610432 79.340417 
L 749.168803 76.004102 
L 749.723283 75.539112 
L 750.273925 77.314208 
L 750.820783 84.477161 
L 751.903351 76.479665 
L 752.439161 75.802495 
L 752.971387 77.322596 
L 753.500076 83.391867 
L 754.025276 81.306122 
L 754.547032 76.968485 
L 755.065389 76.068017 
L 755.580391 77.341737 
L 756.092081 82.550615 
L 756.600501 82.484758 
L 757.105693 77.475234 
L 757.607698 76.338485 
L 758.106556 77.373048 
L 758.602305 81.882332 
L 759.094984 83.869701 
L 759.584632 78.004975 
L 760.071285 76.616405 
L 760.554979 77.417504 
L 761.513636 85.567122 
L 761.988667 78.563405 
L 762.460879 76.90409 
L 762.930305 77.475807 
L 763.396978 80.899605 
L 763.86093 87.764511 
L 764.322192 79.157201 
L 764.780795 77.203752 
L 765.236771 77.548499 
L 765.690148 80.535265 
L 766.140957 90.667384 
L 766.589226 79.794474 
L 767.034983 77.517591 
L 767.478257 77.636044 
L 767.919075 80.234571 
L 768.357465 92.418207 
L 768.793452 80.485462 
L 769.227064 77.847869 
L 769.658325 77.738876 
L 770.087261 79.987143 
L 770.513898 90.098401 
L 770.938259 81.243575 
L 771.360369 78.196997 
L 771.780251 77.857445 
L 772.197929 79.785266 
L 772.613426 87.803697 
L 773.026765 82.08711 
L 773.437967 78.567626 
L 773.847055 77.992244 
L 774.254051 79.623101 
L 774.658976 86.180401 
L 775.06185 83.04218 
L 775.462695 78.962748 
L 775.86153 78.143833 
L 776.258376 79.496165 
L 776.653253 84.988905 
L 777.04618 84.148065 
L 777.437176 79.385837 
L 777.826259 78.312866 
L 778.21345 79.400986 
L 778.598765 84.074309 
L 778.982224 85.467701 
L 779.363843 79.841019 
L 779.743641 78.500111 
L 780.121635 79.334857 
L 780.872277 87.109562 
L 781.244959 80.333313 
L 781.615904 78.706474 
L 781.985128 79.295673 
L 782.352646 82.762116 
L 782.718474 89.271272 
L 783.082628 80.868965 
L 783.445123 78.933033 
L 783.805974 79.281807 
L 784.165195 82.279679 
L 784.522803 92.207611 
L 784.87881 81.455942 
L 785.233232 79.181067 
L 785.586081 79.292022 
L 785.937373 81.880082 
L 786.287121 94.051667 
L 786.635338 82.104686 
L 786.982038 79.452106 
L 787.327234 79.325411 
L 787.670939 81.548036 
L 788.013165 91.532109 
L 788.353926 82.829296 
L 788.693233 79.747983 
L 789.0311 79.381354 
L 789.367538 81.272542 
L 789.70256 89.126792 
L 790.036177 83.649511 
L 790.3684 80.07091 
L 790.699243 79.459481 
L 791.028715 81.045478 
L 791.356829 87.439002 
L 791.683596 84.594162 
L 792.009026 80.423576 
L 792.33313 79.55966 
L 792.655919 80.860724 
L 792.977405 86.198262 
L 793.297596 85.707651 
L 793.616504 80.80928 
L 793.93414 79.681985 
L 794.250512 80.713598 
L 794.565631 85.241539 
L 794.879507 87.06296 
L 795.19215 81.232121 
L 795.503569 79.826771 
L 795.813774 80.600487 
L 796.43058 88.789385 
L 796.737199 81.697257 
L 797.04264 79.994568 
L 797.346914 80.518583 
L 797.650029 83.856946 
L 797.951993 91.124178 
L 798.252816 82.21129 
L 798.552505 80.186173 
L 798.85107 80.465716 
L 799.148519 83.34242 
L 799.444861 94.217619 
L 799.740102 82.782844 
L 800.034252 80.40266 
L 800.327319 80.440218 
L 800.61931 82.912891 
L 800.910233 94.6808 
L 801.200097 83.423462 
L 801.488909 80.64542 
L 801.776676 80.440842 
L 802.063406 82.552819 
L 802.349106 91.793086 
L 802.633785 84.14905 
L 802.917448 80.916216 
L 803.200104 80.466696 
L 803.481759 82.251022 
L 803.762421 89.568913 
L 804.320791 81.217263 
L 804.598514 80.517195 
L 804.875271 81.999236 
L 805.151068 87.99391 
L 805.425913 85.95734 
L 805.699812 81.551335 
L 805.972771 80.592041 
L 806.244797 81.791231 
L 806.515896 86.814559 
L 806.786074 87.127849 
L 807.055339 81.921922 
L 807.323695 80.6912 
L 807.591149 81.622237 
L 808.123375 88.585232 
L 808.388159 82.333438 
L 808.652064 80.814899 
L 808.915098 81.488563 
L 809.177264 85.14619 
L 809.43857 90.496475 
L 809.69902 82.791537 
L 809.958621 80.963637 
L 810.217377 81.387348 
L 810.475295 84.532514 
L 810.732379 93.149871 
L 810.988635 83.303574 
L 811.244069 81.138191 
L 811.498685 81.316372 
L 811.752489 84.020272 
L 812.005486 95.999477 
L 812.257681 83.879305 
L 812.50908 81.339659 
L 812.759686 81.273934 
L 813.009506 83.589229 
L 813.258544 94.327135 
L 813.506804 84.532009 
L 813.754293 81.569492 
L 814.001014 81.258764 
L 814.246972 83.22516 
L 814.492173 91.559069 
L 814.980319 81.829569 
L 815.223273 81.269956 
L 815.465488 82.917741 
L 815.706968 89.60805 
L 816.187739 82.122281 
L 816.42704 81.306927 
L 816.665624 82.659293 
L 816.903494 88.191934 
L 817.140655 87.187324 
L 817.377111 82.45066 
L 817.612867 81.369391 
L 817.847926 82.443992 
L 818.082293 87.10654 
L 818.315972 88.456196 
L 818.548966 82.818559 
L 818.78128 81.45734 
L 819.012918 82.26736 
L 819.47418 90.078678 
L 819.703812 83.23091 
L 819.932784 81.571048 
L 820.161098 82.125929 
L 820.388759 85.534614 
L 820.615771 92.27927 
L 820.842136 83.6941 
L 821.06786 81.711073 
L 821.292945 82.017002 
L 821.517395 84.945993 
L 821.741214 95.305355 
L 821.964405 84.216541 
L 822.186971 81.878285 
L 822.408917 81.938493 
L 822.630245 84.450422 
L 822.85096 96.435326 
L 823.071064 84.809554 
L 823.29056 82.073896 
L 823.509453 81.888814 
L 823.727745 84.030364 
L 823.94544 93.521423 
L 824.162542 85.4888 
L 824.379052 82.299517 
L 824.594975 81.866789 
L 824.810313 83.67332 
L 825.02507 91.134838 
L 825.452854 82.557233 
L 825.665886 81.871601 
L 825.878349 83.370114 
L 826.090247 89.44935 
L 826.301582 87.206897 
L 826.512357 82.84971 
L 826.722575 81.902752 
L 826.932239 83.113863 
L 827.141352 88.188742 
L 827.349917 88.332543 
L 827.557937 83.180346 
L 827.765414 81.960042 
L 827.972352 82.899311 
L 828.384619 89.744015 
L 828.589955 83.55349 
L 828.794762 82.043558 
L 828.999043 82.7224 
L 829.406039 91.60683 
L 829.608759 83.974756 
L 829.810964 82.153676 
L 830.012656 82.579978 
L 830.213838 85.735471 
L 830.414513 94.212269 
L 830.614683 84.451485 
L 830.81435 82.291075 
L 831.013518 82.469598 
L 831.212189 85.1778 
L 831.410364 97.100957 
L 831.608048 84.993468 
L 831.805241 82.456766 
L 832.001947 82.389374 
L 832.198168 84.704593 
L 832.393906 95.483536 
L 832.589164 85.614077 
L 832.783943 82.652136 
L 832.978248 82.337882 
L 833.172078 84.300921 
L 833.365438 92.646224 
L 833.750754 82.879008 
L 833.942714 82.314092 
L 834.134212 83.955981 
L 834.325251 90.641107 
L 834.705957 83.139741 
L 834.895629 82.317317 
L 835.084851 83.661753 
L 835.273623 89.181458 
L 835.461949 88.18606 
L 835.649829 83.437352 
L 835.837268 82.347182 
L 836.024265 83.412167 
L 836.210825 88.057916 
L 836.396948 89.434254 
L 836.582636 83.7757 
L 836.767892 82.403608 
L 836.952718 83.202558 
L 837.321087 91.043556 
L 837.504634 84.159755 
L 837.687758 82.486808 
L 837.870462 83.029311 
L 838.052747 86.418087 
L 838.234616 93.244979 
L 838.41607 84.595982 
L 838.597111 82.597295 
L 838.777741 82.889615 
L 838.957962 85.7981 
L 839.137775 96.275725 
L 839.317184 85.092929 
L 839.496188 82.735901 
L 839.674791 82.78129 
L 839.852994 85.272373 
L 840.030798 97.186894 
L 840.208206 85.662144 
L 840.38522 82.903813 
L 840.56184 82.702673 
L 840.73807 84.823163 
L 840.913909 94.20024 
L 841.264428 83.102632 
L 841.439109 82.652524 
L 841.613408 84.437829 
L 841.787326 91.812818 
L 842.134026 83.334443 
L 842.306811 82.629977 
L 842.479222 84.107096 
L 842.65126 90.118265 
L 842.822927 88.003504 
L 842.994224 83.601933 
L 843.165153 82.634491 
L 843.335716 83.824001 
L 843.505914 88.842457 
L 843.675748 89.119769 
L 843.845221 83.908543 
L 844.014334 82.665833 
L 844.183088 83.583232 
L 844.519526 90.531811 
L 844.687213 84.258692 
L 844.854548 82.724065 
L 845.021531 83.380683 
L 845.35445 92.413713 
L 845.520388 84.658105 
L 845.685982 82.809544 
L 845.851231 83.213164 
L 846.016138 86.329489 
L 846.180703 95.065242 
L 846.34493 85.1143 
L 846.508817 82.92294 
L 846.672368 83.078195 
L 846.835584 85.750227 
L 846.998465 97.793773 
L 847.161014 85.63733 
L 847.323231 83.065262 
L 847.485118 82.973864 
L 847.646676 85.255193 
L 847.807907 95.814508 
L 848.129393 83.237905 
L 848.28965 82.898726 
L 848.449584 84.829613 
L 848.609198 93.008323 
L 848.927469 83.442714 
L 849.086128 82.851734 
L 849.244471 84.462784 
L 849.4025 91.028798 
L 849.874712 82.832186 
L 850.031495 84.146751 
L 850.18797 89.575395 
L 850.344138 88.783434 
L 850.5 83.959083 
L 850.5 83.959083 
" clip-path="url(#p3ff28b0adf)" style="fill: none; stroke: #ff7f0e; stroke-width: 2.5; stroke-linecap: square"/>
   </g>
   <g id="line2d_71">
    <path d="M -1 176.033728 
L 354.287665 176.0282 
L 409.439653 175.609558 
L 441.701497 177.301621 
L 464.591641 182.344208 
L 482.346615 179.157404 
L 496.853486 176.016705 
L 509.11887 175.42115 
L 519.743629 176.90368 
L 529.11533 181.657851 
L 537.498603 179.462918 
L 545.082196 176.017008 
L 552.005474 175.245184 
L 558.374272 176.530847 
L 564.270858 180.956462 
L 569.760448 179.791355 
L 574.895617 176.028724 
L 579.719366 175.081058 
L 584.267318 176.181366 
L 588.569312 180.274583 
L 592.650591 180.136135 
L 596.532703 176.050371 
L 600.234184 174.926907 
L 603.7711 175.851955 
L 607.157462 179.626773 
L 610.405566 180.491152 
L 613.52626 176.082866 
L 616.529163 174.783087 
L 619.422846 175.542195 
L 622.214974 179.020313 
L 624.912436 180.83885 
L 627.52144 176.124177 
L 630.047605 174.647681 
L 632.496029 175.248541 
L 634.871354 178.451958 
L 637.17782 181.170422 
L 639.419307 176.186468 
L 641.599374 174.538973 
L 643.7213 175.010241 
L 647.802579 181.051072 
L 649.767309 175.841562 
L 651.684691 173.873991 
L 653.556954 173.704486 
L 655.386172 174.85656 
L 657.174281 176.671742 
L 658.923088 175.91504 
L 663.950075 162.540335 
L 667.133199 155.592014 
L 675.983145 137.083377 
L 701.953705 81.699808 
L 706.836679 71.945701 
L 711.437238 63.240423 
L 714.935273 57.031357 
L 718.285979 51.493541 
L 721.501265 46.626976 
L 724.591653 42.431661 
L 726.83314 39.725683 
L 729.013207 37.397283 
L 731.135133 35.446462 
L 733.201938 33.873219 
L 735.216412 32.677554 
L 737.181142 31.859468 
L 738.464516 31.523843 
L 739.727519 31.35603 
L 740.970787 31.35603 
L 742.194926 31.523843 
L 743.400517 31.859468 
L 744.588114 32.362906 
L 745.758245 33.034156 
L 747.481796 34.35568 
L 749.168803 36.054783 
L 750.820783 38.131464 
L 752.439161 40.585723 
L 754.025276 43.41756 
L 755.580391 46.626976 
L 757.105693 50.21397 
L 759.094984 55.583973 
L 761.035751 61.625227 
L 762.930305 68.33773 
L 764.780795 75.721485 
L 766.589226 83.776489 
L 768.793452 94.789188 
L 770.938259 106.850742 
L 773.026765 119.96085 
L 775.06185 134.123331 
L 777.437176 152.403131 
L 778.598765 162.540312 
L 779.743641 175.914832 
L 780.121635 176.67149 
L 780.497841 174.85632 
L 780.872277 173.704282 
L 781.244959 173.873755 
L 781.615904 175.841206 
L 781.985128 181.050571 
L 782.718474 175.010393 
L 783.082628 174.539194 
L 783.445123 176.186699 
L 783.805974 181.170981 
L 784.522803 175.24843 
L 784.87881 174.647571 
L 785.233232 176.124066 
L 785.586081 180.838741 
L 785.937373 179.020352 
L 786.287121 175.542087 
L 786.635338 174.783038 
L 786.982038 176.08278 
L 787.327234 180.490606 
L 787.670939 179.627023 
L 788.013165 175.852315 
L 788.353926 174.927223 
L 788.693233 176.050806 
L 789.0311 180.13698 
L 789.367538 180.274061 
L 789.70256 176.181051 
L 790.036177 175.08074 
L 790.3684 176.028358 
L 790.699243 179.790689 
L 791.028715 180.956615 
L 791.356829 176.531068 
L 791.683596 175.24536 
L 792.009026 176.017066 
L 792.33313 179.46293 
L 792.655919 181.658306 
L 792.977405 176.903736 
L 793.297596 175.421162 
L 793.616504 176.016663 
L 794.250512 182.34345 
L 794.565631 177.301678 
L 794.879507 175.609272 
L 795.19215 176.027952 
L 795.503569 178.876754 
L 795.813774 182.95224 
L 796.122775 177.727655 
L 796.43058 175.811089 
L 796.737199 176.051741 
L 797.04264 178.622482 
L 797.346914 183.393494 
L 797.650029 178.184432 
L 797.951993 176.026928 
L 798.252816 176.087731 
L 798.552505 178.393612 
L 798.85107 183.58229 
L 799.148519 178.675982 
L 799.444861 176.258395 
L 799.740102 176.136576 
L 800.034252 178.189527 
L 800.327319 183.491291 
L 800.910233 176.506899 
L 801.200097 176.199198 
L 801.488909 178.010443 
L 801.776676 183.173948 
L 802.349106 176.773036 
L 802.633785 176.274882 
L 802.917448 177.854033 
L 803.200104 182.720787 
L 803.481759 180.398812 
L 803.762421 177.059363 
L 804.042096 176.365146 
L 804.320791 177.72042 
L 804.598514 182.216043 
L 804.875271 181.067576 
L 805.151068 177.367064 
L 805.425913 176.470218 
L 805.699812 177.608581 
L 805.972771 181.711288 
L 806.244797 181.783851 
L 806.515896 177.69789 
L 806.786074 176.589962 
L 807.055339 177.516951 
L 807.323695 181.231511 
L 807.591149 182.538972 
L 807.857707 178.05515 
L 808.123375 176.726177 
L 808.388159 177.446523 
L 808.915098 183.302449 
L 809.177264 178.440138 
L 809.43857 176.878112 
L 809.69902 177.394447 
L 810.217377 184.012895 
L 810.475295 178.857355 
L 810.732379 177.048046 
L 810.988635 177.362369 
L 811.244069 180.038283 
L 811.498685 184.562501 
L 811.752489 179.308889 
L 812.005486 177.235379 
L 812.257681 177.34829 
L 812.50908 179.721678 
L 812.759686 184.8256 
L 813.009506 179.799991 
L 813.258544 177.442468 
L 813.506804 177.353295 
L 813.754293 179.442983 
L 814.001014 184.741975 
L 814.492173 177.669604 
L 814.73662 177.376243 
L 814.980319 179.198822 
L 815.223273 184.370208 
L 815.706968 177.918372 
L 815.947717 177.417426 
L 816.187739 178.986726 
L 816.42704 183.836842 
L 816.665624 181.551814 
L 816.903494 178.190408 
L 817.140655 177.476831 
L 817.377111 178.804666 
L 817.612867 183.24995 
L 817.847926 182.2416 
L 818.082293 178.4873 
L 818.315972 177.554556 
L 818.548966 178.650128 
L 818.78128 182.67157 
L 819.012918 182.983594 
L 819.243883 178.811904 
L 819.47418 177.651346 
L 819.703812 178.522378 
L 819.932784 182.133924 
L 820.161098 183.761452 
L 820.388759 179.165591 
L 820.615771 177.766571 
L 820.842136 178.418575 
L 821.292945 184.531617 
L 821.517395 179.552684 
L 821.741214 177.902239 
L 821.964405 178.339628 
L 822.408917 185.206216 
L 822.630245 179.97511 
L 822.85096 178.057271 
L 823.071064 178.282117 
L 823.29056 180.818554 
L 823.509453 185.641729 
L 823.727745 180.438244 
L 823.94544 178.233982 
L 824.162542 178.247418 
L 824.379052 180.476094 
L 824.594975 185.719239 
L 825.02507 178.432709 
L 825.239249 178.233797 
L 825.452854 180.175402 
L 825.665886 185.433659 
L 826.090247 178.654156 
L 826.301582 178.240556 
L 826.512357 179.911205 
L 826.722575 184.90518 
L 827.141352 178.901533 
L 827.349917 178.269598 
L 827.557937 179.685588 
L 827.765414 184.284797 
L 827.972352 182.782744 
L 828.178753 179.173415 
L 828.384619 178.316572 
L 828.589955 179.487804 
L 828.794762 183.647005 
L 828.999043 183.509091 
L 829.202801 179.476192 
L 829.406039 178.386976 
L 829.608759 179.323717 
L 829.810964 183.054789 
L 830.012656 184.281708 
L 830.213838 179.807905 
L 830.414513 178.476253 
L 830.614683 179.185726 
L 831.013518 185.06288 
L 831.212189 180.17436 
L 831.410364 178.587386 
L 831.608048 179.074712 
L 832.001947 185.771306 
L 832.198168 180.578436 
L 832.393906 178.720663 
L 832.589164 178.989414 
L 832.783943 181.591807 
L 832.978248 186.269121 
L 833.172078 181.022687 
L 833.365438 178.875437 
L 833.558329 178.926799 
L 833.750754 181.20779 
L 833.942714 186.401157 
L 834.325251 179.054879 
L 834.515832 178.889209 
L 834.705957 180.872938 
L 834.895629 186.149475 
L 835.273623 179.257479 
L 835.461949 178.872598 
L 835.649829 180.577092 
L 835.837268 185.614764 
L 836.210825 179.486878 
L 836.396948 178.879416 
L 836.582636 180.32124 
L 836.767892 184.965402 
L 836.952718 183.310096 
L 837.137116 179.743385 
L 837.321087 178.907393 
L 837.504634 180.099142 
L 837.687758 184.297575 
L 837.870462 184.027246 
L 838.052747 180.029765 
L 838.234616 178.957458 
L 838.41607 179.909442 
L 838.597111 183.667618 
L 838.777741 184.793361 
L 838.957962 180.348144 
L 839.137775 179.030129 
L 839.317184 179.749902 
L 839.674791 185.573787 
L 839.852994 180.701487 
L 840.030798 179.124156 
L 840.208206 179.617918 
L 840.56184 186.282439 
L 840.73807 181.093185 
L 840.913909 179.241879 
L 841.089361 179.513233 
L 841.264428 182.119368 
L 841.439109 186.778679 
L 841.787326 179.382098 
L 841.960865 179.433085 
L 842.134026 181.713427 
L 842.306811 186.904 
L 842.65126 179.547276 
L 842.822927 179.37789 
L 842.994224 181.356208 
L 843.165153 186.628024 
L 843.505914 179.737681 
L 843.675748 179.346163 
L 843.845221 181.042165 
L 844.014334 186.070845 
L 844.351485 179.954868 
L 844.519526 179.337655 
L 844.687213 180.767535 
L 844.854548 185.392361 
L 845.021531 183.78575 
L 845.188165 180.200483 
L 845.35445 179.351964 
L 845.520388 180.529227 
L 845.685982 184.703414 
L 845.851231 184.499078 
L 846.016138 180.476851 
L 846.180703 179.388918 
L 846.34493 180.324207 
L 846.672368 185.261503 
L 846.835584 180.786047 
L 846.998465 179.448503 
L 847.161014 180.1497 
L 847.485118 186.033655 
L 847.807907 179.53152 
L 847.968812 180.004662 
L 848.28965 186.726065 
L 848.609198 179.637482 
L 848.768493 179.8863 
L 848.927469 182.458864 
L 849.086128 187.184278 
L 849.4025 179.767788 
L 849.560215 179.794435 
L 849.717619 182.040365 
L 849.874712 187.254615 
L 850.18797 179.923155 
L 850.344138 179.727708 
L 850.5 181.67155 
L 850.5 181.67155 
" clip-path="url(#p3ff28b0adf)" style="fill: none; stroke: #2ca02c; stroke-width: 2.5; stroke-linecap: square"/>
   </g>
   <g id="line2d_72">
    <path d="M -1 229.392196 
L 354.287665 229.389289 
L 409.439653 231.079857 
L 441.701497 231.757588 
L 464.591641 231.784305 
L 482.346615 233.255592 
L 496.853486 231.385797 
L 509.11887 233.540099 
L 519.743629 229.977448 
L 529.11533 230.456045 
L 537.498603 234.178247 
L 545.082196 233.488954 
L 552.005474 234.680911 
L 558.374272 232.907603 
L 564.270858 236.105648 
L 569.760448 233.488954 
L 574.895617 236.388541 
L 579.719366 239.827851 
L 584.267318 236.169327 
L 588.569312 237.262301 
L 592.650591 242.288093 
L 596.532703 237.211157 
L 600.234184 233.928299 
L 603.7711 235.22026 
L 607.157462 240.426992 
L 610.405566 236.542012 
L 613.52626 233.10051 
L 616.529163 233.246898 
L 619.422846 234.398881 
L 622.214974 232.317146 
L 624.912436 232.732406 
L 627.52144 236.06402 
L 630.047605 231.838549 
L 632.496029 234.435793 
L 634.871354 231.283607 
L 637.17782 232.512351 
L 639.419307 230.740473 
L 641.599374 232.940958 
L 643.7213 231.525348 
L 645.788105 231.460609 
L 647.802579 232.800139 
L 649.767309 232.359301 
L 651.684691 231.293373 
L 653.556954 231.454295 
L 655.386172 231.760082 
L 657.174281 233.836652 
L 658.923088 233.248888 
L 660.634283 236.165035 
L 662.30945 232.912069 
L 663.950075 234.286565 
L 665.557554 232.244465 
L 667.133199 233.537478 
L 668.678248 236.617087 
L 670.193865 236.850251 
L 671.681151 232.08811 
L 673.141147 234.406669 
L 674.574834 235.349264 
L 675.983145 235.872241 
L 677.366963 236.93389 
L 678.727124 233.853118 
L 680.064424 235.586561 
L 681.379619 232.807729 
L 682.673428 233.272655 
L 683.946536 231.44261 
L 686.433222 226.964245 
L 688.844543 222.486434 
L 690.023343 220.750973 
L 691.184933 218.751576 
L 693.458444 214.589731 
L 697.819399 206.880719 
L 703.942996 195.662514 
L 710.53816 183.06823 
L 717.461438 169.307343 
L 724.591653 154.628972 
L 733.201938 136.379354 
L 756.092081 87.498692 
L 761.513636 76.596117 
L 766.140957 67.785956 
L 770.087261 60.753559 
L 773.437967 55.215744 
L 776.653253 50.349179 
L 779.363843 46.641569 
L 781.985128 43.447886 
L 784.165195 41.119486 
L 786.287121 39.168664 
L 788.353926 37.595421 
L 790.036177 36.572813 
L 791.683596 35.812413 
L 793.297596 35.314219 
L 794.879507 35.078232 
L 796.43058 35.104453 
L 797.951993 35.392881 
L 799.444861 35.943516 
L 800.910233 36.756358 
L 802.349106 37.831408 
L 803.762421 39.168664 
L 805.151068 40.768128 
L 806.786074 43.033598 
L 808.388159 45.676647 
L 809.958621 48.697273 
L 811.752489 52.698555 
L 813.506804 57.213762 
L 815.223273 62.242896 
L 817.140655 68.619775 
L 819.012918 75.667904 
L 820.842136 83.387283 
L 822.85096 92.873939 
L 824.810313 103.210146 
L 826.932239 115.691207 
L 828.999043 129.221098 
L 831.212189 145.315374 
L 833.365438 162.678732 
L 835.649829 183.067565 
L 837.870462 204.944212 
L 840.38522 231.485889 
L 840.56184 231.380678 
L 840.73807 236.722114 
L 840.913909 238.283837 
L 841.089361 242.183613 
L 841.264428 236.236416 
L 841.439109 241.081692 
L 841.613408 242.001683 
L 841.787326 238.543079 
L 841.960865 239.808542 
L 842.134026 235.321234 
L 842.306811 235.205097 
L 842.65126 237.355674 
L 842.822927 233.063293 
L 842.994224 234.825956 
L 843.165153 234.748704 
L 843.335716 233.639132 
L 843.505914 233.70929 
L 843.675748 232.959548 
L 843.845221 234.993572 
L 844.014334 235.235105 
L 844.183088 232.370904 
L 844.351485 234.666394 
L 844.519526 232.347117 
L 844.687213 236.583594 
L 844.854548 232.01455 
L 845.021531 233.050532 
L 845.188165 232.075692 
L 845.35445 238.05367 
L 845.520388 233.329159 
L 845.685982 234.72629 
L 845.851231 234.006042 
L 846.016138 234.778469 
L 846.180703 233.500651 
L 846.34493 235.606253 
L 846.672368 240.484336 
L 846.835584 238.344902 
L 847.161014 245.15997 
L 847.323231 236.105648 
L 847.485118 237.628363 
L 847.646676 245.072768 
L 847.968812 235.867299 
L 848.129393 237.262301 
L 848.28965 235.694013 
L 848.609198 230.547969 
L 848.768493 239.634877 
L 848.927469 231.644232 
L 849.244471 229.112359 
L 849.4025 234.911995 
L 849.717619 230.155467 
L 849.874712 228.247809 
L 850.031495 230.482661 
L 850.18797 230.731672 
L 850.344138 229.450395 
L 850.5 230.30891 
L 850.5 230.30891 
" clip-path="url(#p3ff28b0adf)" style="fill: none; stroke: #d62728; stroke-width: 2.5; stroke-linecap: square"/>
   </g>
   <g id="patch_8">
    <path d="M 354.287665 236.068 
L 354.287665 13.5 
" style="fill: none; stroke: #000000; stroke-width: 0.8; stroke-linejoin: miter; stroke-linecap: square"/>
   </g>
   <g id="patch_9">
    <path d="M 850.5 236.068 
L 850.5 13.5 
" style="fill: none; stroke: #000000; stroke-width: 0.8; stroke-linejoin: miter; stroke-linecap: square"/>
   </g>
   <g id="patch_10">
    <path d="M 354.287665 236.068 
L 850.5 236.068 
" style="fill: none; stroke: #000000; stroke-width: 0.8; stroke-linejoin: miter; stroke-linecap: square"/>
   </g>
   <g id="patch_11">
    <path d="M 354.287665 13.5 
L 850.5 13.5 
" style="fill: none; stroke: #000000; stroke-width: 0.8; stroke-linejoin: miter; stroke-linecap: square"/>
   </g>
   <g id="legend_1">
    <g id="patch_12">
     <path d="M 363.037665 172.528141 
L 462.299383 172.528141 
Q 464.799383 172.528141 464.799383 170.028141 
L 464.799383 79.539859 
Q 464.799383 77.039859 462.299383 77.039859 
L 363.037665 77.039859 
Q 360.537665 77.039859 360.537665 79.539859 
L 360.537665 170.028141 
Q 360.537665 172.528141 363.037665 172.528141 
z
" style="fill: #ffffff; opacity: 0.8; stroke: #cccccc; stroke-linejoin: miter"/>
    </g>
    <g id="text_25">
     <!-- Frequency (Hz) -->
     <g transform="translate(365.537665 91.537906) scale(0.125 -0.125)">
      <use xlink:href="#DejaVuSans-46"/>
      <use xlink:href="#DejaVuSans-72" x="50.269531"/>
      <use xlink:href="#DejaVuSans-65" x="89.132812"/>
      <use xlink:href="#DejaVuSans-71" x="150.65625"/>
      <use xlink:href="#DejaVuSans-75" x="214.132812"/>
      <use xlink:href="#DejaVuSans-65" x="277.511719"/>
      <use xlink:href="#DejaVuSans-6e" x="339.035156"/>
      <use xlink:href="#DejaVuSans-63" x="402.414062"/>
      <use xlink:href="#DejaVuSans-79" x="457.394531"/>
      <use xlink:href="#DejaVuSans-20" x="516.574219"/>
      <use xlink:href="#DejaVuSans-28" x="548.361328"/>
      <use xlink:href="#DejaVuSans-48" x="587.375"/>
      <use xlink:href="#DejaVuSans-7a" x="662.570312"/>
      <use xlink:href="#DejaVuSans-29" x="715.060547"/>
     </g>
    </g>
    <g id="line2d_73">
     <path d="M 381.252508 105.510562 
L 393.752508 105.510562 
L 406.252508 105.510562 
" style="fill: none; stroke: #1f77b4; stroke-width: 2.5; stroke-linecap: square"/>
    </g>
    <g id="text_26">
     <!-- 6.25 -->
     <g transform="translate(416.252508 109.885562) scale(0.125 -0.125)">
      <defs>
       <path id="DejaVuSans-36" d="M 2113 2584 
Q 1688 2584 1439 2293 
Q 1191 2003 1191 1497 
Q 1191 994 1439 701 
Q 1688 409 2113 409 
Q 2538 409 2786 701 
Q 3034 994 3034 1497 
Q 3034 2003 2786 2293 
Q 2538 2584 2113 2584 
z
M 3366 4563 
L 3366 3988 
Q 3128 4100 2886 4159 
Q 2644 4219 2406 4219 
Q 1781 4219 1451 3797 
Q 1122 3375 1075 2522 
Q 1259 2794 1537 2939 
Q 1816 3084 2150 3084 
Q 2853 3084 3261 2657 
Q 3669 2231 3669 1497 
Q 3669 778 3244 343 
Q 2819 -91 2113 -91 
Q 1303 -91 875 529 
Q 447 1150 447 2328 
Q 447 3434 972 4092 
Q 1497 4750 2381 4750 
Q 2619 4750 2861 4703 
Q 3103 4656 3366 4563 
z
" transform="scale(0.015625)"/>
      </defs>
      <use xlink:href="#DejaVuSans-36"/>
      <use xlink:href="#DejaVuSans-2e" x="63.623047"/>
      <use xlink:href="#DejaVuSans-32" x="95.410156"/>
      <use xlink:href="#DejaVuSans-35" x="159.033203"/>
     </g>
    </g>
    <g id="line2d_74">
     <path d="M 381.252508 123.858219 
L 393.752508 123.858219 
L 406.252508 123.858219 
" style="fill: none; stroke: #ff7f0e; stroke-width: 2.5; stroke-linecap: square"/>
    </g>
    <g id="text_27">
     <!-- 12.5 -->
     <g transform="translate(416.252508 128.233219) scale(0.125 -0.125)">
      <use xlink:href="#DejaVuSans-31"/>
      <use xlink:href="#DejaVuSans-32" x="63.623047"/>
      <use xlink:href="#DejaVuSans-2e" x="127.246094"/>
      <use xlink:href="#DejaVuSans-35" x="159.033203"/>
     </g>
    </g>
    <g id="line2d_75">
     <path d="M 381.252508 142.205875 
L 393.752508 142.205875 
L 406.252508 142.205875 
" style="fill: none; stroke: #2ca02c; stroke-width: 2.5; stroke-linecap: square"/>
    </g>
    <g id="text_28">
     <!-- 25.0 -->
     <g transform="translate(416.252508 146.580875) scale(0.125 -0.125)">
      <use xlink:href="#DejaVuSans-32"/>
      <use xlink:href="#DejaVuSans-35" x="63.623047"/>
      <use xlink:href="#DejaVuSans-2e" x="127.246094"/>
      <use xlink:href="#DejaVuSans-30" x="159.033203"/>
     </g>
    </g>
    <g id="line2d_76">
     <path d="M 381.252508 160.553531 
L 393.752508 160.553531 
L 406.252508 160.553531 
" style="fill: none; stroke: #d62728; stroke-width: 2.5; stroke-linecap: square"/>
    </g>
    <g id="text_29">
     <!-- 50.0 -->
     <g transform="translate(416.252508 164.928531) scale(0.125 -0.125)">
      <use xlink:href="#DejaVuSans-35"/>
      <use xlink:href="#DejaVuSans-30" x="63.623047"/>
      <use xlink:href="#DejaVuSans-2e" x="127.246094"/>
      <use xlink:href="#DejaVuSans-30" x="159.033203"/>
     </g>
    </g>
   </g>
  </g>
 </g>
 <defs>
  <clipPath id="p567214384c">
   <rect x="67.7" y="13.5" width="209.624671" height="222.568"/>
  </clipPath>
  <clipPath id="p3ff28b0adf">
   <rect x="354.287665" y="13.5" width="496.212335" height="222.568"/>
  </clipPath>
 </defs>
</svg>
