<?xml version="1.0" encoding="utf-8" standalone="no"?>
<!DOCTYPE svg PUBLIC "-//W3C//DTD SVG 1.1//EN"
  "http://www.w3.org/Graphics/SVG/1.1/DTD/svg11.dtd">
<svg xmlns:xlink="http://www.w3.org/1999/xlink" width="864pt" height="288pt" viewBox="0 0 864 288" xmlns="http://www.w3.org/2000/svg" version="1.1">
 <metadata>
  <rdf:RDF xmlns:dc="http://purl.org/dc/elements/1.1/" xmlns:cc="http://creativecommons.org/ns#" xmlns:rdf="http://www.w3.org/1999/02/22-rdf-syntax-ns#">
   <cc:Work>
    <dc:type rdf:resource="http://purl.org/dc/dcmitype/StillImage"/>
    <dc:date>2023-09-26T19:54:17.111913</dc:date>
    <dc:format>image/svg+xml</dc:format>
    <dc:creator>
     <cc:Agent>
      <dc:title>Matplotlib v3.7.0, https://matplotlib.org/</dc:title>
     </cc:Agent>
    </dc:creator>
   </cc:Work>
  </rdf:RDF>
 </metadata>
 <defs>
  <style type="text/css">*{stroke-linejoin: round; stroke-linecap: butt}</style>
 </defs>
 <g id="figure_1">
  <g id="patch_1">
   <path d="M 0 288 
L 864 288 
L 864 0 
L 0 0 
z
" style="fill: #ffffff"/>
  </g>
  <g id="axes_1">
   <g id="patch_2">
    <path d="M 53.3 237.58 
L 850.5 237.58 
L 850.5 13.5 
L 53.3 13.5 
z
" style="fill: #ffffff"/>
   </g>
   <g id="matplotlib.axis_1">
    <g id="xtick_1">
     <g id="line2d_1">
      <path d="M 53.3 237.58 
L 53.3 13.5 
" clip-path="url(#p7a4bd5762b)" style="fill: none; stroke: #b0b0b0; stroke-width: 0.8; stroke-linecap: square"/>
     </g>
     <g id="line2d_2">
      <defs>
       <path id="ma2785278da" d="M 0 0 
L 0 3.5 
" style="stroke: #000000; stroke-width: 0.8"/>
      </defs>
      <g>
       <use xlink:href="#ma2785278da" x="53.3" y="237.58" style="stroke: #000000; stroke-width: 0.8"/>
      </g>
     </g>
     <g id="text_1">
      <!-- 0 -->
      <g transform="translate(49.323438 254.078047) scale(0.125 -0.125)">
       <defs>
        <path id="DejaVuSans-30" d="M 2034 4250 
Q 1547 4250 1301 3770 
Q 1056 3291 1056 2328 
Q 1056 1369 1301 889 
Q 1547 409 2034 409 
Q 2525 409 2770 889 
Q 3016 1369 3016 2328 
Q 3016 3291 2770 3770 
Q 2525 4250 2034 4250 
z
M 2034 4750 
Q 2819 4750 3233 4129 
Q 3647 3509 3647 2328 
Q 3647 1150 3233 529 
Q 2819 -91 2034 -91 
Q 1250 -91 836 529 
Q 422 1150 422 2328 
Q 422 3509 836 4129 
Q 1250 4750 2034 4750 
z
" transform="scale(0.015625)"/>
       </defs>
       <use xlink:href="#DejaVuSans-30"/>
      </g>
     </g>
    </g>
    <g id="xtick_2">
     <g id="line2d_3">
      <path d="M 213.052016 237.58 
L 213.052016 13.5 
" clip-path="url(#p7a4bd5762b)" style="fill: none; stroke: #b0b0b0; stroke-width: 0.8; stroke-linecap: square"/>
     </g>
     <g id="line2d_4">
      <g>
       <use xlink:href="#ma2785278da" x="213.052016" y="237.58" style="stroke: #000000; stroke-width: 0.8"/>
      </g>
     </g>
     <g id="text_2">
      <!-- 20 -->
      <g transform="translate(205.098891 254.078047) scale(0.125 -0.125)">
       <defs>
        <path id="DejaVuSans-32" d="M 1228 531 
L 3431 531 
L 3431 0 
L 469 0 
L 469 531 
Q 828 903 1448 1529 
Q 2069 2156 2228 2338 
Q 2531 2678 2651 2914 
Q 2772 3150 2772 3378 
Q 2772 3750 2511 3984 
Q 2250 4219 1831 4219 
Q 1534 4219 1204 4116 
Q 875 4013 500 3803 
L 500 4441 
Q 881 4594 1212 4672 
Q 1544 4750 1819 4750 
Q 2544 4750 2975 4387 
Q 3406 4025 3406 3419 
Q 3406 3131 3298 2873 
Q 3191 2616 2906 2266 
Q 2828 2175 2409 1742 
Q 1991 1309 1228 531 
z
" transform="scale(0.015625)"/>
       </defs>
       <use xlink:href="#DejaVuSans-32"/>
       <use xlink:href="#DejaVuSans-30" x="63.623047"/>
      </g>
     </g>
    </g>
    <g id="xtick_3">
     <g id="line2d_5">
      <path d="M 372.804031 237.58 
L 372.804031 13.5 
" clip-path="url(#p7a4bd5762b)" style="fill: none; stroke: #b0b0b0; stroke-width: 0.8; stroke-linecap: square"/>
     </g>
     <g id="line2d_6">
      <g>
       <use xlink:href="#ma2785278da" x="372.804031" y="237.58" style="stroke: #000000; stroke-width: 0.8"/>
      </g>
     </g>
     <g id="text_3">
      <!-- 40 -->
      <g transform="translate(364.850906 254.078047) scale(0.125 -0.125)">
       <defs>
        <path id="DejaVuSans-34" d="M 2419 4116 
L 825 1625 
L 2419 1625 
L 2419 4116 
z
M 2253 4666 
L 3047 4666 
L 3047 1625 
L 3713 1625 
L 3713 1100 
L 3047 1100 
L 3047 0 
L 2419 0 
L 2419 1100 
L 313 1100 
L 313 1709 
L 2253 4666 
z
" transform="scale(0.015625)"/>
       </defs>
       <use xlink:href="#DejaVuSans-34"/>
       <use xlink:href="#DejaVuSans-30" x="63.623047"/>
      </g>
     </g>
    </g>
    <g id="xtick_4">
     <g id="line2d_7">
      <path d="M 532.556047 237.58 
L 532.556047 13.5 
" clip-path="url(#p7a4bd5762b)" style="fill: none; stroke: #b0b0b0; stroke-width: 0.8; stroke-linecap: square"/>
     </g>
     <g id="line2d_8">
      <g>
       <use xlink:href="#ma2785278da" x="532.556047" y="237.58" style="stroke: #000000; stroke-width: 0.8"/>
      </g>
     </g>
     <g id="text_4">
      <!-- 60 -->
      <g transform="translate(524.602922 254.078047) scale(0.125 -0.125)">
       <defs>
        <path id="DejaVuSans-36" d="M 2113 2584 
Q 1688 2584 1439 2293 
Q 1191 2003 1191 1497 
Q 1191 994 1439 701 
Q 1688 409 2113 409 
Q 2538 409 2786 701 
Q 3034 994 3034 1497 
Q 3034 2003 2786 2293 
Q 2538 2584 2113 2584 
z
M 3366 4563 
L 3366 3988 
Q 3128 4100 2886 4159 
Q 2644 4219 2406 4219 
Q 1781 4219 1451 3797 
Q 1122 3375 1075 2522 
Q 1259 2794 1537 2939 
Q 1816 3084 2150 3084 
Q 2853 3084 3261 2657 
Q 3669 2231 3669 1497 
Q 3669 778 3244 343 
Q 2819 -91 2113 -91 
Q 1303 -91 875 529 
Q 447 1150 447 2328 
Q 447 3434 972 4092 
Q 1497 4750 2381 4750 
Q 2619 4750 2861 4703 
Q 3103 4656 3366 4563 
z
" transform="scale(0.015625)"/>
       </defs>
       <use xlink:href="#DejaVuSans-36"/>
       <use xlink:href="#DejaVuSans-30" x="63.623047"/>
      </g>
     </g>
    </g>
    <g id="xtick_5">
     <g id="line2d_9">
      <path d="M 692.308063 237.58 
L 692.308063 13.5 
" clip-path="url(#p7a4bd5762b)" style="fill: none; stroke: #b0b0b0; stroke-width: 0.8; stroke-linecap: square"/>
     </g>
     <g id="line2d_10">
      <g>
       <use xlink:href="#ma2785278da" x="692.308063" y="237.58" style="stroke: #000000; stroke-width: 0.8"/>
      </g>
     </g>
     <g id="text_5">
      <!-- 80 -->
      <g transform="translate(684.354938 254.078047) scale(0.125 -0.125)">
       <defs>
        <path id="DejaVuSans-38" d="M 2034 2216 
Q 1584 2216 1326 1975 
Q 1069 1734 1069 1313 
Q 1069 891 1326 650 
Q 1584 409 2034 409 
Q 2484 409 2743 651 
Q 3003 894 3003 1313 
Q 3003 1734 2745 1975 
Q 2488 2216 2034 2216 
z
M 1403 2484 
Q 997 2584 770 2862 
Q 544 3141 544 3541 
Q 544 4100 942 4425 
Q 1341 4750 2034 4750 
Q 2731 4750 3128 4425 
Q 3525 4100 3525 3541 
Q 3525 3141 3298 2862 
Q 3072 2584 2669 2484 
Q 3125 2378 3379 2068 
Q 3634 1759 3634 1313 
Q 3634 634 3220 271 
Q 2806 -91 2034 -91 
Q 1263 -91 848 271 
Q 434 634 434 1313 
Q 434 1759 690 2068 
Q 947 2378 1403 2484 
z
M 1172 3481 
Q 1172 3119 1398 2916 
Q 1625 2713 2034 2713 
Q 2441 2713 2670 2916 
Q 2900 3119 2900 3481 
Q 2900 3844 2670 4047 
Q 2441 4250 2034 4250 
Q 1625 4250 1398 4047 
Q 1172 3844 1172 3481 
z
" transform="scale(0.015625)"/>
       </defs>
       <use xlink:href="#DejaVuSans-38"/>
       <use xlink:href="#DejaVuSans-30" x="63.623047"/>
      </g>
     </g>
    </g>
    <g id="text_6">
     <!-- Frequency (Hz) -->
     <g transform="translate(404.769141 270.175703) scale(0.125 -0.125)">
      <defs>
       <path id="DejaVuSans-46" d="M 628 4666 
L 3309 4666 
L 3309 4134 
L 1259 4134 
L 1259 2759 
L 3109 2759 
L 3109 2228 
L 1259 2228 
L 1259 0 
L 628 0 
L 628 4666 
z
" transform="scale(0.015625)"/>
       <path id="DejaVuSans-72" d="M 2631 2963 
Q 2534 3019 2420 3045 
Q 2306 3072 2169 3072 
Q 1681 3072 1420 2755 
Q 1159 2438 1159 1844 
L 1159 0 
L 581 0 
L 581 3500 
L 1159 3500 
L 1159 2956 
Q 1341 3275 1631 3429 
Q 1922 3584 2338 3584 
Q 2397 3584 2469 3576 
Q 2541 3569 2628 3553 
L 2631 2963 
z
" transform="scale(0.015625)"/>
       <path id="DejaVuSans-65" d="M 3597 1894 
L 3597 1613 
L 953 1613 
Q 991 1019 1311 708 
Q 1631 397 2203 397 
Q 2534 397 2845 478 
Q 3156 559 3463 722 
L 3463 178 
Q 3153 47 2828 -22 
Q 2503 -91 2169 -91 
Q 1331 -91 842 396 
Q 353 884 353 1716 
Q 353 2575 817 3079 
Q 1281 3584 2069 3584 
Q 2775 3584 3186 3129 
Q 3597 2675 3597 1894 
z
M 3022 2063 
Q 3016 2534 2758 2815 
Q 2500 3097 2075 3097 
Q 1594 3097 1305 2825 
Q 1016 2553 972 2059 
L 3022 2063 
z
" transform="scale(0.015625)"/>
       <path id="DejaVuSans-71" d="M 947 1747 
Q 947 1113 1208 752 
Q 1469 391 1925 391 
Q 2381 391 2643 752 
Q 2906 1113 2906 1747 
Q 2906 2381 2643 2742 
Q 2381 3103 1925 3103 
Q 1469 3103 1208 2742 
Q 947 2381 947 1747 
z
M 2906 525 
Q 2725 213 2448 61 
Q 2172 -91 1784 -91 
Q 1150 -91 751 415 
Q 353 922 353 1747 
Q 353 2572 751 3078 
Q 1150 3584 1784 3584 
Q 2172 3584 2448 3432 
Q 2725 3281 2906 2969 
L 2906 3500 
L 3481 3500 
L 3481 -1331 
L 2906 -1331 
L 2906 525 
z
" transform="scale(0.015625)"/>
       <path id="DejaVuSans-75" d="M 544 1381 
L 544 3500 
L 1119 3500 
L 1119 1403 
Q 1119 906 1312 657 
Q 1506 409 1894 409 
Q 2359 409 2629 706 
Q 2900 1003 2900 1516 
L 2900 3500 
L 3475 3500 
L 3475 0 
L 2900 0 
L 2900 538 
Q 2691 219 2414 64 
Q 2138 -91 1772 -91 
Q 1169 -91 856 284 
Q 544 659 544 1381 
z
M 1991 3584 
L 1991 3584 
z
" transform="scale(0.015625)"/>
       <path id="DejaVuSans-6e" d="M 3513 2113 
L 3513 0 
L 2938 0 
L 2938 2094 
Q 2938 2591 2744 2837 
Q 2550 3084 2163 3084 
Q 1697 3084 1428 2787 
Q 1159 2491 1159 1978 
L 1159 0 
L 581 0 
L 581 3500 
L 1159 3500 
L 1159 2956 
Q 1366 3272 1645 3428 
Q 1925 3584 2291 3584 
Q 2894 3584 3203 3211 
Q 3513 2838 3513 2113 
z
" transform="scale(0.015625)"/>
       <path id="DejaVuSans-63" d="M 3122 3366 
L 3122 2828 
Q 2878 2963 2633 3030 
Q 2388 3097 2138 3097 
Q 1578 3097 1268 2742 
Q 959 2388 959 1747 
Q 959 1106 1268 751 
Q 1578 397 2138 397 
Q 2388 397 2633 464 
Q 2878 531 3122 666 
L 3122 134 
Q 2881 22 2623 -34 
Q 2366 -91 2075 -91 
Q 1284 -91 818 406 
Q 353 903 353 1747 
Q 353 2603 823 3093 
Q 1294 3584 2113 3584 
Q 2378 3584 2631 3529 
Q 2884 3475 3122 3366 
z
" transform="scale(0.015625)"/>
       <path id="DejaVuSans-79" d="M 2059 -325 
Q 1816 -950 1584 -1140 
Q 1353 -1331 966 -1331 
L 506 -1331 
L 506 -850 
L 844 -850 
Q 1081 -850 1212 -737 
Q 1344 -625 1503 -206 
L 1606 56 
L 191 3500 
L 800 3500 
L 1894 763 
L 2988 3500 
L 3597 3500 
L 2059 -325 
z
" transform="scale(0.015625)"/>
       <path id="DejaVuSans-20" transform="scale(0.015625)"/>
       <path id="DejaVuSans-28" d="M 1984 4856 
Q 1566 4138 1362 3434 
Q 1159 2731 1159 2009 
Q 1159 1288 1364 580 
Q 1569 -128 1984 -844 
L 1484 -844 
Q 1016 -109 783 600 
Q 550 1309 550 2009 
Q 550 2706 781 3412 
Q 1013 4119 1484 4856 
L 1984 4856 
z
" transform="scale(0.015625)"/>
       <path id="DejaVuSans-48" d="M 628 4666 
L 1259 4666 
L 1259 2753 
L 3553 2753 
L 3553 4666 
L 4184 4666 
L 4184 0 
L 3553 0 
L 3553 2222 
L 1259 2222 
L 1259 0 
L 628 0 
L 628 4666 
z
" transform="scale(0.015625)"/>
       <path id="DejaVuSans-7a" d="M 353 3500 
L 3084 3500 
L 3084 2975 
L 922 459 
L 3084 459 
L 3084 0 
L 275 0 
L 275 525 
L 2438 3041 
L 353 3041 
L 353 3500 
z
" transform="scale(0.015625)"/>
       <path id="DejaVuSans-29" d="M 513 4856 
L 1013 4856 
Q 1481 4119 1714 3412 
Q 1947 2706 1947 2009 
Q 1947 1309 1714 600 
Q 1481 -109 1013 -844 
L 513 -844 
Q 928 -128 1133 580 
Q 1338 1288 1338 2009 
Q 1338 2731 1133 3434 
Q 928 4138 513 4856 
z
" transform="scale(0.015625)"/>
      </defs>
      <use xlink:href="#DejaVuSans-46"/>
      <use xlink:href="#DejaVuSans-72" x="50.269531"/>
      <use xlink:href="#DejaVuSans-65" x="89.132812"/>
      <use xlink:href="#DejaVuSans-71" x="150.65625"/>
      <use xlink:href="#DejaVuSans-75" x="214.132812"/>
      <use xlink:href="#DejaVuSans-65" x="277.511719"/>
      <use xlink:href="#DejaVuSans-6e" x="339.035156"/>
      <use xlink:href="#DejaVuSans-63" x="402.414062"/>
      <use xlink:href="#DejaVuSans-79" x="457.394531"/>
      <use xlink:href="#DejaVuSans-20" x="516.574219"/>
      <use xlink:href="#DejaVuSans-28" x="548.361328"/>
      <use xlink:href="#DejaVuSans-48" x="587.375"/>
      <use xlink:href="#DejaVuSans-7a" x="662.570312"/>
      <use xlink:href="#DejaVuSans-29" x="715.060547"/>
     </g>
    </g>
   </g>
   <g id="matplotlib.axis_2">
    <g id="ytick_1">
     <g id="line2d_11">
      <path d="M 53.3 237.58 
L 850.5 237.58 
" clip-path="url(#p7a4bd5762b)" style="fill: none; stroke: #b0b0b0; stroke-width: 0.8; stroke-linecap: square"/>
     </g>
     <g id="line2d_12">
      <defs>
       <path id="m351775d7e8" d="M 0 0 
L -3.5 0 
" style="stroke: #000000; stroke-width: 0.8"/>
      </defs>
      <g>
       <use xlink:href="#m351775d7e8" x="53.3" y="237.58" style="stroke: #000000; stroke-width: 0.8"/>
      </g>
     </g>
     <g id="text_7">
      <!-- 0 -->
      <g transform="translate(38.346875 242.329023) scale(0.125 -0.125)">
       <use xlink:href="#DejaVuSans-30"/>
      </g>
     </g>
    </g>
    <g id="ytick_2">
     <g id="line2d_13">
      <path d="M 53.3 207.702667 
L 850.5 207.702667 
" clip-path="url(#p7a4bd5762b)" style="fill: none; stroke: #b0b0b0; stroke-width: 0.8; stroke-linecap: square"/>
     </g>
     <g id="line2d_14">
      <g>
       <use xlink:href="#m351775d7e8" x="53.3" y="207.702667" style="stroke: #000000; stroke-width: 0.8"/>
      </g>
     </g>
     <g id="text_8">
      <!-- 2 -->
      <g transform="translate(38.346875 212.45169) scale(0.125 -0.125)">
       <use xlink:href="#DejaVuSans-32"/>
      </g>
     </g>
    </g>
    <g id="ytick_3">
     <g id="line2d_15">
      <path d="M 53.3 177.825333 
L 850.5 177.825333 
" clip-path="url(#p7a4bd5762b)" style="fill: none; stroke: #b0b0b0; stroke-width: 0.8; stroke-linecap: square"/>
     </g>
     <g id="line2d_16">
      <g>
       <use xlink:href="#m351775d7e8" x="53.3" y="177.825333" style="stroke: #000000; stroke-width: 0.8"/>
      </g>
     </g>
     <g id="text_9">
      <!-- 4 -->
      <g transform="translate(38.346875 182.574357) scale(0.125 -0.125)">
       <use xlink:href="#DejaVuSans-34"/>
      </g>
     </g>
    </g>
    <g id="ytick_4">
     <g id="line2d_17">
      <path d="M 53.3 147.948 
L 850.5 147.948 
" clip-path="url(#p7a4bd5762b)" style="fill: none; stroke: #b0b0b0; stroke-width: 0.8; stroke-linecap: square"/>
     </g>
     <g id="line2d_18">
      <g>
       <use xlink:href="#m351775d7e8" x="53.3" y="147.948" style="stroke: #000000; stroke-width: 0.8"/>
      </g>
     </g>
     <g id="text_10">
      <!-- 6 -->
      <g transform="translate(38.346875 152.697023) scale(0.125 -0.125)">
       <use xlink:href="#DejaVuSans-36"/>
      </g>
     </g>
    </g>
    <g id="ytick_5">
     <g id="line2d_19">
      <path d="M 53.3 118.070667 
L 850.5 118.070667 
" clip-path="url(#p7a4bd5762b)" style="fill: none; stroke: #b0b0b0; stroke-width: 0.8; stroke-linecap: square"/>
     </g>
     <g id="line2d_20">
      <g>
       <use xlink:href="#m351775d7e8" x="53.3" y="118.070667" style="stroke: #000000; stroke-width: 0.8"/>
      </g>
     </g>
     <g id="text_11">
      <!-- 8 -->
      <g transform="translate(38.346875 122.81969) scale(0.125 -0.125)">
       <use xlink:href="#DejaVuSans-38"/>
      </g>
     </g>
    </g>
    <g id="ytick_6">
     <g id="line2d_21">
      <path d="M 53.3 88.193333 
L 850.5 88.193333 
" clip-path="url(#p7a4bd5762b)" style="fill: none; stroke: #b0b0b0; stroke-width: 0.8; stroke-linecap: square"/>
     </g>
     <g id="line2d_22">
      <g>
       <use xlink:href="#m351775d7e8" x="53.3" y="88.193333" style="stroke: #000000; stroke-width: 0.8"/>
      </g>
     </g>
     <g id="text_12">
      <!-- 10 -->
      <g transform="translate(30.39375 92.942357) scale(0.125 -0.125)">
       <defs>
        <path id="DejaVuSans-31" d="M 794 531 
L 1825 531 
L 1825 4091 
L 703 3866 
L 703 4441 
L 1819 4666 
L 2450 4666 
L 2450 531 
L 3481 531 
L 3481 0 
L 794 0 
L 794 531 
z
" transform="scale(0.015625)"/>
       </defs>
       <use xlink:href="#DejaVuSans-31"/>
       <use xlink:href="#DejaVuSans-30" x="63.623047"/>
      </g>
     </g>
    </g>
    <g id="ytick_7">
     <g id="line2d_23">
      <path d="M 53.3 58.316 
L 850.5 58.316 
" clip-path="url(#p7a4bd5762b)" style="fill: none; stroke: #b0b0b0; stroke-width: 0.8; stroke-linecap: square"/>
     </g>
     <g id="line2d_24">
      <g>
       <use xlink:href="#m351775d7e8" x="53.3" y="58.316" style="stroke: #000000; stroke-width: 0.8"/>
      </g>
     </g>
     <g id="text_13">
      <!-- 12 -->
      <g transform="translate(30.39375 63.065023) scale(0.125 -0.125)">
       <use xlink:href="#DejaVuSans-31"/>
       <use xlink:href="#DejaVuSans-32" x="63.623047"/>
      </g>
     </g>
    </g>
    <g id="ytick_8">
     <g id="line2d_25">
      <path d="M 53.3 28.438667 
L 850.5 28.438667 
" clip-path="url(#p7a4bd5762b)" style="fill: none; stroke: #b0b0b0; stroke-width: 0.8; stroke-linecap: square"/>
     </g>
     <g id="line2d_26">
      <g>
       <use xlink:href="#m351775d7e8" x="53.3" y="28.438667" style="stroke: #000000; stroke-width: 0.8"/>
      </g>
     </g>
     <g id="text_14">
      <!-- 14 -->
      <g transform="translate(30.39375 33.18769) scale(0.125 -0.125)">
       <use xlink:href="#DejaVuSans-31"/>
       <use xlink:href="#DejaVuSans-34" x="63.623047"/>
      </g>
     </g>
    </g>
    <g id="text_15">
     <!-- Frequency Response (dB) -->
     <g transform="translate(23.794141 204.950156) rotate(-90) scale(0.125 -0.125)">
      <defs>
       <path id="DejaVuSans-52" d="M 2841 2188 
Q 3044 2119 3236 1894 
Q 3428 1669 3622 1275 
L 4263 0 
L 3584 0 
L 2988 1197 
Q 2756 1666 2539 1819 
Q 2322 1972 1947 1972 
L 1259 1972 
L 1259 0 
L 628 0 
L 628 4666 
L 2053 4666 
Q 2853 4666 3247 4331 
Q 3641 3997 3641 3322 
Q 3641 2881 3436 2590 
Q 3231 2300 2841 2188 
z
M 1259 4147 
L 1259 2491 
L 2053 2491 
Q 2509 2491 2742 2702 
Q 2975 2913 2975 3322 
Q 2975 3731 2742 3939 
Q 2509 4147 2053 4147 
L 1259 4147 
z
" transform="scale(0.015625)"/>
       <path id="DejaVuSans-73" d="M 2834 3397 
L 2834 2853 
Q 2591 2978 2328 3040 
Q 2066 3103 1784 3103 
Q 1356 3103 1142 2972 
Q 928 2841 928 2578 
Q 928 2378 1081 2264 
Q 1234 2150 1697 2047 
L 1894 2003 
Q 2506 1872 2764 1633 
Q 3022 1394 3022 966 
Q 3022 478 2636 193 
Q 2250 -91 1575 -91 
Q 1294 -91 989 -36 
Q 684 19 347 128 
L 347 722 
Q 666 556 975 473 
Q 1284 391 1588 391 
Q 1994 391 2212 530 
Q 2431 669 2431 922 
Q 2431 1156 2273 1281 
Q 2116 1406 1581 1522 
L 1381 1569 
Q 847 1681 609 1914 
Q 372 2147 372 2553 
Q 372 3047 722 3315 
Q 1072 3584 1716 3584 
Q 2034 3584 2315 3537 
Q 2597 3491 2834 3397 
z
" transform="scale(0.015625)"/>
       <path id="DejaVuSans-70" d="M 1159 525 
L 1159 -1331 
L 581 -1331 
L 581 3500 
L 1159 3500 
L 1159 2969 
Q 1341 3281 1617 3432 
Q 1894 3584 2278 3584 
Q 2916 3584 3314 3078 
Q 3713 2572 3713 1747 
Q 3713 922 3314 415 
Q 2916 -91 2278 -91 
Q 1894 -91 1617 61 
Q 1341 213 1159 525 
z
M 3116 1747 
Q 3116 2381 2855 2742 
Q 2594 3103 2138 3103 
Q 1681 3103 1420 2742 
Q 1159 2381 1159 1747 
Q 1159 1113 1420 752 
Q 1681 391 2138 391 
Q 2594 391 2855 752 
Q 3116 1113 3116 1747 
z
" transform="scale(0.015625)"/>
       <path id="DejaVuSans-6f" d="M 1959 3097 
Q 1497 3097 1228 2736 
Q 959 2375 959 1747 
Q 959 1119 1226 758 
Q 1494 397 1959 397 
Q 2419 397 2687 759 
Q 2956 1122 2956 1747 
Q 2956 2369 2687 2733 
Q 2419 3097 1959 3097 
z
M 1959 3584 
Q 2709 3584 3137 3096 
Q 3566 2609 3566 1747 
Q 3566 888 3137 398 
Q 2709 -91 1959 -91 
Q 1206 -91 779 398 
Q 353 888 353 1747 
Q 353 2609 779 3096 
Q 1206 3584 1959 3584 
z
" transform="scale(0.015625)"/>
       <path id="DejaVuSans-64" d="M 2906 2969 
L 2906 4863 
L 3481 4863 
L 3481 0 
L 2906 0 
L 2906 525 
Q 2725 213 2448 61 
Q 2172 -91 1784 -91 
Q 1150 -91 751 415 
Q 353 922 353 1747 
Q 353 2572 751 3078 
Q 1150 3584 1784 3584 
Q 2172 3584 2448 3432 
Q 2725 3281 2906 2969 
z
M 947 1747 
Q 947 1113 1208 752 
Q 1469 391 1925 391 
Q 2381 391 2643 752 
Q 2906 1113 2906 1747 
Q 2906 2381 2643 2742 
Q 2381 3103 1925 3103 
Q 1469 3103 1208 2742 
Q 947 2381 947 1747 
z
" transform="scale(0.015625)"/>
       <path id="DejaVuSans-42" d="M 1259 2228 
L 1259 519 
L 2272 519 
Q 2781 519 3026 730 
Q 3272 941 3272 1375 
Q 3272 1813 3026 2020 
Q 2781 2228 2272 2228 
L 1259 2228 
z
M 1259 4147 
L 1259 2741 
L 2194 2741 
Q 2656 2741 2882 2914 
Q 3109 3088 3109 3444 
Q 3109 3797 2882 3972 
Q 2656 4147 2194 4147 
L 1259 4147 
z
M 628 4666 
L 2241 4666 
Q 2963 4666 3353 4366 
Q 3744 4066 3744 3513 
Q 3744 3084 3544 2831 
Q 3344 2578 2956 2516 
Q 3422 2416 3680 2098 
Q 3938 1781 3938 1306 
Q 3938 681 3513 340 
Q 3088 0 2303 0 
L 628 0 
L 628 4666 
z
" transform="scale(0.015625)"/>
      </defs>
      <use xlink:href="#DejaVuSans-46"/>
      <use xlink:href="#DejaVuSans-72" x="50.269531"/>
      <use xlink:href="#DejaVuSans-65" x="89.132812"/>
      <use xlink:href="#DejaVuSans-71" x="150.65625"/>
      <use xlink:href="#DejaVuSans-75" x="214.132812"/>
      <use xlink:href="#DejaVuSans-65" x="277.511719"/>
      <use xlink:href="#DejaVuSans-6e" x="339.035156"/>
      <use xlink:href="#DejaVuSans-63" x="402.414062"/>
      <use xlink:href="#DejaVuSans-79" x="457.394531"/>
      <use xlink:href="#DejaVuSans-20" x="516.574219"/>
      <use xlink:href="#DejaVuSans-52" x="548.361328"/>
      <use xlink:href="#DejaVuSans-65" x="613.34375"/>
      <use xlink:href="#DejaVuSans-73" x="674.867188"/>
      <use xlink:href="#DejaVuSans-70" x="726.966797"/>
      <use xlink:href="#DejaVuSans-6f" x="790.443359"/>
      <use xlink:href="#DejaVuSans-6e" x="851.625"/>
      <use xlink:href="#DejaVuSans-73" x="915.003906"/>
      <use xlink:href="#DejaVuSans-65" x="967.103516"/>
      <use xlink:href="#DejaVuSans-20" x="1028.626953"/>
      <use xlink:href="#DejaVuSans-28" x="1060.414062"/>
      <use xlink:href="#DejaVuSans-64" x="1099.427734"/>
      <use xlink:href="#DejaVuSans-42" x="1162.904297"/>
      <use xlink:href="#DejaVuSans-29" x="1231.507812"/>
     </g>
    </g>
   </g>
   <g id="line2d_27">
    <path d="M 53.3 62.296423 
L 54.860078 62.548589 
L 56.420157 63.293524 
L 57.980235 64.498255 
L 59.540313 66.113015 
L 61.100391 68.077504 
L 62.66047 70.32729 
L 65.780626 75.435156 
L 70.460861 83.858614 
L 76.701174 95.166246 
L 81.381409 103.173715 
L 86.061644 110.627858 
L 90.741879 117.519309 
L 95.422114 123.882415 
L 100.102348 129.766131 
L 104.782583 135.221279 
L 109.462818 140.295388 
L 114.143053 145.030956 
L 118.823288 149.465205 
L 123.503523 153.630435 
L 128.183757 157.554589 
L 134.42407 162.453102 
L 140.664384 167.014287 
L 146.904697 171.278592 
L 153.14501 175.279874 
L 159.385323 179.046677 
L 167.185714 183.462029 
L 174.986106 187.588419 
L 182.786497 191.458894 
L 190.586888 195.101157 
L 199.947358 199.203374 
L 209.307828 203.044571 
L 218.668297 206.653159 
L 229.588845 210.600914 
L 240.509393 214.296427 
L 251.429941 217.766387 
L 263.910568 221.484612 
L 276.391194 224.965899 
L 290.431898 228.628649 
L 304.472603 232.05009 
L 318.513307 235.254154 
L 334.11409 238.583834 
L 349.714873 241.693681 
L 366.875734 244.884346 
L 384.036595 247.855644 
L 402.757534 250.869243 
L 421.478474 253.665515 
L 441.759491 256.470232 
L 463.600587 259.25097 
L 485.441683 261.802961 
L 508.842857 264.302953 
L 532.244031 266.5781 
L 557.205284 268.774174 
L 582.166536 270.747273 
L 608.687867 272.614035 
L 635.209198 274.257117 
L 663.290607 275.765277 
L 691.372016 277.045835 
L 719.453425 278.107593 
L 749.094912 278.998719 
L 778.736399 279.660273 
L 808.377886 280.096886 
L 838.019374 280.311563 
L 850.5 280.335963 
L 850.5 280.335963 
" clip-path="url(#p7a4bd5762b)" style="fill: none; stroke: #1f77b4; stroke-width: 2.5; stroke-linecap: square"/>
   </g>
   <g id="line2d_28">
    <path d="M 53.3 120.97574 
L 57.980235 114.371704 
L 62.66047 107.220234 
L 67.340705 99.502243 
L 72.020939 91.265973 
L 81.381409 74.364525 
L 84.501566 69.397263 
L 86.061644 67.253841 
L 87.621722 65.421608 
L 89.1818 63.964065 
L 90.741879 62.938091 
L 92.301957 62.387429 
L 93.862035 62.336901 
L 95.422114 62.788836 
L 96.982192 63.722715 
L 98.54227 65.098168 
L 100.102348 66.860423 
L 101.662427 68.946797 
L 104.782583 73.836928 
L 107.90274 79.305739 
L 118.823288 98.968129 
L 123.503523 106.723283 
L 128.183757 113.912377 
L 132.863992 120.551672 
L 137.544227 126.684675 
L 142.224462 132.362201 
L 146.904697 137.633905 
L 151.584932 142.545064 
L 156.265166 147.135695 
L 160.945401 151.440662 
L 165.625636 155.490156 
L 171.865949 160.536697 
L 178.106262 165.22754 
L 184.346575 169.606198 
L 190.586888 173.708991 
L 196.827202 177.566456 
L 203.067515 181.204448 
L 210.867906 185.476584 
L 218.668297 189.476368 
L 226.468689 193.234129 
L 234.26908 196.775403 
L 243.62955 200.769472 
L 252.99002 204.514489 
L 262.350489 208.036954 
L 273.271037 211.894919 
L 284.191585 215.510322 
L 295.112133 218.908321 
L 307.592759 222.552714 
L 320.073386 225.967745 
L 334.11409 229.563566 
L 348.154795 232.924865 
L 363.755577 236.41229 
L 379.35636 239.664779 
L 396.517221 242.997628 
L 413.678082 246.098051 
L 432.399022 249.239923 
L 451.119961 252.153325 
L 471.400978 255.074281 
L 491.681996 257.771031 
L 513.523092 260.444871 
L 535.364188 262.898208 
L 558.765362 265.300242 
L 582.166536 267.484224 
L 607.127789 269.589384 
L 632.089041 271.477096 
L 658.610372 273.258222 
L 685.131703 274.820061 
L 713.213112 276.246167 
L 741.294521 277.448017 
L 769.37593 278.43376 
L 799.017417 279.246933 
L 828.658904 279.832284 
L 850.5 280.120251 
L 850.5 280.120251 
" clip-path="url(#p7a4bd5762b)" style="fill: none; stroke: #ff7f0e; stroke-width: 2.5; stroke-linecap: square"/>
   </g>
   <g id="line2d_29">
    <path d="M 53.3 161.501812 
L 59.540313 156.530293 
L 64.220548 152.544361 
L 68.900783 148.310293 
L 73.581018 143.799044 
L 78.261252 138.977053 
L 82.941487 133.805709 
L 87.621722 128.241108 
L 92.301957 122.23458 
L 96.982192 115.735083 
L 101.662427 108.695846 
L 106.342661 101.09034 
L 111.022896 92.948218 
L 121.943444 73.315015 
L 125.063601 68.506706 
L 126.623679 66.479975 
L 128.183757 64.790224 
L 129.743836 63.499074 
L 131.303914 62.658923 
L 132.863992 62.306547 
L 134.42407 62.458035 
L 135.984149 63.10642 
L 137.544227 64.22272 
L 139.104305 65.760057 
L 140.664384 67.659709 
L 142.224462 69.857595 
L 145.344618 74.897399 
L 150.024853 83.286228 
L 156.265166 94.614625 
L 160.945401 102.656579 
L 165.625636 110.148643 
L 170.305871 117.076815 
L 174.986106 123.473691 
L 179.666341 129.387768 
L 184.346575 134.869958 
L 189.02681 139.968088 
L 193.707045 144.72501 
L 198.38728 149.17829 
L 203.067515 153.360541 
L 207.74775 157.299976 
L 213.988063 162.216556 
L 220.228376 166.793586 
L 226.468689 171.071882 
L 232.709002 175.085597 
L 238.949315 178.863517 
L 246.749706 183.291204 
L 254.550098 187.428478 
L 262.350489 191.308626 
L 270.150881 194.959542 
L 279.51135 199.071011 
L 288.87182 202.920423 
L 298.23229 206.536357 
L 309.152838 210.49176 
L 320.073386 214.194087 
L 330.993933 217.670162 
L 343.47456 221.394652 
L 355.955186 224.881555 
L 368.435812 228.154796 
L 382.476517 231.606939 
L 396.517221 234.838743 
L 412.118004 238.196307 
L 427.718787 241.331417 
L 444.879648 244.547307 
L 462.040509 247.541552 
L 480.761448 250.577984 
L 499.482387 253.395136 
L 519.763405 256.220606 
L 540.044423 258.829626 
L 561.885519 261.416347 
L 585.286693 263.950754 
L 608.687867 266.257867 
L 633.649119 268.485758 
L 658.610372 270.488687 
L 685.131703 272.385312 
L 711.653033 274.056676 
L 739.734442 275.593352 
L 767.815851 276.901218 
L 795.89726 277.989308 
L 825.538748 278.907393 
L 850.5 279.501738 
L 850.5 279.501738 
" clip-path="url(#p7a4bd5762b)" style="fill: none; stroke: #2ca02c; stroke-width: 2.5; stroke-linecap: square"/>
   </g>
   <g id="line2d_30">
    <path d="M 53.3 186.622573 
L 61.100391 182.430074 
L 68.900783 177.93974 
L 75.141096 174.105317 
L 81.381409 170.028346 
L 87.621722 165.678804 
L 93.862035 161.021006 
L 100.102348 156.012232 
L 104.782583 151.994746 
L 109.462818 147.725492 
L 114.143053 143.174855 
L 118.823288 138.308629 
L 123.503523 133.087503 
L 128.183757 127.466878 
L 132.863992 121.397571 
L 137.544227 114.828589 
L 142.224462 107.714644 
L 146.904697 100.034001 
L 151.584932 91.828351 
L 160.945401 74.897399 
L 164.065558 69.857595 
L 165.625636 67.659709 
L 167.185714 65.760057 
L 168.745793 64.22272 
L 170.305871 63.10642 
L 171.865949 62.458035 
L 173.426027 62.306547 
L 174.986106 62.658923 
L 176.546184 63.499074 
L 178.106262 64.790224 
L 179.666341 66.479975 
L 181.226419 68.506706 
L 182.786497 70.805853 
L 185.906654 75.977413 
L 190.586888 84.431289 
L 196.827202 95.715843 
L 201.507436 103.688356 
L 206.187671 111.104558 
L 210.867906 117.95945 
L 215.548141 124.289008 
L 220.228376 130.142592 
L 224.908611 135.570909 
L 229.588845 140.621185 
L 234.26908 145.335564 
L 238.949315 149.750925 
L 243.62955 153.899259 
L 248.309785 157.80824 
L 254.550098 162.688806 
L 260.790411 167.234248 
L 267.030724 171.484646 
L 273.271037 175.473566 
L 279.51135 179.229314 
L 287.311742 183.632393 
L 295.112133 187.747951 
L 302.912524 191.608797 
L 310.712916 195.242445 
L 320.073386 199.335447 
L 329.433855 203.168461 
L 338.794325 206.76973 
L 349.714873 210.709863 
L 360.635421 214.398582 
L 371.555969 217.862447 
L 384.036595 221.574424 
L 396.517221 225.050109 
L 410.557926 228.707207 
L 424.59863 232.123572 
L 438.639335 235.323048 
L 454.240117 238.648113 
L 469.8409 241.753778 
L 487.001761 244.940265 
L 504.162622 247.907761 
L 522.883562 250.917575 
L 541.604501 253.710384 
L 561.885519 256.511658 
L 583.726614 259.288993 
L 605.56771 261.837848 
L 628.968885 264.334731 
L 652.370059 266.606988 
L 677.331311 268.800184 
L 702.292564 270.770584 
L 728.813894 272.634642 
L 755.335225 274.275162 
L 783.416634 275.780738 
L 811.498043 277.05882 
L 839.579452 278.118189 
L 850.5 278.472663 
L 850.5 278.472663 
" clip-path="url(#p7a4bd5762b)" style="fill: none; stroke: #d62728; stroke-width: 2.5; stroke-linecap: square"/>
   </g>
   <g id="line2d_31">
    <path d="M 53.3 204.514489 
L 62.66047 200.769472 
L 72.020939 196.775403 
L 79.821331 193.234129 
L 87.621722 189.476368 
L 95.422114 185.476584 
L 103.222505 181.204448 
L 109.462818 177.566456 
L 115.703131 173.708991 
L 121.943444 169.606198 
L 128.183757 165.22754 
L 134.42407 160.536697 
L 140.664384 155.490156 
L 145.344618 151.440662 
L 150.024853 147.135695 
L 154.705088 142.545064 
L 159.385323 137.633905 
L 164.065558 132.362201 
L 168.745793 126.684675 
L 173.426027 120.551672 
L 178.106262 113.912377 
L 182.786497 106.723283 
L 187.466732 98.968129 
L 192.146967 90.70208 
L 201.507436 73.836928 
L 204.627593 68.946797 
L 206.187671 66.860423 
L 207.74775 65.098168 
L 209.307828 63.722715 
L 210.867906 62.788836 
L 212.427984 62.336901 
L 213.988063 62.387429 
L 215.548141 62.938091 
L 217.108219 63.964065 
L 218.668297 65.421608 
L 220.228376 67.253841 
L 221.788454 69.397263 
L 224.908611 74.364525 
L 229.588845 82.714331 
L 237.389237 96.808748 
L 242.069472 104.710107 
L 246.749706 112.050441 
L 251.429941 118.832728 
L 256.110176 125.095862 
L 260.790411 130.889861 
L 265.470646 136.265147 
L 270.150881 141.268318 
L 274.831115 145.94081 
L 279.51135 150.318819 
L 284.191585 154.433728 
L 288.87182 158.312679 
L 295.112133 163.157712 
L 301.352446 167.671964 
L 307.592759 171.8948 
L 313.833072 175.859206 
L 320.073386 179.593022 
L 327.873777 183.971745 
L 335.674168 188.065797 
L 343.47456 191.907517 
L 351.274951 195.524045 
L 360.635421 199.598731 
L 369.99589 203.41547 
L 379.35636 207.00218 
L 390.276908 210.927146 
L 401.197456 214.602345 
L 412.118004 218.054073 
L 424.59863 221.753606 
L 437.079256 225.218133 
L 451.119961 228.863966 
L 465.160665 232.270215 
L 479.20137 235.460544 
L 494.802153 238.776409 
L 510.402935 241.873734 
L 527.563796 245.051886 
L 544.724658 248.011796 
L 563.445597 251.014058 
L 582.166536 253.799957 
L 602.447554 256.594359 
L 624.28865 259.364899 
L 646.129746 261.907493 
L 669.53092 264.398167 
L 692.932094 266.664653 
L 717.893346 268.8521 
L 742.854599 270.817107 
L 769.37593 272.675764 
L 795.89726 274.311164 
L 823.978669 275.811575 
L 850.5 277.019785 
L 850.5 277.019785 
" clip-path="url(#p7a4bd5762b)" style="fill: none; stroke: #9467bd; stroke-width: 2.5; stroke-linecap: square"/>
   </g>
   <g id="line2d_32">
    <path d="M 53.3 218.245042 
L 64.220548 214.805378 
L 75.141096 211.143614 
L 86.061644 207.233713 
L 95.422114 203.661459 
L 104.782583 199.86087 
L 114.143053 195.804352 
L 121.943444 192.204798 
L 129.743836 188.382031 
L 137.544227 184.309279 
L 145.344618 179.954664 
L 151.584932 176.242543 
L 157.825245 172.302374 
L 164.065558 168.106772 
L 170.305871 163.623316 
L 176.546184 158.813345 
L 181.226419 154.964007 
L 185.906654 150.882042 
L 190.586888 146.540827 
L 195.267123 141.909581 
L 199.947358 136.952778 
L 204.627593 131.629692 
L 209.307828 125.894377 
L 213.988063 119.696764 
L 218.668297 112.986355 
L 223.348532 105.721764 
L 228.028767 97.892952 
L 232.709002 89.57014 
L 240.509393 75.435156 
L 243.62955 70.32729 
L 245.189628 68.077504 
L 246.749706 66.113015 
L 248.309785 64.498255 
L 249.869863 63.293524 
L 251.429941 62.548589 
L 252.99002 62.296423 
L 254.550098 62.548589 
L 256.110176 63.293524 
L 257.670254 64.498255 
L 259.230333 66.113015 
L 260.790411 68.077504 
L 262.350489 70.32729 
L 265.470646 75.435156 
L 270.150881 83.858614 
L 276.391194 95.166246 
L 281.071429 103.173715 
L 285.751663 110.627858 
L 290.431898 117.519309 
L 295.112133 123.882415 
L 299.792368 129.766131 
L 304.472603 135.221279 
L 309.152838 140.295388 
L 313.833072 145.030956 
L 318.513307 149.465205 
L 323.193542 153.630435 
L 327.873777 157.554589 
L 334.11409 162.453102 
L 340.354403 167.014287 
L 346.594716 171.278592 
L 352.835029 175.279874 
L 359.075342 179.046677 
L 366.875734 183.462029 
L 374.676125 187.588419 
L 382.476517 191.458894 
L 390.276908 195.101157 
L 399.637378 199.203374 
L 408.997847 203.044571 
L 418.358317 206.653159 
L 429.278865 210.600914 
L 440.199413 214.296427 
L 451.119961 217.766387 
L 463.600587 221.484612 
L 476.081213 224.965899 
L 490.121918 228.628649 
L 504.162622 232.05009 
L 518.203327 235.254154 
L 533.80411 238.583834 
L 549.404892 241.693681 
L 566.565753 244.884346 
L 583.726614 247.855644 
L 602.447554 250.869243 
L 621.168493 253.665515 
L 641.449511 256.470232 
L 663.290607 259.25097 
L 685.131703 261.802961 
L 708.532877 264.302953 
L 731.934051 266.5781 
L 756.895303 268.774174 
L 781.856556 270.747273 
L 808.377886 272.614035 
L 834.899217 274.257117 
L 850.5 275.123676 
L 850.5 275.123676 
" clip-path="url(#p7a4bd5762b)" style="fill: none; stroke: #8c564b; stroke-width: 2.5; stroke-linecap: square"/>
   </g>
   <g id="line2d_33">
    <path d="M 53.3 229.253801 
L 67.340705 225.635889 
L 79.821331 222.199003 
L 92.301957 218.530274 
L 103.222505 215.108572 
L 114.143053 211.466802 
L 125.063601 207.579309 
L 134.42407 204.028545 
L 143.78454 200.251952 
L 153.14501 196.222413 
L 160.945401 192.648048 
L 168.745793 188.853392 
L 176.546184 184.81221 
L 184.346575 180.4933 
L 190.586888 176.813288 
L 196.827202 172.908962 
L 203.067515 168.753607 
L 209.307828 164.315625 
L 215.548141 159.557382 
L 220.228376 155.751699 
L 224.908611 151.718267 
L 229.588845 147.431223 
L 234.26908 142.860665 
L 238.949315 137.972061 
L 243.62955 132.725746 
L 248.309785 127.076781 
L 252.99002 120.97574 
L 257.670254 114.371704 
L 262.350489 107.220234 
L 267.030724 99.502243 
L 271.710959 91.265973 
L 281.071429 74.364525 
L 284.191585 69.397263 
L 285.751663 67.253841 
L 287.311742 65.421608 
L 288.87182 63.964065 
L 290.431898 62.938091 
L 291.991977 62.387429 
L 293.552055 62.336901 
L 295.112133 62.788836 
L 296.672211 63.722715 
L 298.23229 65.098168 
L 299.792368 66.860423 
L 301.352446 68.946797 
L 304.472603 73.836928 
L 307.592759 79.305739 
L 318.513307 98.968129 
L 323.193542 106.723283 
L 327.873777 113.912377 
L 332.554012 120.551672 
L 337.234247 126.684675 
L 341.914481 132.362201 
L 346.594716 137.633905 
L 351.274951 142.545064 
L 355.955186 147.135695 
L 360.635421 151.440662 
L 365.315656 155.490156 
L 371.555969 160.536697 
L 377.796282 165.22754 
L 384.036595 169.606198 
L 390.276908 173.708991 
L 396.517221 177.566456 
L 402.757534 181.204448 
L 410.557926 185.476584 
L 418.358317 189.476368 
L 426.158708 193.234129 
L 433.9591 196.775403 
L 443.319569 200.769472 
L 452.680039 204.514489 
L 462.040509 208.036954 
L 472.961057 211.894919 
L 483.881605 215.510322 
L 494.802153 218.908321 
L 507.282779 222.552714 
L 519.763405 225.967745 
L 533.80411 229.563566 
L 547.844814 232.924865 
L 563.445597 236.41229 
L 579.04638 239.664779 
L 596.207241 242.997628 
L 613.368102 246.098051 
L 632.089041 249.239923 
L 650.80998 252.153325 
L 671.090998 255.074281 
L 691.372016 257.771031 
L 713.213112 260.444871 
L 735.054207 262.898208 
L 758.455382 265.300242 
L 781.856556 267.484224 
L 806.817808 269.589384 
L 831.779061 271.477096 
L 850.5 272.757636 
L 850.5 272.757636 
" clip-path="url(#p7a4bd5762b)" style="fill: none; stroke: #e377c2; stroke-width: 2.5; stroke-linecap: square"/>
   </g>
   <g id="line2d_34">
    <path d="M 53.3 238.325836 
L 68.900783 234.977605 
L 82.941487 231.755088 
L 96.982192 228.313227 
L 111.022896 224.627722 
L 123.503523 221.12388 
L 135.984149 217.380487 
L 146.904697 213.885959 
L 157.825245 210.163058 
L 168.745793 206.184553 
L 178.106262 202.546421 
L 187.466732 198.672173 
L 196.827202 194.53272 
L 204.627593 190.855618 
L 212.427984 186.946183 
L 220.228376 182.775936 
L 228.028767 178.310856 
L 234.26908 174.499222 
L 240.509393 170.447773 
L 246.749706 166.126991 
L 252.99002 161.501812 
L 259.230333 156.530293 
L 263.910568 152.544361 
L 268.590802 148.310293 
L 273.271037 143.799044 
L 277.951272 138.977053 
L 282.631507 133.805709 
L 287.311742 128.241108 
L 291.991977 122.23458 
L 296.672211 115.735083 
L 301.352446 108.695846 
L 306.032681 101.09034 
L 310.712916 92.948218 
L 321.633464 73.315015 
L 324.75362 68.506706 
L 326.313699 66.479975 
L 327.873777 64.790224 
L 329.433855 63.499074 
L 330.993933 62.658923 
L 332.554012 62.306547 
L 334.11409 62.458035 
L 335.674168 63.10642 
L 337.234247 64.22272 
L 338.794325 65.760057 
L 340.354403 67.659709 
L 341.914481 69.857595 
L 345.034638 74.897399 
L 349.714873 83.286228 
L 355.955186 94.614625 
L 360.635421 102.656579 
L 365.315656 110.148643 
L 369.99589 117.076815 
L 374.676125 123.473691 
L 379.35636 129.387768 
L 384.036595 134.869958 
L 388.71683 139.968088 
L 393.397065 144.72501 
L 398.077299 149.17829 
L 402.757534 153.360541 
L 407.437769 157.299976 
L 413.678082 162.216556 
L 419.918395 166.793586 
L 426.158708 171.071882 
L 432.399022 175.085597 
L 438.639335 178.863517 
L 446.439726 183.291204 
L 454.240117 187.428478 
L 462.040509 191.308626 
L 469.8409 194.959542 
L 479.20137 199.071011 
L 488.56184 202.920423 
L 497.922309 206.536357 
L 508.842857 210.49176 
L 519.763405 214.194087 
L 530.683953 217.670162 
L 543.164579 221.394652 
L 555.645205 224.881555 
L 568.125832 228.154796 
L 582.166536 231.606939 
L 596.207241 234.838743 
L 611.808023 238.196307 
L 627.408806 241.331417 
L 644.569667 244.547307 
L 661.730528 247.541552 
L 680.451468 250.577984 
L 699.172407 253.395136 
L 719.453425 256.220606 
L 739.734442 258.829626 
L 761.575538 261.416347 
L 784.976712 263.950754 
L 808.377886 266.257867 
L 833.339139 268.485758 
L 850.5 269.88608 
L 850.5 269.88608 
" clip-path="url(#p7a4bd5762b)" style="fill: none; stroke: #7f7f7f; stroke-width: 2.5; stroke-linecap: square"/>
   </g>
   <g id="line2d_35">
    <path d="M 53.3 245.934562 
L 70.460861 242.822037 
L 87.621722 239.475831 
L 103.222505 236.209911 
L 118.823288 232.707596 
L 132.863992 229.331417 
L 146.904697 225.719047 
L 159.385323 222.287647 
L 171.865949 218.625027 
L 182.786497 215.209278 
L 193.707045 211.57413 
L 204.627593 207.694056 
L 213.988063 204.150404 
L 223.348532 200.38175 
L 232.709002 196.361132 
L 240.509393 192.795093 
L 248.309785 189.009722 
L 256.110176 184.978963 
L 263.910568 180.671835 
L 270.150881 177.002413 
L 276.391194 173.1099 
L 282.631507 168.967802 
L 288.87182 164.54479 
L 295.112133 159.803563 
L 299.792368 156.012232 
L 304.472603 151.994746 
L 309.152838 147.725492 
L 313.833072 143.174855 
L 318.513307 138.308629 
L 323.193542 133.087503 
L 327.873777 127.466878 
L 332.554012 121.397571 
L 337.234247 114.828589 
L 341.914481 107.714644 
L 346.594716 100.034001 
L 351.274951 91.828351 
L 360.635421 74.897399 
L 363.755577 69.857595 
L 365.315656 67.659709 
L 366.875734 65.760057 
L 368.435812 64.22272 
L 369.99589 63.10642 
L 371.555969 62.458035 
L 373.116047 62.306547 
L 374.676125 62.658923 
L 376.236204 63.499074 
L 377.796282 64.790224 
L 379.35636 66.479975 
L 380.916438 68.506706 
L 382.476517 70.805853 
L 385.596673 75.977413 
L 390.276908 84.431289 
L 396.517221 95.715843 
L 401.197456 103.688356 
L 405.877691 111.104558 
L 410.557926 117.95945 
L 415.23816 124.289008 
L 419.918395 130.142592 
L 424.59863 135.570909 
L 429.278865 140.621185 
L 433.9591 145.335564 
L 438.639335 149.750925 
L 443.319569 153.899259 
L 447.999804 157.80824 
L 454.240117 162.688806 
L 460.480431 167.234248 
L 466.720744 171.484646 
L 472.961057 175.473566 
L 479.20137 179.229314 
L 487.001761 183.632393 
L 494.802153 187.747951 
L 502.602544 191.608797 
L 510.402935 195.242445 
L 519.763405 199.335447 
L 529.123875 203.168461 
L 538.484344 206.76973 
L 549.404892 210.709863 
L 560.32544 214.398582 
L 571.245988 217.862447 
L 583.726614 221.574424 
L 596.207241 225.050109 
L 610.247945 228.707207 
L 624.28865 232.123572 
L 638.329354 235.323048 
L 653.930137 238.648113 
L 669.53092 241.753778 
L 686.691781 244.940265 
L 703.852642 247.907761 
L 722.573581 250.917575 
L 741.294521 253.710384 
L 761.575538 256.511658 
L 783.416634 259.288993 
L 805.25773 261.837848 
L 828.658904 264.334731 
L 850.5 266.462176 
L 850.5 266.462176 
" clip-path="url(#p7a4bd5762b)" style="fill: none; stroke: #bcbd22; stroke-width: 2.5; stroke-linecap: square"/>
   </g>
   <g id="line2d_36">
    <path d="M 53.3 252.38643 
L 72.020939 249.491141 
L 90.741879 246.369137 
L 107.90274 243.288747 
L 125.063601 239.977995 
L 140.664384 236.747714 
L 156.265166 233.284896 
L 170.305871 229.948173 
L 184.346575 226.379665 
L 196.827202 222.991635 
L 209.307828 219.377286 
L 221.788454 215.510322 
L 232.709002 211.894919 
L 243.62955 208.036954 
L 252.99002 204.514489 
L 262.350489 200.769472 
L 271.710959 196.775403 
L 279.51135 193.234129 
L 287.311742 189.476368 
L 295.112133 185.476584 
L 302.912524 181.204448 
L 309.152838 177.566456 
L 315.393151 173.708991 
L 321.633464 169.606198 
L 327.873777 165.22754 
L 334.11409 160.536697 
L 340.354403 155.490156 
L 345.034638 151.440662 
L 349.714873 147.135695 
L 354.395108 142.545064 
L 359.075342 137.633905 
L 363.755577 132.362201 
L 368.435812 126.684675 
L 373.116047 120.551672 
L 377.796282 113.912377 
L 382.476517 106.723283 
L 387.156751 98.968129 
L 391.836986 90.70208 
L 401.197456 73.836928 
L 404.317613 68.946797 
L 405.877691 66.860423 
L 407.437769 65.098168 
L 408.997847 63.722715 
L 410.557926 62.788836 
L 412.118004 62.336901 
L 413.678082 62.387429 
L 415.23816 62.938091 
L 416.798239 63.964065 
L 418.358317 65.421608 
L 419.918395 67.253841 
L 421.478474 69.397263 
L 424.59863 74.364525 
L 429.278865 82.714331 
L 437.079256 96.808748 
L 441.759491 104.710107 
L 446.439726 112.050441 
L 451.119961 118.832728 
L 455.800196 125.095862 
L 460.480431 130.889861 
L 465.160665 136.265147 
L 469.8409 141.268318 
L 474.521135 145.94081 
L 479.20137 150.318819 
L 483.881605 154.433728 
L 488.56184 158.312679 
L 494.802153 163.157712 
L 501.042466 167.671964 
L 507.282779 171.8948 
L 513.523092 175.859206 
L 519.763405 179.593022 
L 527.563796 183.971745 
L 535.364188 188.065797 
L 543.164579 191.907517 
L 550.964971 195.524045 
L 560.32544 199.598731 
L 569.68591 203.41547 
L 579.04638 207.00218 
L 589.966928 210.927146 
L 600.887476 214.602345 
L 611.808023 218.054073 
L 624.28865 221.753606 
L 636.769276 225.218133 
L 650.80998 228.863966 
L 664.850685 232.270215 
L 678.891389 235.460544 
L 694.492172 238.776409 
L 710.092955 241.873734 
L 727.253816 245.051886 
L 744.414677 248.011796 
L 763.135616 251.014058 
L 781.856556 253.799957 
L 802.137573 256.594359 
L 823.978669 259.364899 
L 845.819765 261.907493 
L 850.5 262.424375 
L 850.5 262.424375 
" clip-path="url(#p7a4bd5762b)" style="fill: none; stroke: #17becf; stroke-width: 2.5; stroke-linecap: square"/>
   </g>
   <g id="line2d_37">
    <path d="M 53.3 257.890388 
L 73.581018 255.203534 
L 93.862035 252.293361 
L 112.582975 249.390843 
L 131.303914 246.260911 
L 148.464775 243.172528 
L 165.625636 239.852962 
L 181.226419 236.613824 
L 196.827202 233.141195 
L 210.867906 229.794675 
L 224.908611 226.215282 
L 237.389237 222.816493 
L 249.869863 219.190176 
L 262.350489 215.309804 
L 273.271037 211.681259 
L 284.191585 207.808579 
L 293.552055 204.272014 
L 302.912524 200.511269 
L 312.272994 196.499535 
L 320.073386 192.941786 
L 327.873777 189.16566 
L 335.674168 185.145276 
L 343.47456 180.84987 
L 349.714873 177.19098 
L 355.955186 173.310215 
L 362.195499 169.181296 
L 368.435812 164.773161 
L 374.676125 160.048838 
L 379.35636 156.271761 
L 384.036595 152.270108 
L 388.71683 148.018512 
L 393.397065 143.487645 
L 398.077299 138.643622 
L 402.757534 133.447486 
L 407.437769 127.854982 
L 412.118004 121.817179 
L 416.798239 115.283045 
L 421.478474 108.206514 
L 426.158708 100.563375 
L 430.838943 92.389128 
L 441.759491 72.799207 
L 443.319569 70.32729 
L 444.879648 68.077504 
L 446.439726 66.113015 
L 447.999804 64.498255 
L 449.559883 63.293524 
L 451.119961 62.548589 
L 452.680039 62.296423 
L 454.240117 62.548589 
L 455.800196 63.293524 
L 457.360274 64.498255 
L 458.920352 66.113015 
L 460.480431 68.077504 
L 462.040509 70.32729 
L 465.160665 75.435156 
L 469.8409 83.858614 
L 476.081213 95.166246 
L 480.761448 103.173715 
L 485.441683 110.627858 
L 490.121918 117.519309 
L 494.802153 123.882415 
L 499.482387 129.766131 
L 504.162622 135.221279 
L 508.842857 140.295388 
L 513.523092 145.030956 
L 518.203327 149.465205 
L 522.883562 153.630435 
L 527.563796 157.554589 
L 533.80411 162.453102 
L 540.044423 167.014287 
L 546.284736 171.278592 
L 552.525049 175.279874 
L 558.765362 179.046677 
L 566.565753 183.462029 
L 574.366145 187.588419 
L 582.166536 191.458894 
L 589.966928 195.101157 
L 599.327397 199.203374 
L 608.687867 203.044571 
L 618.048337 206.653159 
L 628.968885 210.600914 
L 639.889432 214.296427 
L 650.80998 217.766387 
L 663.290607 221.484612 
L 675.771233 224.965899 
L 689.811937 228.628649 
L 703.852642 232.05009 
L 717.893346 235.254154 
L 733.494129 238.583834 
L 749.094912 241.693681 
L 766.255773 244.884346 
L 783.416634 247.855644 
L 802.137573 250.869243 
L 820.858513 253.665515 
L 841.13953 256.470232 
L 850.5 257.691216 
L 850.5 257.691216 
" clip-path="url(#p7a4bd5762b)" style="fill: none; stroke: #1f77b4; stroke-width: 2.5; stroke-linecap: square"/>
   </g>
   <g id="line2d_38">
    <path d="M 53.3 262.594547 
L 75.141096 260.113812 
L 96.982192 257.410318 
L 117.263209 254.683653 
L 137.544227 251.730075 
L 156.265166 248.783728 
L 174.986106 245.605689 
L 192.146967 242.468768 
L 209.307828 239.095624 
L 224.908611 235.802598 
L 240.509393 232.270215 
L 254.550098 228.863966 
L 268.590802 225.218133 
L 281.071429 221.753606 
L 293.552055 218.054073 
L 304.472603 214.602345 
L 315.393151 210.927146 
L 326.313699 207.00218 
L 335.674168 203.41547 
L 345.034638 199.598731 
L 354.395108 195.524045 
L 362.195499 191.907517 
L 369.99589 188.065797 
L 377.796282 183.971745 
L 385.596673 179.593022 
L 391.836986 175.859206 
L 398.077299 171.8948 
L 404.317613 167.671964 
L 410.557926 163.157712 
L 416.798239 158.312679 
L 421.478474 154.433728 
L 426.158708 150.318819 
L 430.838943 145.94081 
L 435.519178 141.268318 
L 440.199413 136.265147 
L 444.879648 130.889861 
L 449.559883 125.095862 
L 454.240117 118.832728 
L 458.920352 112.050441 
L 463.600587 104.710107 
L 468.280822 96.808748 
L 472.961057 88.433365 
L 480.761448 74.364525 
L 483.881605 69.397263 
L 485.441683 67.253841 
L 487.001761 65.421608 
L 488.56184 63.964065 
L 490.121918 62.938091 
L 491.681996 62.387429 
L 493.242074 62.336901 
L 494.802153 62.788836 
L 496.362231 63.722715 
L 497.922309 65.098168 
L 499.482387 66.860423 
L 501.042466 68.946797 
L 504.162622 73.836928 
L 507.282779 79.305739 
L 518.203327 98.968129 
L 522.883562 106.723283 
L 527.563796 113.912377 
L 532.244031 120.551672 
L 536.924266 126.684675 
L 541.604501 132.362201 
L 546.284736 137.633905 
L 550.964971 142.545064 
L 555.645205 147.135695 
L 560.32544 151.440662 
L 565.005675 155.490156 
L 571.245988 160.536697 
L 577.486301 165.22754 
L 583.726614 169.606198 
L 589.966928 173.708991 
L 596.207241 177.566456 
L 602.447554 181.204448 
L 610.247945 185.476584 
L 618.048337 189.476368 
L 625.848728 193.234129 
L 633.649119 196.775403 
L 643.009589 200.769472 
L 652.370059 204.514489 
L 661.730528 208.036954 
L 672.651076 211.894919 
L 683.571624 215.510322 
L 694.492172 218.908321 
L 706.972798 222.552714 
L 719.453425 225.967745 
L 733.494129 229.563566 
L 747.534834 232.924865 
L 763.135616 236.41229 
L 778.736399 239.664779 
L 795.89726 242.997628 
L 813.058121 246.098051 
L 831.779061 249.239923 
L 850.5 252.153325 
L 850.5 252.153325 
" clip-path="url(#p7a4bd5762b)" style="fill: none; stroke: #ff7f0e; stroke-width: 2.5; stroke-linecap: square"/>
   </g>
   <g id="line2d_39">
    <path d="M 53.3 266.606988 
L 76.701174 264.334731 
L 100.102348 261.837848 
L 121.943444 259.288993 
L 143.78454 256.511658 
L 164.065558 253.710384 
L 184.346575 250.675313 
L 203.067515 247.646515 
L 220.228376 244.659945 
L 237.389237 241.452493 
L 252.99002 238.325836 
L 268.590802 234.977605 
L 282.631507 231.755088 
L 296.672211 228.313227 
L 310.712916 224.627722 
L 323.193542 221.12388 
L 335.674168 217.380487 
L 346.594716 213.885959 
L 357.515264 210.163058 
L 368.435812 206.184553 
L 377.796282 202.546421 
L 387.156751 198.672173 
L 396.517221 194.53272 
L 404.317613 190.855618 
L 412.118004 186.946183 
L 419.918395 182.775936 
L 427.718787 178.310856 
L 433.9591 174.499222 
L 440.199413 170.447773 
L 446.439726 166.126991 
L 452.680039 161.501812 
L 458.920352 156.530293 
L 463.600587 152.544361 
L 468.280822 148.310293 
L 472.961057 143.799044 
L 477.641292 138.977053 
L 482.321526 133.805709 
L 487.001761 128.241108 
L 491.681996 122.23458 
L 496.362231 115.735083 
L 501.042466 108.695846 
L 505.722701 101.09034 
L 510.402935 92.948218 
L 521.323483 73.315015 
L 524.44364 68.506706 
L 526.003718 66.479975 
L 527.563796 64.790224 
L 529.123875 63.499074 
L 530.683953 62.658923 
L 532.244031 62.306547 
L 533.80411 62.458035 
L 535.364188 63.10642 
L 536.924266 64.22272 
L 538.484344 65.760057 
L 540.044423 67.659709 
L 541.604501 69.857595 
L 544.724658 74.897399 
L 549.404892 83.286228 
L 555.645205 94.614625 
L 560.32544 102.656579 
L 565.005675 110.148643 
L 569.68591 117.076815 
L 574.366145 123.473691 
L 579.04638 129.387768 
L 583.726614 134.869958 
L 588.406849 139.968088 
L 593.087084 144.72501 
L 597.767319 149.17829 
L 602.447554 153.360541 
L 607.127789 157.299976 
L 613.368102 162.216556 
L 619.608415 166.793586 
L 625.848728 171.071882 
L 632.089041 175.085597 
L 638.329354 178.863517 
L 646.129746 183.291204 
L 653.930137 187.428478 
L 661.730528 191.308626 
L 669.53092 194.959542 
L 678.891389 199.071011 
L 688.251859 202.920423 
L 697.612329 206.536357 
L 708.532877 210.49176 
L 719.453425 214.194087 
L 730.373973 217.670162 
L 742.854599 221.394652 
L 755.335225 224.881555 
L 767.815851 228.154796 
L 781.856556 231.606939 
L 795.89726 234.838743 
L 811.498043 238.196307 
L 827.098826 241.331417 
L 844.259687 244.547307 
L 850.5 245.660678 
L 850.5 245.660678 
" clip-path="url(#p7a4bd5762b)" style="fill: none; stroke: #2ca02c; stroke-width: 2.5; stroke-linecap: square"/>
   </g>
   <g id="line2d_40">
    <path d="M 53.3 270.008271 
L 78.261252 267.950452 
L 103.222505 265.663936 
L 126.623679 263.297842 
L 150.024853 260.699843 
L 171.865949 258.048851 
L 192.146967 255.375132 
L 212.427984 252.479269 
L 231.148924 249.591188 
L 249.869863 246.477086 
L 267.030724 243.404661 
L 284.191585 240.102691 
L 299.792368 236.881232 
L 315.393151 233.428184 
L 329.433855 230.101214 
L 343.47456 226.543539 
L 355.955186 223.166212 
L 368.435812 219.563766 
L 380.916438 215.710132 
L 391.836986 212.107789 
L 402.757534 208.264442 
L 412.118004 204.755976 
L 421.478474 201.02657 
L 430.838943 197.050025 
L 438.639335 193.525088 
L 446.439726 189.78553 
L 454.240117 185.806153 
L 462.040509 181.557054 
L 468.280822 177.93974 
L 474.521135 174.105317 
L 480.761448 170.028346 
L 487.001761 165.678804 
L 493.242074 161.021006 
L 499.482387 156.012232 
L 504.162622 151.994746 
L 508.842857 147.725492 
L 513.523092 143.174855 
L 518.203327 138.308629 
L 522.883562 133.087503 
L 527.563796 127.466878 
L 532.244031 121.397571 
L 536.924266 114.828589 
L 541.604501 107.714644 
L 546.284736 100.034001 
L 550.964971 91.828351 
L 560.32544 74.897399 
L 563.445597 69.857595 
L 565.005675 67.659709 
L 566.565753 65.760057 
L 568.125832 64.22272 
L 569.68591 63.10642 
L 571.245988 62.458035 
L 572.806067 62.306547 
L 574.366145 62.658923 
L 575.926223 63.499074 
L 577.486301 64.790224 
L 579.04638 66.479975 
L 580.606458 68.506706 
L 582.166536 70.805853 
L 585.286693 75.977413 
L 589.966928 84.431289 
L 596.207241 95.715843 
L 600.887476 103.688356 
L 605.56771 111.104558 
L 610.247945 117.95945 
L 614.92818 124.289008 
L 619.608415 130.142592 
L 624.28865 135.570909 
L 628.968885 140.621185 
L 633.649119 145.335564 
L 638.329354 149.750925 
L 643.009589 153.899259 
L 647.689824 157.80824 
L 653.930137 162.688806 
L 660.17045 167.234248 
L 666.410763 171.484646 
L 672.651076 175.473566 
L 678.891389 179.229314 
L 686.691781 183.632393 
L 694.492172 187.747951 
L 702.292564 191.608797 
L 710.092955 195.242445 
L 719.453425 199.335447 
L 728.813894 203.168461 
L 738.174364 206.76973 
L 749.094912 210.709863 
L 760.01546 214.398582 
L 770.936008 217.862447 
L 783.416634 221.574424 
L 795.89726 225.050109 
L 809.937965 228.707207 
L 823.978669 232.123572 
L 838.019374 235.323048 
L 850.5 238.001347 
L 850.5 238.001347 
" clip-path="url(#p7a4bd5762b)" style="fill: none; stroke: #d62728; stroke-width: 2.5; stroke-linecap: square"/>
   </g>
   <g id="line2d_41">
    <path d="M 53.3 272.859284 
L 79.821331 271.024847 
L 104.782583 269.084006 
L 129.743836 266.922308 
L 153.14501 264.681661 
L 176.546184 262.218773 
L 198.38728 259.704185 
L 220.228376 256.964014 
L 240.509393 254.200313 
L 260.790411 251.206305 
L 279.51135 248.219078 
L 298.23229 244.996112 
L 315.393151 241.813796 
L 330.993933 238.712305 
L 346.594716 235.391844 
L 362.195499 231.829 
L 376.236204 228.392262 
L 390.276908 224.712467 
L 402.757534 221.214286 
L 415.23816 217.477212 
L 426.158708 213.988854 
L 437.079256 210.272833 
L 447.999804 206.302055 
L 457.360274 202.671349 
L 466.720744 198.805411 
L 476.081213 194.675325 
L 483.881605 191.006989 
L 491.681996 187.107362 
L 499.482387 182.94816 
L 507.282779 178.495609 
L 513.523092 174.695274 
L 519.763405 170.656476 
L 526.003718 166.349943 
L 532.244031 161.740917 
L 538.484344 156.787835 
L 543.164579 152.817512 
L 547.844814 148.600843 
L 552.525049 144.109064 
L 557.205284 139.308932 
L 561.885519 134.162186 
L 566.565753 128.625271 
L 571.245988 122.649789 
L 575.926223 116.184715 
L 580.606458 109.182642 
L 585.286693 101.614876 
L 589.966928 93.505546 
L 602.447554 71.292799 
L 604.007632 68.946797 
L 605.56771 66.860423 
L 607.127789 65.098168 
L 608.687867 63.722715 
L 610.247945 62.788836 
L 611.808023 62.336901 
L 613.368102 62.387429 
L 614.92818 62.938091 
L 616.488258 63.964065 
L 618.048337 65.421608 
L 619.608415 67.253841 
L 621.168493 69.397263 
L 624.28865 74.364525 
L 628.968885 82.714331 
L 636.769276 96.808748 
L 641.449511 104.710107 
L 646.129746 112.050441 
L 650.80998 118.832728 
L 655.490215 125.095862 
L 660.17045 130.889861 
L 664.850685 136.265147 
L 669.53092 141.268318 
L 674.211155 145.94081 
L 678.891389 150.318819 
L 683.571624 154.433728 
L 688.251859 158.312679 
L 694.492172 163.157712 
L 700.732485 167.671964 
L 706.972798 171.8948 
L 713.213112 175.859206 
L 719.453425 179.593022 
L 727.253816 183.971745 
L 735.054207 188.065797 
L 742.854599 191.907517 
L 750.65499 195.524045 
L 760.01546 199.598731 
L 769.37593 203.41547 
L 778.736399 207.00218 
L 789.656947 210.927146 
L 800.577495 214.602345 
L 811.498043 218.054073 
L 823.978669 221.753606 
L 836.459295 225.218133 
L 850.5 228.863966 
L 850.5 228.863966 
" clip-path="url(#p7a4bd5762b)" style="fill: none; stroke: #9467bd; stroke-width: 2.5; stroke-linecap: square"/>
   </g>
   <g id="line2d_42">
    <path d="M 53.3 275.206363 
L 81.381409 273.60689 
L 107.90274 271.873158 
L 134.42407 269.910585 
L 159.385323 267.841685 
L 184.346575 265.543321 
L 207.74775 263.165293 
L 231.148924 260.554414 
L 252.99002 257.890388 
L 273.271037 255.203534 
L 293.552055 252.293361 
L 312.272994 249.390843 
L 330.993933 246.260911 
L 348.154795 243.172528 
L 365.315656 239.852962 
L 380.916438 236.613824 
L 396.517221 233.141195 
L 410.557926 229.794675 
L 424.59863 226.215282 
L 437.079256 222.816493 
L 449.559883 219.190176 
L 462.040509 215.309804 
L 472.961057 211.681259 
L 483.881605 207.808579 
L 493.242074 204.272014 
L 502.602544 200.511269 
L 511.963014 196.499535 
L 519.763405 192.941786 
L 527.563796 189.16566 
L 535.364188 185.145276 
L 543.164579 180.84987 
L 549.404892 177.19098 
L 555.645205 173.310215 
L 561.885519 169.181296 
L 568.125832 164.773161 
L 574.366145 160.048838 
L 579.04638 156.271761 
L 583.726614 152.270108 
L 588.406849 148.018512 
L 593.087084 143.487645 
L 597.767319 138.643622 
L 602.447554 133.447486 
L 607.127789 127.854982 
L 611.808023 121.817179 
L 616.488258 115.283045 
L 621.168493 108.206514 
L 625.848728 100.563375 
L 630.528963 92.389128 
L 641.449511 72.799207 
L 643.009589 70.32729 
L 644.569667 68.077504 
L 646.129746 66.113015 
L 647.689824 64.498255 
L 649.249902 63.293524 
L 650.80998 62.548589 
L 652.370059 62.296423 
L 653.930137 62.548589 
L 655.490215 63.293524 
L 657.050294 64.498255 
L 658.610372 66.113015 
L 660.17045 68.077504 
L 661.730528 70.32729 
L 664.850685 75.435156 
L 669.53092 83.858614 
L 675.771233 95.166246 
L 680.451468 103.173715 
L 685.131703 110.627858 
L 689.811937 117.519309 
L 694.492172 123.882415 
L 699.172407 129.766131 
L 703.852642 135.221279 
L 708.532877 140.295388 
L 713.213112 145.030956 
L 717.893346 149.465205 
L 722.573581 153.630435 
L 727.253816 157.554589 
L 733.494129 162.453102 
L 739.734442 167.014287 
L 745.974755 171.278592 
L 752.215068 175.279874 
L 758.455382 179.046677 
L 766.255773 183.462029 
L 774.056164 187.588419 
L 781.856556 191.458894 
L 789.656947 195.101157 
L 799.017417 199.203374 
L 808.377886 203.044571 
L 817.738356 206.653159 
L 828.658904 210.600914 
L 839.579452 214.296427 
L 850.5 217.766387 
L 850.5 217.766387 
" clip-path="url(#p7a4bd5762b)" style="fill: none; stroke: #8c564b; stroke-width: 2.5; stroke-linecap: square"/>
   </g>
   <g id="line2d_43">
    <path d="M 53.3 277.084709 
L 81.381409 275.811575 
L 109.462818 274.311164 
L 135.984149 272.675764 
L 162.505479 270.817107 
L 187.466732 268.8521 
L 212.427984 266.664653 
L 235.829159 264.398167 
L 259.230333 261.907493 
L 281.071429 259.364899 
L 302.912524 256.594359 
L 323.193542 253.799957 
L 343.47456 250.772399 
L 362.195499 247.751213 
L 379.35636 244.772291 
L 396.517221 241.573247 
L 412.118004 238.455011 
L 427.718787 235.116075 
L 441.759491 231.902804 
L 455.800196 228.471177 
L 469.8409 224.797078 
L 482.321526 221.304543 
L 494.802153 217.57377 
L 505.722701 214.091563 
L 516.643249 210.3824 
L 527.563796 206.419322 
L 536.924266 202.796016 
L 546.284736 198.938357 
L 555.645205 194.817599 
L 563.445597 191.157991 
L 571.245988 187.268126 
L 579.04638 183.119915 
L 586.846771 178.679828 
L 593.087084 174.890732 
L 599.327397 170.864511 
L 605.56771 166.572139 
L 611.808023 161.979162 
L 618.048337 157.044394 
L 622.728571 153.089569 
L 627.408806 148.890173 
L 632.089041 144.417716 
L 636.769276 139.639273 
L 641.449511 134.516931 
L 646.129746 129.007486 
L 650.80998 123.06282 
L 655.490215 116.631955 
L 660.17045 109.666906 
L 664.850685 102.136961 
L 669.53092 94.061037 
L 682.011546 71.787649 
L 683.571624 69.397263 
L 685.131703 67.253841 
L 686.691781 65.421608 
L 688.251859 63.964065 
L 689.811937 62.938091 
L 691.372016 62.387429 
L 692.932094 62.336901 
L 694.492172 62.788836 
L 696.05225 63.722715 
L 697.612329 65.098168 
L 699.172407 66.860423 
L 700.732485 68.946797 
L 703.852642 73.836928 
L 706.972798 79.305739 
L 717.893346 98.968129 
L 722.573581 106.723283 
L 727.253816 113.912377 
L 731.934051 120.551672 
L 736.614286 126.684675 
L 741.294521 132.362201 
L 745.974755 137.633905 
L 750.65499 142.545064 
L 755.335225 147.135695 
L 760.01546 151.440662 
L 764.695695 155.490156 
L 770.936008 160.536697 
L 777.176321 165.22754 
L 783.416634 169.606198 
L 789.656947 173.708991 
L 795.89726 177.566456 
L 802.137573 181.204448 
L 809.937965 185.476584 
L 817.738356 189.476368 
L 825.538748 193.234129 
L 833.339139 196.775403 
L 842.699609 200.769472 
L 850.5 203.906435 
L 850.5 203.906435 
" clip-path="url(#p7a4bd5762b)" style="fill: none; stroke: #e377c2; stroke-width: 2.5; stroke-linecap: square"/>
   </g>
   <g id="line2d_44">
    <path d="M 53.3 278.520711 
L 81.381409 277.556197 
L 109.462818 276.376294 
L 137.544227 274.973033 
L 164.065558 273.433778 
L 190.586888 271.676416 
L 217.108219 269.688824 
L 242.069472 267.594861 
L 267.030724 265.269683 
L 290.431898 262.864635 
L 312.272994 260.408268 
L 334.11409 257.731148 
L 354.395108 255.031091 
L 374.676125 252.10653 
L 393.397065 249.189489 
L 412.118004 246.043624 
L 429.278865 242.939174 
L 446.439726 239.601882 
L 462.040509 236.344924 
L 477.641292 232.852547 
L 491.681996 229.486299 
L 505.722701 225.884975 
L 518.203327 222.464502 
L 530.683953 218.81405 
L 541.604501 215.410152 
L 552.525049 211.788188 
L 563.445597 207.922878 
L 572.806067 204.393376 
L 582.166536 200.640509 
L 591.527006 196.637625 
L 599.327397 193.088131 
L 607.127789 189.321209 
L 614.92818 185.311149 
L 622.728571 181.027406 
L 628.968885 177.378993 
L 635.209198 173.509911 
L 641.449511 169.394093 
L 647.689824 165.000743 
L 653.930137 160.293214 
L 658.610372 156.530293 
L 663.290607 152.544361 
L 667.970841 148.310293 
L 672.651076 143.799044 
L 677.331311 138.977053 
L 682.011546 133.805709 
L 686.691781 128.241108 
L 691.372016 122.23458 
L 696.05225 115.735083 
L 700.732485 108.695846 
L 705.41272 101.09034 
L 710.092955 92.948218 
L 721.013503 73.315015 
L 724.133659 68.506706 
L 725.693738 66.479975 
L 727.253816 64.790224 
L 728.813894 63.499074 
L 730.373973 62.658923 
L 731.934051 62.306547 
L 733.494129 62.458035 
L 735.054207 63.10642 
L 736.614286 64.22272 
L 738.174364 65.760057 
L 739.734442 67.659709 
L 741.294521 69.857595 
L 744.414677 74.897399 
L 749.094912 83.286228 
L 755.335225 94.614625 
L 760.01546 102.656579 
L 764.695695 110.148643 
L 769.37593 117.076815 
L 774.056164 123.473691 
L 778.736399 129.387768 
L 783.416634 134.869958 
L 788.096869 139.968088 
L 792.777104 144.72501 
L 797.457339 149.17829 
L 802.137573 153.360541 
L 806.817808 157.299976 
L 813.058121 162.216556 
L 819.298434 166.793586 
L 825.538748 171.071882 
L 831.779061 175.085597 
L 838.019374 178.863517 
L 845.819765 183.291204 
L 850.5 185.806153 
L 850.5 185.806153 
" clip-path="url(#p7a4bd5762b)" style="fill: none; stroke: #7f7f7f; stroke-width: 2.5; stroke-linecap: square"/>
   </g>
   <g id="line2d_45">
    <path d="M 53.3 279.533537 
L 82.941487 278.821693 
L 112.582975 277.879022 
L 140.664384 276.766902 
L 168.745793 275.434093 
L 196.827202 273.87135 
L 223.348532 272.174111 
L 249.869863 270.250142 
L 274.831115 268.219875 
L 299.792368 265.962799 
L 323.193542 263.626337 
L 346.594716 261.060301 
L 368.435812 258.441629 
L 388.71683 255.800461 
L 408.997847 252.940032 
L 427.718787 250.087674 
L 446.439726 247.012712 
L 463.600587 243.979707 
L 480.761448 240.721167 
L 496.362231 237.543303 
L 511.963014 234.138493 
L 526.003718 230.859635 
L 540.044423 227.355352 
L 552.525049 224.030726 
L 565.005675 220.486829 
L 577.486301 216.698695 
L 588.406849 213.160453 
L 599.327397 209.388763 
L 610.247945 205.35542 
L 619.608415 201.664536 
L 628.968885 197.7312 
L 638.329354 193.525088 
L 646.129746 189.78553 
L 653.930137 185.806153 
L 661.730528 181.557054 
L 667.970841 177.93974 
L 674.211155 174.105317 
L 680.451468 170.028346 
L 686.691781 165.678804 
L 692.932094 161.021006 
L 699.172407 156.012232 
L 703.852642 151.994746 
L 708.532877 147.725492 
L 713.213112 143.174855 
L 717.893346 138.308629 
L 722.573581 133.087503 
L 727.253816 127.466878 
L 731.934051 121.397571 
L 736.614286 114.828589 
L 741.294521 107.714644 
L 745.974755 100.034001 
L 750.65499 91.828351 
L 760.01546 74.897399 
L 763.135616 69.857595 
L 764.695695 67.659709 
L 766.255773 65.760057 
L 767.815851 64.22272 
L 769.37593 63.10642 
L 770.936008 62.458035 
L 772.496086 62.306547 
L 774.056164 62.658923 
L 775.616243 63.499074 
L 777.176321 64.790224 
L 778.736399 66.479975 
L 780.296477 68.506706 
L 781.856556 70.805853 
L 784.976712 75.977413 
L 789.656947 84.431289 
L 795.89726 95.715843 
L 800.577495 103.688356 
L 805.25773 111.104558 
L 809.937965 117.95945 
L 814.6182 124.289008 
L 819.298434 130.142592 
L 823.978669 135.570909 
L 828.658904 140.621185 
L 833.339139 145.335564 
L 838.019374 149.750925 
L 842.699609 153.899259 
L 847.379843 157.80824 
L 850.5 160.293214 
L 850.5 160.293214 
" clip-path="url(#p7a4bd5762b)" style="fill: none; stroke: #bcbd22; stroke-width: 2.5; stroke-linecap: square"/>
   </g>
   <g id="line2d_46">
    <path d="M 53.3 280.136204 
L 82.941487 279.727758 
L 112.582975 279.094839 
L 142.224462 278.233026 
L 170.305871 277.199874 
L 198.38728 275.948957 
L 226.468689 274.471722 
L 252.99002 272.859284 
L 279.51135 271.024847 
L 304.472603 269.084006 
L 329.433855 266.922308 
L 352.835029 264.681661 
L 376.236204 262.218773 
L 398.077299 259.704185 
L 419.918395 256.964014 
L 440.199413 254.200313 
L 460.480431 251.206305 
L 479.20137 248.219078 
L 497.922309 244.996112 
L 515.08317 241.813796 
L 530.683953 238.712305 
L 546.284736 235.391844 
L 561.885519 231.829 
L 575.926223 228.392262 
L 589.966928 224.712467 
L 602.447554 221.214286 
L 614.92818 217.477212 
L 625.848728 213.988854 
L 636.769276 210.272833 
L 647.689824 206.302055 
L 657.050294 202.671349 
L 666.410763 198.805411 
L 675.771233 194.675325 
L 683.571624 191.006989 
L 691.372016 187.107362 
L 699.172407 182.94816 
L 706.972798 178.495609 
L 713.213112 174.695274 
L 719.453425 170.656476 
L 725.693738 166.349943 
L 731.934051 161.740917 
L 738.174364 156.787835 
L 742.854599 152.817512 
L 747.534834 148.600843 
L 752.215068 144.109064 
L 756.895303 139.308932 
L 761.575538 134.162186 
L 766.255773 128.625271 
L 770.936008 122.649789 
L 775.616243 116.184715 
L 780.296477 109.182642 
L 784.976712 101.614876 
L 789.656947 93.505546 
L 802.137573 71.292799 
L 803.697652 68.946797 
L 805.25773 66.860423 
L 806.817808 65.098168 
L 808.377886 63.722715 
L 809.937965 62.788836 
L 811.498043 62.336901 
L 813.058121 62.387429 
L 814.6182 62.938091 
L 816.178278 63.964065 
L 817.738356 65.421608 
L 819.298434 67.253841 
L 820.858513 69.397263 
L 823.978669 74.364525 
L 828.658904 82.714331 
L 836.459295 96.808748 
L 841.13953 104.710107 
L 845.819765 112.050441 
L 850.5 118.832728 
L 850.5 118.832728 
" clip-path="url(#p7a4bd5762b)" style="fill: none; stroke: #17becf; stroke-width: 2.5; stroke-linecap: square"/>
   </g>
   <g id="line2d_47">
    <path d="M 53.3 280.336268 
L 82.941487 280.226115 
L 112.582975 279.894908 
L 142.224462 279.340381 
L 171.865949 278.558684 
L 199.947358 277.603585 
L 228.028767 276.433412 
L 256.110176 275.040272 
L 282.631507 273.511018 
L 309.152838 271.764175 
L 335.674168 269.787722 
L 360.635421 267.70492 
L 385.596673 265.391686 
L 408.997847 262.998676 
L 430.838943 260.554414 
L 452.680039 257.890388 
L 472.961057 255.203534 
L 493.242074 252.293361 
L 511.963014 249.390843 
L 530.683953 246.260911 
L 547.844814 243.172528 
L 565.005675 239.852962 
L 580.606458 236.613824 
L 596.207241 233.141195 
L 610.247945 229.794675 
L 624.28865 226.215282 
L 636.769276 222.816493 
L 649.249902 219.190176 
L 661.730528 215.309804 
L 672.651076 211.681259 
L 683.571624 207.808579 
L 692.932094 204.272014 
L 702.292564 200.511269 
L 711.653033 196.499535 
L 719.453425 192.941786 
L 727.253816 189.16566 
L 735.054207 185.145276 
L 742.854599 180.84987 
L 749.094912 177.19098 
L 755.335225 173.310215 
L 761.575538 169.181296 
L 767.815851 164.773161 
L 774.056164 160.048838 
L 778.736399 156.271761 
L 783.416634 152.270108 
L 788.096869 148.018512 
L 792.777104 143.487645 
L 797.457339 138.643622 
L 802.137573 133.447486 
L 806.817808 127.854982 
L 811.498043 121.817179 
L 816.178278 115.283045 
L 820.858513 108.206514 
L 825.538748 100.563375 
L 830.218982 92.389128 
L 841.13953 72.799207 
L 842.699609 70.32729 
L 844.259687 68.077504 
L 845.819765 66.113015 
L 847.379843 64.498255 
L 848.939922 63.293524 
L 850.5 62.548589 
L 850.5 62.548589 
" clip-path="url(#p7a4bd5762b)" style="fill: none; stroke: #1f77b4; stroke-width: 2.5; stroke-linecap: square"/>
   </g>
   <g id="patch_3">
    <path d="M 53.3 237.58 
L 53.3 13.5 
" style="fill: none; stroke: #000000; stroke-width: 0.8; stroke-linejoin: miter; stroke-linecap: square"/>
   </g>
   <g id="patch_4">
    <path d="M 850.5 237.58 
L 850.5 13.5 
" style="fill: none; stroke: #000000; stroke-width: 0.8; stroke-linejoin: miter; stroke-linecap: square"/>
   </g>
   <g id="patch_5">
    <path d="M 53.3 237.58 
L 850.5 237.58 
" style="fill: none; stroke: #000000; stroke-width: 0.8; stroke-linejoin: miter; stroke-linecap: square"/>
   </g>
   <g id="patch_6">
    <path d="M 53.3 13.5 
L 850.5 13.5 
" style="fill: none; stroke: #000000; stroke-width: 0.8; stroke-linejoin: miter; stroke-linecap: square"/>
   </g>
  </g>
 </g>
 <defs>
  <clipPath id="p7a4bd5762b">
   <rect x="53.3" y="13.5" width="797.2" height="224.08"/>
  </clipPath>
 </defs>
</svg>
